# Blender v2.79 (sub 0) OBJ File: 'unicode_to_obj.blend'
# www.blender.org
mtllib 0023.mtl
o Text_CUText.948
v 0.227000 -0.422000 -0.060000
v 0.421000 -0.422000 -0.060000
v 0.462000 -0.617000 -0.060000
v 0.534000 -0.617000 -0.060000
v 0.493000 -0.422000 -0.060000
v 0.584000 -0.422000 -0.060000
v 0.584000 -0.353000 -0.060000
v 0.479000 -0.353000 -0.060000
v 0.443000 -0.183000 -0.060000
v 0.584000 -0.183000 -0.060000
v 0.584000 -0.114000 -0.060000
v 0.429000 -0.114000 -0.060000
v 0.388000 0.081000 -0.060000
v 0.316000 0.081000 -0.060000
v 0.357000 -0.114000 -0.060000
v 0.163000 -0.114000 -0.060000
v 0.122000 0.081000 -0.060000
v 0.050000 0.081000 -0.060000
v 0.091000 -0.114000 -0.060000
v 0.001000 -0.114000 -0.060000
v 0.001000 -0.183000 -0.060000
v 0.105000 -0.183000 -0.060000
v 0.141000 -0.353000 -0.060000
v 0.001000 -0.353000 -0.060000
v 0.001000 -0.422000 -0.060000
v 0.155000 -0.422000 -0.060000
v 0.196000 -0.617000 -0.060000
v 0.268000 -0.617000 -0.060000
v 0.371000 -0.183000 -0.060000
v 0.407000 -0.353000 -0.060000
v 0.213000 -0.353000 -0.060000
v 0.177000 -0.183000 -0.060000
v 0.227000 -0.422000 0.060000
v 0.421000 -0.422000 0.060000
v 0.462000 -0.617000 0.060000
v 0.534000 -0.617000 0.060000
v 0.493000 -0.422000 0.060000
v 0.584000 -0.422000 0.060000
v 0.584000 -0.353000 0.060000
v 0.479000 -0.353000 0.060000
v 0.443000 -0.183000 0.060000
v 0.584000 -0.183000 0.060000
v 0.584000 -0.114000 0.060000
v 0.429000 -0.114000 0.060000
v 0.388000 0.081000 0.060000
v 0.316000 0.081000 0.060000
v 0.357000 -0.114000 0.060000
v 0.163000 -0.114000 0.060000
v 0.122000 0.081000 0.060000
v 0.050000 0.081000 0.060000
v 0.091000 -0.114000 0.060000
v 0.001000 -0.114000 0.060000
v 0.001000 -0.183000 0.060000
v 0.105000 -0.183000 0.060000
v 0.141000 -0.353000 0.060000
v 0.001000 -0.353000 0.060000
v 0.001000 -0.422000 0.060000
v 0.155000 -0.422000 0.060000
v 0.196000 -0.617000 0.060000
v 0.268000 -0.617000 0.060000
v 0.371000 -0.183000 0.060000
v 0.407000 -0.353000 0.060000
v 0.213000 -0.353000 0.060000
v 0.177000 -0.183000 0.060000
v 0.227000 -0.422000 0.060000
v 0.251642 -0.442000 0.040000
v 0.421000 -0.422000 0.060000
v 0.404768 -0.442000 0.040000
v 0.462000 -0.617000 0.060000
v 0.445768 -0.637000 0.040000
v 0.534000 -0.617000 0.060000
v 0.558642 -0.637000 0.040000
v 0.493000 -0.422000 0.060000
v 0.517642 -0.442000 0.040000
v 0.584000 -0.422000 0.060000
v 0.604000 -0.442000 0.040000
v 0.584000 -0.353000 0.060000
v 0.604000 -0.333000 0.040000
v 0.479000 -0.353000 0.060000
v 0.495208 -0.333000 0.040000
v 0.443000 -0.183000 0.060000
v 0.467679 -0.203000 0.040000
v 0.584000 -0.183000 0.060000
v 0.604000 -0.203000 0.040000
v 0.584000 -0.114000 0.060000
v 0.604000 -0.094000 0.040000
v 0.429000 -0.114000 0.060000
v 0.445232 -0.094000 0.040000
v 0.388000 0.081000 0.060000
v 0.404232 0.101000 0.040000
v 0.316000 0.081000 0.060000
v 0.291358 0.101000 0.040000
v 0.357000 -0.114000 0.060000
v 0.332358 -0.094000 0.040000
v 0.163000 -0.114000 0.060000
v 0.179232 -0.094000 0.040000
v 0.122000 0.081000 0.060000
v 0.138232 0.101000 0.040000
v 0.050000 0.081000 0.060000
v 0.025358 0.101000 0.040000
v 0.091000 -0.114000 0.060000
v 0.066358 -0.094000 0.040000
v 0.001000 -0.114000 0.060000
v -0.019000 -0.094000 0.040000
v 0.001000 -0.183000 0.060000
v -0.019000 -0.203000 0.040000
v 0.105000 -0.183000 0.060000
v 0.088792 -0.203000 0.040000
v 0.141000 -0.353000 0.060000
v 0.116321 -0.333000 0.040000
v 0.001000 -0.353000 0.060000
v -0.019000 -0.333000 0.040000
v 0.001000 -0.422000 0.060000
v -0.019000 -0.442000 0.040000
v 0.155000 -0.422000 0.060000
v 0.138768 -0.442000 0.040000
v 0.196000 -0.617000 0.060000
v 0.179768 -0.637000 0.040000
v 0.268000 -0.617000 0.060000
v 0.292642 -0.637000 0.040000
v 0.251642 -0.442000 0.040000
v 0.251642 -0.442000 -0.040000
v 0.404768 -0.442000 0.040000
v 0.404768 -0.442000 -0.040000
v 0.445768 -0.637000 0.040000
v 0.445768 -0.637000 -0.040000
v 0.558642 -0.637000 0.040000
v 0.558642 -0.637000 -0.040000
v 0.517642 -0.442000 0.040000
v 0.517642 -0.442000 -0.040000
v 0.604000 -0.442000 0.040000
v 0.604000 -0.442000 -0.040000
v 0.604000 -0.333000 0.040000
v 0.604000 -0.333000 -0.040000
v 0.495208 -0.333000 0.040000
v 0.495208 -0.333000 -0.040000
v 0.467679 -0.203000 0.040000
v 0.467679 -0.203000 -0.040000
v 0.604000 -0.203000 0.040000
v 0.604000 -0.203000 -0.040000
v 0.604000 -0.094000 0.040000
v 0.604000 -0.094000 -0.040000
v 0.445232 -0.094000 0.040000
v 0.445232 -0.094000 -0.040000
v 0.404232 0.101000 0.040000
v 0.404232 0.101000 -0.040000
v 0.291358 0.101000 0.040000
v 0.291358 0.101000 -0.040000
v 0.332358 -0.094000 0.040000
v 0.332358 -0.094000 -0.040000
v 0.179232 -0.094000 0.040000
v 0.179232 -0.094000 -0.040000
v 0.138232 0.101000 0.040000
v 0.138232 0.101000 -0.040000
v 0.025358 0.101000 0.040000
v 0.025358 0.101000 -0.040000
v 0.066358 -0.094000 0.040000
v 0.066358 -0.094000 -0.040000
v -0.019000 -0.094000 0.040000
v -0.019000 -0.094000 -0.040000
v -0.019000 -0.203000 0.040000
v -0.019000 -0.203000 -0.040000
v 0.088792 -0.203000 0.040000
v 0.088792 -0.203000 -0.040000
v 0.116321 -0.333000 0.040000
v 0.116321 -0.333000 -0.040000
v -0.019000 -0.333000 0.040000
v -0.019000 -0.333000 -0.040000
v -0.019000 -0.442000 0.040000
v -0.019000 -0.442000 -0.040000
v 0.138768 -0.442000 0.040000
v 0.138768 -0.442000 -0.040000
v 0.179768 -0.637000 0.040000
v 0.179768 -0.637000 -0.040000
v 0.292642 -0.637000 0.040000
v 0.292642 -0.637000 -0.040000
v 0.251642 -0.442000 -0.040000
v 0.227000 -0.422000 -0.060000
v 0.404768 -0.442000 -0.040000
v 0.421000 -0.422000 -0.060000
v 0.445768 -0.637000 -0.040000
v 0.462000 -0.617000 -0.060000
v 0.558642 -0.637000 -0.040000
v 0.534000 -0.617000 -0.060000
v 0.517642 -0.442000 -0.040000
v 0.493000 -0.422000 -0.060000
v 0.604000 -0.442000 -0.040000
v 0.584000 -0.422000 -0.060000
v 0.604000 -0.333000 -0.040000
v 0.584000 -0.353000 -0.060000
v 0.495208 -0.333000 -0.040000
v 0.479000 -0.353000 -0.060000
v 0.467679 -0.203000 -0.040000
v 0.443000 -0.183000 -0.060000
v 0.604000 -0.203000 -0.040000
v 0.584000 -0.183000 -0.060000
v 0.604000 -0.094000 -0.040000
v 0.584000 -0.114000 -0.060000
v 0.445232 -0.094000 -0.040000
v 0.429000 -0.114000 -0.060000
v 0.404232 0.101000 -0.040000
v 0.388000 0.081000 -0.060000
v 0.291358 0.101000 -0.040000
v 0.316000 0.081000 -0.060000
v 0.332358 -0.094000 -0.040000
v 0.357000 -0.114000 -0.060000
v 0.179232 -0.094000 -0.040000
v 0.163000 -0.114000 -0.060000
v 0.138232 0.101000 -0.040000
v 0.122000 0.081000 -0.060000
v 0.025358 0.101000 -0.040000
v 0.050000 0.081000 -0.060000
v 0.066358 -0.094000 -0.040000
v 0.091000 -0.114000 -0.060000
v -0.019000 -0.094000 -0.040000
v 0.001000 -0.114000 -0.060000
v -0.019000 -0.203000 -0.040000
v 0.001000 -0.183000 -0.060000
v 0.088792 -0.203000 -0.040000
v 0.105000 -0.183000 -0.060000
v 0.116321 -0.333000 -0.040000
v 0.141000 -0.353000 -0.060000
v -0.019000 -0.333000 -0.040000
v 0.001000 -0.353000 -0.060000
v -0.019000 -0.442000 -0.040000
v 0.001000 -0.422000 -0.060000
v 0.138768 -0.442000 -0.040000
v 0.155000 -0.422000 -0.060000
v 0.179768 -0.637000 -0.040000
v 0.196000 -0.617000 -0.060000
v 0.292642 -0.637000 -0.040000
v 0.268000 -0.617000 -0.060000
v 0.371000 -0.183000 0.060000
v 0.354792 -0.203000 0.040000
v 0.407000 -0.353000 0.060000
v 0.382321 -0.333000 0.040000
v 0.213000 -0.353000 0.060000
v 0.229208 -0.333000 0.040000
v 0.177000 -0.183000 0.060000
v 0.201679 -0.203000 0.040000
v 0.354792 -0.203000 0.040000
v 0.354792 -0.203000 -0.040000
v 0.382321 -0.333000 0.040000
v 0.382321 -0.333000 -0.040000
v 0.229208 -0.333000 0.040000
v 0.229208 -0.333000 -0.040000
v 0.201679 -0.203000 0.040000
v 0.201679 -0.203000 -0.040000
v 0.354792 -0.203000 -0.040000
v 0.371000 -0.183000 -0.060000
v 0.382321 -0.333000 -0.040000
v 0.407000 -0.353000 -0.060000
v 0.229208 -0.333000 -0.040000
v 0.213000 -0.353000 -0.060000
v 0.201679 -0.203000 -0.040000
v 0.177000 -0.183000 -0.060000
vn 0.0000 0.0000 -1.0000
vn 0.0000 0.0000 1.0000
vn 0.4140 -0.3359 0.8460
vn -0.3865 -0.4762 0.7898
vn 0.4082 -0.4082 0.8165
vn 0.4082 0.4082 0.8165
vn 0.3863 0.4766 0.7897
vn 0.4139 -0.3355 0.8462
vn 0.3865 0.4762 0.7898
vn -0.4140 0.3359 0.8460
vn -0.4082 0.4082 0.8165
vn -0.4082 -0.4082 0.8165
vn -0.3863 -0.4766 0.7897
vn -0.4139 0.3355 0.8462
vn 0.7765 -0.6301 0.0000
vn -0.6301 -0.7765 0.0000
vn 0.7071 -0.7071 0.0000
vn 0.7071 0.7071 0.0000
vn 0.6296 0.7769 0.0000
vn 0.7769 -0.6296 0.0000
vn 0.6301 0.7765 0.0000
vn -0.7765 0.6301 0.0000
vn -0.7071 0.7071 0.0000
vn -0.7071 -0.7071 0.0000
vn -0.6296 -0.7769 0.0000
vn -0.7769 0.6296 0.0000
vn 0.4140 -0.3359 -0.8460
vn -0.3865 -0.4762 -0.7898
vn 0.4082 -0.4082 -0.8165
vn 0.4082 0.4082 -0.8165
vn 0.3863 0.4766 -0.7897
vn 0.4139 -0.3355 -0.8462
vn 0.3865 0.4762 -0.7898
vn -0.4140 0.3359 -0.8460
vn -0.4082 0.4082 -0.8165
vn -0.4082 -0.4082 -0.8165
vn -0.3863 -0.4766 -0.7897
vn -0.4139 0.3355 -0.8462
usemtl None
s off
f 26//1 28//1 27//1
f 26//1 1//1 28//1
f 2//1 4//1 3//1
f 2//1 5//1 4//1
f 24//1 26//1 25//1
f 24//1 1//1 26//1
f 24//1 2//1 1//1
f 24//1 5//1 2//1
f 24//1 6//1 5//1
f 24//1 7//1 6//1
f 23//2 7//2 24//2
f 22//1 31//1 23//1
f 31//2 7//2 23//2
f 22//1 32//1 31//1
f 30//1 7//1 31//1
f 29//1 8//1 30//1
f 8//1 7//1 30//1
f 29//1 9//1 8//1
f 20//1 22//1 21//1
f 20//1 32//1 22//1
f 20//1 29//1 32//1
f 20//1 9//1 29//1
f 20//1 10//1 9//1
f 20//1 11//1 10//1
f 19//2 11//2 20//2
f 18//1 16//1 19//1
f 16//2 11//2 19//2
f 18//1 17//1 16//1
f 15//2 11//2 16//2
f 14//1 12//1 15//1
f 12//2 11//2 15//2
f 14//1 13//1 12//1
f 60//2 58//2 59//2
f 33//2 58//2 60//2
f 36//2 34//2 35//2
f 37//2 34//2 36//2
f 58//2 56//2 57//2
f 33//2 56//2 58//2
f 34//2 56//2 33//2
f 37//2 56//2 34//2
f 38//2 56//2 37//2
f 39//2 56//2 38//2
f 39//1 55//1 56//1
f 63//2 54//2 55//2
f 39//1 63//1 55//1
f 64//2 54//2 63//2
f 39//2 62//2 63//2
f 40//2 61//2 62//2
f 39//2 40//2 62//2
f 41//2 61//2 40//2
f 54//2 52//2 53//2
f 64//2 52//2 54//2
f 61//2 52//2 64//2
f 41//2 52//2 61//2
f 42//2 52//2 41//2
f 43//2 52//2 42//2
f 43//2 51//2 52//2
f 48//2 50//2 51//2
f 43//1 48//1 51//1
f 49//2 50//2 48//2
f 43//2 47//2 48//2
f 44//2 46//2 47//2
f 43//1 44//1 47//1
f 45//2 46//2 44//2
s 1
f 66//3 68//4 67//4 65//3
f 68//4 70//4 69//4 67//4
f 70//4 72//3 71//3 69//4
f 72//3 74//3 73//3 71//3
f 74//3 76//5 75//5 73//3
f 76//5 78//6 77//6 75//5
f 78//6 80//7 79//7 77//6
f 80//7 82//8 81//8 79//7
f 82//8 84//5 83//5 81//8
f 84//5 86//6 85//6 83//5
f 86//6 88//9 87//9 85//6
f 88//9 90//9 89//9 87//9
f 90//9 92//10 91//10 89//9
f 92//10 94//10 93//10 91//10
f 94//10 96//9 95//9 93//10
f 96//9 98//9 97//9 95//9
f 98//9 100//10 99//10 97//9
f 100//10 102//10 101//10 99//10
f 102//10 104//11 103//11 101//10
f 104//11 106//12 105//12 103//11
f 106//12 108//13 107//13 105//12
f 108//13 110//14 109//14 107//13
f 110//14 112//11 111//11 109//14
f 112//11 114//12 113//12 111//11
f 114//12 116//4 115//4 113//12
f 116//4 118//4 117//4 115//4
f 118//4 120//3 119//3 117//4
f 120//3 66//3 65//3 119//3
f 122//15 124//16 123//16 121//15
f 124//16 126//16 125//16 123//16
f 126//16 128//15 127//15 125//16
f 128//15 130//15 129//15 127//15
f 130//15 132//17 131//17 129//15
f 132//17 134//18 133//18 131//17
f 134//18 136//19 135//19 133//18
f 136//19 138//20 137//20 135//19
f 138//20 140//17 139//17 137//20
f 140//17 142//18 141//18 139//17
f 142//18 144//21 143//21 141//18
f 144//21 146//21 145//21 143//21
f 146//21 148//22 147//22 145//21
f 148//22 150//22 149//22 147//22
f 150//22 152//21 151//21 149//22
f 152//21 154//21 153//21 151//21
f 154//21 156//22 155//22 153//21
f 156//22 158//22 157//22 155//22
f 158//22 160//23 159//23 157//22
f 160//23 162//24 161//24 159//23
f 162//24 164//25 163//25 161//24
f 164//25 166//26 165//26 163//25
f 166//26 168//23 167//23 165//26
f 168//23 170//24 169//24 167//23
f 170//24 172//16 171//16 169//24
f 172//16 174//16 173//16 171//16
f 174//16 176//15 175//15 173//16
f 176//15 122//15 121//15 175//15
f 178//27 180//28 179//28 177//27
f 180//28 182//28 181//28 179//28
f 182//28 184//27 183//27 181//28
f 184//27 186//27 185//27 183//27
f 186//27 188//29 187//29 185//27
f 188//29 190//30 189//30 187//29
f 190//30 192//31 191//31 189//30
f 192//31 194//32 193//32 191//31
f 194//32 196//29 195//29 193//32
f 196//29 198//30 197//30 195//29
f 198//30 200//33 199//33 197//30
f 200//33 202//33 201//33 199//33
f 202//33 204//34 203//34 201//33
f 204//34 206//34 205//34 203//34
f 206//34 208//33 207//33 205//34
f 208//33 210//33 209//33 207//33
f 210//33 212//34 211//34 209//33
f 212//34 214//34 213//34 211//34
f 214//34 216//35 215//35 213//34
f 216//35 218//36 217//36 215//35
f 218//36 220//37 219//37 217//36
f 220//37 222//38 221//38 219//37
f 222//38 224//35 223//35 221//38
f 224//35 226//36 225//36 223//35
f 226//36 228//28 227//28 225//36
f 228//28 230//28 229//28 227//28
f 230//28 232//27 231//27 229//28
f 232//27 178//27 177//27 231//27
f 234//13 236//14 235//14 233//13
f 236//14 238//7 237//7 235//14
f 238//7 240//8 239//8 237//7
f 240//8 234//13 233//13 239//8
f 242//25 244//26 243//26 241//25
f 244//26 246//19 245//19 243//26
f 246//19 248//20 247//20 245//19
f 248//20 242//25 241//25 247//20
f 250//37 252//38 251//38 249//37
f 252//38 254//31 253//31 251//38
f 254//31 256//32 255//32 253//31
f 256//32 250//37 249//37 255//32
