# Blender v2.79 (sub 0) OBJ File: 'unicode_to_obj.blend'
# www.blender.org
mtllib 0027.mtl
o Text_CUText.952
v 0.050000 -0.716000 -0.060000
v 0.138000 -0.716000 -0.060000
v 0.138000 -0.599000 -0.060000
v 0.115000 -0.462000 -0.060000
v 0.073000 -0.462000 -0.060000
v 0.050000 -0.599000 -0.060000
v 0.050000 -0.716000 0.060000
v 0.138000 -0.716000 0.060000
v 0.138000 -0.599000 0.060000
v 0.115000 -0.462000 0.060000
v 0.073000 -0.462000 0.060000
v 0.050000 -0.599000 0.060000
v 0.050000 -0.716000 0.060000
v 0.030000 -0.736000 0.040000
v 0.138000 -0.716000 0.060000
v 0.158000 -0.736000 0.040000
v 0.138000 -0.599000 0.060000
v 0.158000 -0.597333 0.040000
v 0.115000 -0.462000 0.060000
v 0.131922 -0.442000 0.040000
v 0.073000 -0.462000 0.060000
v 0.056078 -0.442000 0.040000
v 0.050000 -0.599000 0.060000
v 0.030000 -0.597333 0.040000
v 0.030000 -0.736000 0.040000
v 0.030000 -0.736000 -0.040000
v 0.158000 -0.736000 0.040000
v 0.158000 -0.736000 -0.040000
v 0.158000 -0.597333 0.040000
v 0.158000 -0.597333 -0.040000
v 0.131922 -0.442000 0.040000
v 0.131922 -0.442000 -0.040000
v 0.056078 -0.442000 0.040000
v 0.056078 -0.442000 -0.040000
v 0.030000 -0.597333 0.040000
v 0.030000 -0.597333 -0.040000
v 0.030000 -0.736000 -0.040000
v 0.050000 -0.716000 -0.060000
v 0.158000 -0.736000 -0.040000
v 0.138000 -0.716000 -0.060000
v 0.158000 -0.597333 -0.040000
v 0.138000 -0.599000 -0.060000
v 0.131922 -0.442000 -0.040000
v 0.115000 -0.462000 -0.060000
v 0.056078 -0.442000 -0.040000
v 0.073000 -0.462000 -0.060000
v 0.030000 -0.597333 -0.040000
v 0.050000 -0.599000 -0.060000
vn 0.0000 0.0000 -1.0000
vn 0.0000 0.0000 1.0000
vn -0.4082 -0.4082 0.8165
vn 0.4082 -0.4082 0.8165
vn 0.7034 0.0586 0.7083
vn 0.3919 0.4632 0.7949
vn -0.3919 0.4632 0.7949
vn -0.7034 0.0586 0.7083
vn -0.7071 -0.7071 0.0000
vn 0.7071 -0.7071 0.0000
vn 0.9965 0.0830 0.0000
vn 0.6459 0.7634 0.0000
vn -0.6459 0.7634 0.0000
vn -0.9965 0.0830 0.0000
vn -0.4082 -0.4082 -0.8165
vn 0.4082 -0.4082 -0.8165
vn 0.7034 0.0586 -0.7083
vn 0.3919 0.4632 -0.7949
vn -0.3919 0.4632 -0.7949
vn -0.7034 0.0586 -0.7083
usemtl None
s off
f 6//1 2//1 1//1
f 6//1 3//1 2//1
f 5//1 3//1 6//1
f 5//1 4//1 3//1
f 8//2 12//2 7//2
f 9//2 12//2 8//2
f 9//2 11//2 12//2
f 10//2 11//2 9//2
s 1
f 14//3 16//4 15//4 13//3
f 16//4 18//5 17//5 15//4
f 18//5 20//6 19//6 17//5
f 20//6 22//7 21//7 19//6
f 22//7 24//8 23//8 21//7
f 24//8 14//3 13//3 23//8
f 26//9 28//10 27//10 25//9
f 28//10 30//11 29//11 27//10
f 30//11 32//12 31//12 29//11
f 32//12 34//13 33//13 31//12
f 34//13 36//14 35//14 33//13
f 36//14 26//9 25//9 35//14
f 38//15 40//16 39//16 37//15
f 40//16 42//17 41//17 39//16
f 42//17 44//18 43//18 41//17
f 44//18 46//19 45//19 43//18
f 46//19 48//20 47//20 45//19
f 48//20 38//15 37//15 47//20
