# Blender v2.79 (sub 0) OBJ File: 'unicode_to_obj.blend'
# www.blender.org
mtllib 0029.mtl
o Text_CUText.954
v 0.065000 -0.694000 -0.060000
v 0.093815 -0.663330 -0.060000
v 0.120690 -0.630472 -0.060000
v 0.145516 -0.595656 -0.060000
v 0.168185 -0.559111 -0.060000
v 0.188591 -0.521066 -0.060000
v 0.206625 -0.481750 -0.060000
v 0.222180 -0.441392 -0.060000
v 0.235148 -0.400222 -0.060000
v 0.245422 -0.358469 -0.060000
v 0.252894 -0.316361 -0.060000
v 0.257455 -0.274128 -0.060000
v 0.259000 -0.232000 -0.060000
v 0.257455 -0.189872 -0.060000
v 0.252894 -0.147639 -0.060000
v 0.245422 -0.105531 -0.060000
v 0.235148 -0.063778 -0.060000
v 0.222180 -0.022608 -0.060000
v 0.206625 0.017750 -0.060000
v 0.188591 0.057066 -0.060000
v 0.168185 0.095111 -0.060000
v 0.145516 0.131656 -0.060000
v 0.120690 0.166472 -0.060000
v 0.093815 0.199330 -0.060000
v 0.065000 0.230000 -0.060000
v 0.012000 0.230000 -0.060000
v 0.035210 0.197267 -0.060000
v 0.056347 0.163556 -0.060000
v 0.075422 0.128844 -0.060000
v 0.092444 0.093111 -0.060000
v 0.107425 0.056337 -0.060000
v 0.120375 0.018500 -0.060000
v 0.131304 -0.020420 -0.060000
v 0.140222 -0.060444 -0.060000
v 0.147141 -0.101594 -0.060000
v 0.152069 -0.143889 -0.060000
v 0.155019 -0.187351 -0.060000
v 0.156000 -0.232000 -0.060000
v 0.155019 -0.276649 -0.060000
v 0.152069 -0.320111 -0.060000
v 0.147141 -0.362406 -0.060000
v 0.140222 -0.403556 -0.060000
v 0.131304 -0.443580 -0.060000
v 0.120375 -0.482500 -0.060000
v 0.107425 -0.520337 -0.060000
v 0.092444 -0.557111 -0.060000
v 0.075422 -0.592844 -0.060000
v 0.056347 -0.627556 -0.060000
v 0.035210 -0.661267 -0.060000
v 0.012000 -0.694000 -0.060000
v 0.065000 -0.694000 0.060000
v 0.093815 -0.663330 0.060000
v 0.120690 -0.630472 0.060000
v 0.145516 -0.595656 0.060000
v 0.168185 -0.559111 0.060000
v 0.188591 -0.521066 0.060000
v 0.206625 -0.481750 0.060000
v 0.222180 -0.441392 0.060000
v 0.235148 -0.400222 0.060000
v 0.245422 -0.358469 0.060000
v 0.252894 -0.316361 0.060000
v 0.257455 -0.274128 0.060000
v 0.259000 -0.232000 0.060000
v 0.257455 -0.189872 0.060000
v 0.252894 -0.147639 0.060000
v 0.245422 -0.105531 0.060000
v 0.235148 -0.063778 0.060000
v 0.222180 -0.022608 0.060000
v 0.206625 0.017750 0.060000
v 0.188591 0.057066 0.060000
v 0.168185 0.095111 0.060000
v 0.145516 0.131656 0.060000
v 0.120690 0.166472 0.060000
v 0.093815 0.199330 0.060000
v 0.065000 0.230000 0.060000
v 0.012000 0.230000 0.060000
v 0.035210 0.197267 0.060000
v 0.056347 0.163556 0.060000
v 0.075422 0.128844 0.060000
v 0.092444 0.093111 0.060000
v 0.107425 0.056337 0.060000
v 0.120375 0.018500 0.060000
v 0.131304 -0.020420 0.060000
v 0.140222 -0.060444 0.060000
v 0.147141 -0.101594 0.060000
v 0.152069 -0.143889 0.060000
v 0.155019 -0.187351 0.060000
v 0.156000 -0.232000 0.060000
v 0.155019 -0.276649 0.060000
v 0.152069 -0.320111 0.060000
v 0.147141 -0.362406 0.060000
v 0.140222 -0.403556 0.060000
v 0.131304 -0.443580 0.060000
v 0.120375 -0.482500 0.060000
v 0.107425 -0.520337 0.060000
v 0.092444 -0.557111 0.060000
v 0.075422 -0.592844 0.060000
v 0.056347 -0.627556 0.060000
v 0.035210 -0.661267 0.060000
v 0.012000 -0.694000 0.060000
v 0.065000 -0.694000 0.060000
v 0.073652 -0.714000 0.040000
v 0.093815 -0.663330 0.060000
v 0.108862 -0.676524 0.040000
v 0.120690 -0.630472 0.060000
v 0.136590 -0.642622 0.040000
v 0.145516 -0.595656 0.060000
v 0.162173 -0.606745 0.040000
v 0.168185 -0.559111 0.060000
v 0.185513 -0.569119 0.040000
v 0.188591 -0.521066 0.060000
v 0.206510 -0.529970 0.040000
v 0.206625 -0.481750 0.060000
v 0.225063 -0.489523 0.040000
v 0.222180 -0.441392 0.060000
v 0.241067 -0.448000 0.040000
v 0.235148 -0.400222 0.060000
v 0.254416 -0.405621 0.040000
v 0.245422 -0.358469 0.060000
v 0.265000 -0.362610 0.040000
v 0.252894 -0.316361 0.060000
v 0.272705 -0.319185 0.040000
v 0.257455 -0.274128 0.060000
v 0.277416 -0.275571 0.040000
v 0.259000 -0.232000 0.060000
v 0.279013 -0.232000 0.040000
v 0.257455 -0.189872 0.060000
v 0.277416 -0.188429 0.040000
v 0.252894 -0.147639 0.060000
v 0.272705 -0.144815 0.040000
v 0.245422 -0.105531 0.060000
v 0.265000 -0.101390 0.040000
v 0.235148 -0.063778 0.060000
v 0.254416 -0.058379 0.040000
v 0.222180 -0.022608 0.060000
v 0.241068 -0.016000 0.040000
v 0.206625 0.017750 0.060000
v 0.225063 0.025523 0.040000
v 0.188591 0.057066 0.060000
v 0.206510 0.065970 0.040000
v 0.168185 0.095111 0.060000
v 0.185513 0.105119 0.040000
v 0.145516 0.131656 0.060000
v 0.162173 0.142745 0.040000
v 0.120690 0.166472 0.060000
v 0.136590 0.178622 0.040000
v 0.093815 0.199330 0.060000
v 0.108862 0.212524 0.040000
v 0.065000 0.230000 0.060000
v 0.073652 0.250000 0.040000
v 0.012000 0.230000 0.060000
v -0.026699 0.250000 0.040000
v 0.035210 0.197267 0.060000
v 0.018567 0.186162 0.040000
v 0.056347 0.163556 0.060000
v 0.039097 0.153419 0.040000
v 0.075422 0.128844 0.060000
v 0.057615 0.119719 0.040000
v 0.092444 0.093111 0.060000
v 0.074140 0.085031 0.040000
v 0.107425 0.056337 0.060000
v 0.088688 0.049320 0.040000
v 0.120375 0.018500 0.060000
v 0.101271 0.012554 0.040000
v 0.131304 -0.020420 0.060000
v 0.111901 -0.025302 0.040000
v 0.140222 -0.060444 0.060000
v 0.120586 -0.064280 0.040000
v 0.147141 -0.101594 0.060000
v 0.127334 -0.104411 0.040000
v 0.152069 -0.143889 0.060000
v 0.132148 -0.145725 0.040000
v 0.155019 -0.187351 0.060000
v 0.135034 -0.188248 0.040000
v 0.156000 -0.232000 0.060000
v 0.135995 -0.232000 0.040000
v 0.155019 -0.276649 0.060000
v 0.135034 -0.275752 0.040000
v 0.152069 -0.320111 0.060000
v 0.132148 -0.318275 0.040000
v 0.147141 -0.362406 0.060000
v 0.127334 -0.359589 0.040000
v 0.140222 -0.403556 0.060000
v 0.120586 -0.399720 0.040000
v 0.131304 -0.443580 0.060000
v 0.111901 -0.438698 0.040000
v 0.120375 -0.482500 0.060000
v 0.101271 -0.476554 0.040000
v 0.107425 -0.520337 0.060000
v 0.088688 -0.513320 0.040000
v 0.092444 -0.557111 0.060000
v 0.074140 -0.549031 0.040000
v 0.075422 -0.592844 0.060000
v 0.057615 -0.583719 0.040000
v 0.056347 -0.627556 0.060000
v 0.039097 -0.617419 0.040000
v 0.035210 -0.661267 0.060000
v 0.018567 -0.650162 0.040000
v 0.012000 -0.694000 0.060000
v -0.026699 -0.714000 0.040000
v 0.073652 -0.714000 0.040000
v 0.073652 -0.714000 -0.040000
v 0.108862 -0.676524 0.040000
v 0.108862 -0.676524 -0.040000
v 0.136590 -0.642622 0.040000
v 0.136590 -0.642622 -0.040000
v 0.162173 -0.606745 0.040000
v 0.162173 -0.606745 -0.040000
v 0.185513 -0.569119 0.040000
v 0.185513 -0.569119 -0.040000
v 0.206510 -0.529970 0.040000
v 0.206510 -0.529970 -0.040000
v 0.225063 -0.489523 0.040000
v 0.225063 -0.489523 -0.040000
v 0.241067 -0.448000 0.040000
v 0.241067 -0.448000 -0.040000
v 0.254416 -0.405621 0.040000
v 0.254416 -0.405621 -0.040000
v 0.265000 -0.362610 0.040000
v 0.265000 -0.362610 -0.040000
v 0.272705 -0.319185 0.040000
v 0.272705 -0.319185 -0.040000
v 0.277416 -0.275571 0.040000
v 0.277416 -0.275571 -0.040000
v 0.279013 -0.232000 0.040000
v 0.279013 -0.232000 -0.040000
v 0.277416 -0.188429 0.040000
v 0.277416 -0.188429 -0.040000
v 0.272705 -0.144815 0.040000
v 0.272705 -0.144815 -0.040000
v 0.265000 -0.101390 0.040000
v 0.265000 -0.101390 -0.040000
v 0.254416 -0.058379 0.040000
v 0.254416 -0.058379 -0.040000
v 0.241068 -0.016000 0.040000
v 0.241068 -0.016000 -0.040000
v 0.225063 0.025523 0.040000
v 0.225063 0.025523 -0.040000
v 0.206510 0.065970 0.040000
v 0.206510 0.065970 -0.040000
v 0.185513 0.105119 0.040000
v 0.185513 0.105119 -0.040000
v 0.162173 0.142745 0.040000
v 0.162173 0.142745 -0.040000
v 0.136590 0.178622 0.040000
v 0.136590 0.178622 -0.040000
v 0.108862 0.212524 0.040000
v 0.108862 0.212524 -0.040000
v 0.073652 0.250000 0.040000
v 0.073652 0.250000 -0.040000
v -0.026699 0.250000 0.040000
v -0.026699 0.250000 -0.040000
v 0.018567 0.186162 0.040000
v 0.018567 0.186162 -0.040000
v 0.039097 0.153419 0.040000
v 0.039097 0.153419 -0.040000
v 0.057615 0.119719 0.040000
v 0.057615 0.119719 -0.040000
v 0.074140 0.085031 0.040000
v 0.074140 0.085031 -0.040000
v 0.088688 0.049320 0.040000
v 0.088688 0.049320 -0.040000
v 0.101271 0.012554 0.040000
v 0.101271 0.012554 -0.040000
v 0.111901 -0.025302 0.040000
v 0.111901 -0.025302 -0.040000
v 0.120586 -0.064280 0.040000
v 0.120586 -0.064280 -0.040000
v 0.127334 -0.104411 0.040000
v 0.127334 -0.104411 -0.040000
v 0.132148 -0.145725 0.040000
v 0.132148 -0.145725 -0.040000
v 0.135034 -0.188248 0.040000
v 0.135034 -0.188248 -0.040000
v 0.135995 -0.232000 0.040000
v 0.135995 -0.232000 -0.040000
v 0.135034 -0.275752 0.040000
v 0.135034 -0.275752 -0.040000
v 0.132148 -0.318275 0.040000
v 0.132148 -0.318275 -0.040000
v 0.127334 -0.359589 0.040000
v 0.127334 -0.359589 -0.040000
v 0.120586 -0.399720 0.040000
v 0.120586 -0.399720 -0.040000
v 0.111901 -0.438698 0.040000
v 0.111901 -0.438698 -0.040000
v 0.101271 -0.476554 0.040000
v 0.101271 -0.476554 -0.040000
v 0.088688 -0.513320 0.040000
v 0.088688 -0.513320 -0.040000
v 0.074140 -0.549031 0.040000
v 0.074140 -0.549031 -0.040000
v 0.057615 -0.583719 0.040000
v 0.057615 -0.583719 -0.040000
v 0.039097 -0.617419 0.040000
v 0.039097 -0.617419 -0.040000
v 0.018567 -0.650162 0.040000
v 0.018567 -0.650162 -0.040000
v -0.026699 -0.714000 0.040000
v -0.026699 -0.714000 -0.040000
v 0.073652 -0.714000 -0.040000
v 0.065000 -0.694000 -0.060000
v 0.108862 -0.676524 -0.040000
v 0.093815 -0.663330 -0.060000
v 0.136590 -0.642622 -0.040000
v 0.120690 -0.630472 -0.060000
v 0.162173 -0.606745 -0.040000
v 0.145516 -0.595656 -0.060000
v 0.185513 -0.569119 -0.040000
v 0.168185 -0.559111 -0.060000
v 0.206510 -0.529970 -0.040000
v 0.188591 -0.521066 -0.060000
v 0.225063 -0.489523 -0.040000
v 0.206625 -0.481750 -0.060000
v 0.241067 -0.448000 -0.040000
v 0.222180 -0.441392 -0.060000
v 0.254416 -0.405621 -0.040000
v 0.235148 -0.400222 -0.060000
v 0.265000 -0.362610 -0.040000
v 0.245422 -0.358469 -0.060000
v 0.272705 -0.319185 -0.040000
v 0.252894 -0.316361 -0.060000
v 0.277416 -0.275571 -0.040000
v 0.257455 -0.274128 -0.060000
v 0.279013 -0.232000 -0.040000
v 0.259000 -0.232000 -0.060000
v 0.277416 -0.188429 -0.040000
v 0.257455 -0.189872 -0.060000
v 0.272705 -0.144815 -0.040000
v 0.252894 -0.147639 -0.060000
v 0.265000 -0.101390 -0.040000
v 0.245422 -0.105531 -0.060000
v 0.254416 -0.058379 -0.040000
v 0.235148 -0.063778 -0.060000
v 0.241068 -0.016000 -0.040000
v 0.222180 -0.022608 -0.060000
v 0.225063 0.025523 -0.040000
v 0.206625 0.017750 -0.060000
v 0.206510 0.065970 -0.040000
v 0.188591 0.057066 -0.060000
v 0.185513 0.105119 -0.040000
v 0.168185 0.095111 -0.060000
v 0.162173 0.142745 -0.040000
v 0.145516 0.131656 -0.060000
v 0.136590 0.178622 -0.040000
v 0.120690 0.166472 -0.060000
v 0.108862 0.212524 -0.040000
v 0.093815 0.199330 -0.060000
v 0.073652 0.250000 -0.040000
v 0.065000 0.230000 -0.060000
v -0.026699 0.250000 -0.040000
v 0.012000 0.230000 -0.060000
v 0.018567 0.186162 -0.040000
v 0.035210 0.197267 -0.060000
v 0.039097 0.153419 -0.040000
v 0.056347 0.163556 -0.060000
v 0.057615 0.119719 -0.040000
v 0.075422 0.128844 -0.060000
v 0.074140 0.085031 -0.040000
v 0.092444 0.093111 -0.060000
v 0.088688 0.049320 -0.040000
v 0.107425 0.056337 -0.060000
v 0.101271 0.012554 -0.040000
v 0.120375 0.018500 -0.060000
v 0.111901 -0.025302 -0.040000
v 0.131304 -0.020420 -0.060000
v 0.120586 -0.064280 -0.040000
v 0.140222 -0.060444 -0.060000
v 0.127334 -0.104411 -0.040000
v 0.147141 -0.101594 -0.060000
v 0.132148 -0.145725 -0.040000
v 0.152069 -0.143889 -0.060000
v 0.135034 -0.188248 -0.040000
v 0.155019 -0.187351 -0.060000
v 0.135995 -0.232000 -0.040000
v 0.156000 -0.232000 -0.060000
v 0.135034 -0.275752 -0.040000
v 0.155019 -0.276649 -0.060000
v 0.132148 -0.318275 -0.040000
v 0.152069 -0.320111 -0.060000
v 0.127334 -0.359589 -0.040000
v 0.147141 -0.362406 -0.060000
v 0.120586 -0.399720 -0.040000
v 0.140222 -0.403556 -0.060000
v 0.111901 -0.438698 -0.040000
v 0.131304 -0.443580 -0.060000
v 0.101271 -0.476554 -0.040000
v 0.120375 -0.482500 -0.060000
v 0.088688 -0.513320 -0.040000
v 0.107425 -0.520337 -0.060000
v 0.074140 -0.549031 -0.040000
v 0.092444 -0.557111 -0.060000
v 0.057615 -0.583719 -0.040000
v 0.075422 -0.592844 -0.060000
v 0.039097 -0.617419 -0.040000
v 0.056347 -0.627556 -0.060000
v 0.018567 -0.650162 -0.040000
v 0.035210 -0.661267 -0.060000
v -0.026699 -0.714000 -0.040000
v 0.012000 -0.694000 -0.060000
vn 0.0000 0.0000 -1.0000
vn 0.0000 0.0000 1.0000
vn 0.2684 -0.6206 0.7367
vn 0.5315 -0.4660 0.7073
vn 0.5617 -0.4292 0.7073
vn 0.5885 -0.3917 0.7073
vn 0.6121 -0.3536 0.7073
vn 0.6331 -0.3146 0.7073
vn 0.6514 -0.2746 0.7073
vn 0.6673 -0.2334 0.7073
vn 0.6807 -0.1907 0.7073
vn 0.6916 -0.1463 0.7073
vn 0.6998 -0.0998 0.7073
vn 0.7050 -0.0509 0.7073
vn 0.7068 0.0000 0.7073
vn 0.7050 0.0509 0.7073
vn 0.6998 0.0998 0.7073
vn 0.6916 0.1463 0.7073
vn 0.6807 0.1907 0.7073
vn 0.6673 0.2334 0.7073
vn 0.6514 0.2746 0.7073
vn 0.6331 0.3146 0.7073
vn 0.6121 0.3536 0.7073
vn 0.5885 0.3917 0.7073
vn 0.5617 0.4292 0.7073
vn 0.5315 0.4660 0.7073
vn 0.2684 0.6206 0.7367
vn -0.3706 0.1915 0.9088
vn -0.5881 -0.3924 0.7072
vn -0.6095 -0.3581 0.7072
vn -0.6291 -0.3224 0.7072
vn -0.6467 -0.2855 0.7072
vn -0.6620 -0.2479 0.7072
vn -0.6750 -0.2101 0.7072
vn -0.6856 -0.1725 0.7072
vn -0.6939 -0.1355 0.7072
vn -0.6999 -0.0996 0.7072
vn -0.7040 -0.0649 0.7072
vn -0.7063 -0.0317 0.7072
vn -0.7070 0.0000 0.7072
vn -0.7063 0.0317 0.7072
vn -0.7040 0.0649 0.7072
vn -0.6999 0.0996 0.7072
vn -0.6939 0.1355 0.7072
vn -0.6856 0.1725 0.7072
vn -0.6750 0.2101 0.7072
vn -0.6620 0.2479 0.7072
vn -0.6467 0.2855 0.7072
vn -0.6291 0.3224 0.7072
vn -0.6095 0.3581 0.7072
vn -0.5881 0.3924 0.7072
vn -0.3706 -0.1915 0.9088
vn 0.3970 -0.9178 0.0000
vn 0.7519 -0.6593 0.0000
vn 0.7945 -0.6072 0.0000
vn 0.8324 -0.5541 0.0000
vn 0.8659 -0.5001 0.0000
vn 0.8955 -0.4450 0.0000
vn 0.9214 -0.3885 0.0000
vn 0.9439 -0.3302 0.0000
vn 0.9629 -0.2698 0.0000
vn 0.9783 -0.2069 0.0000
vn 0.9900 -0.1411 0.0000
vn 0.9974 -0.0721 0.0000
vn 1.0000 0.0000 0.0000
vn 0.9974 0.0721 0.0000
vn 0.9900 0.1411 0.0000
vn 0.9783 0.2069 0.0000
vn 0.9629 0.2698 0.0000
vn 0.9439 0.3302 0.0000
vn 0.9214 0.3885 0.0000
vn 0.8955 0.4450 0.0000
vn 0.8659 0.5001 0.0000
vn 0.8324 0.5541 0.0000
vn 0.7945 0.6072 0.0000
vn 0.7519 0.6593 0.0000
vn 0.3970 0.9178 0.0000
vn -0.8884 0.4591 0.0000
vn -0.8318 -0.5550 0.0000
vn -0.8621 -0.5066 0.0000
vn -0.8900 -0.4560 0.0000
vn -0.9148 -0.4038 0.0000
vn -0.9365 -0.3507 0.0000
vn -0.9548 -0.2972 0.0000
vn -0.9698 -0.2440 0.0000
vn -0.9814 -0.1917 0.0000
vn -0.9900 -0.1408 0.0000
vn -0.9958 -0.0917 0.0000
vn -0.9990 -0.0448 0.0000
vn -1.0000 0.0000 0.0000
vn -0.9990 0.0448 0.0000
vn -0.9958 0.0917 0.0000
vn -0.9900 0.1408 0.0000
vn -0.9814 0.1917 0.0000
vn -0.9698 0.2440 0.0000
vn -0.9548 0.2972 0.0000
vn -0.9365 0.3507 0.0000
vn -0.9148 0.4038 0.0000
vn -0.8900 0.4560 0.0000
vn -0.8621 0.5066 0.0000
vn -0.8318 0.5550 0.0000
vn -0.8884 -0.4591 0.0000
vn 0.2684 -0.6206 -0.7367
vn 0.5315 -0.4660 -0.7073
vn 0.5617 -0.4292 -0.7073
vn 0.5885 -0.3917 -0.7073
vn 0.6121 -0.3536 -0.7073
vn 0.6331 -0.3146 -0.7073
vn 0.6514 -0.2746 -0.7073
vn 0.6673 -0.2334 -0.7073
vn 0.6807 -0.1907 -0.7073
vn 0.6916 -0.1463 -0.7073
vn 0.6998 -0.0998 -0.7073
vn 0.7050 -0.0509 -0.7073
vn 0.7068 0.0000 -0.7073
vn 0.7050 0.0509 -0.7073
vn 0.6998 0.0998 -0.7073
vn 0.6916 0.1463 -0.7073
vn 0.6807 0.1907 -0.7073
vn 0.6673 0.2334 -0.7073
vn 0.6514 0.2746 -0.7073
vn 0.6331 0.3146 -0.7073
vn 0.6121 0.3536 -0.7073
vn 0.5885 0.3917 -0.7073
vn 0.5617 0.4292 -0.7073
vn 0.5315 0.4660 -0.7073
vn 0.2684 0.6206 -0.7367
vn -0.3706 0.1915 -0.9088
vn -0.5881 -0.3924 -0.7072
vn -0.6095 -0.3581 -0.7072
vn -0.6291 -0.3224 -0.7072
vn -0.6467 -0.2855 -0.7072
vn -0.6620 -0.2479 -0.7072
vn -0.6750 -0.2101 -0.7072
vn -0.6856 -0.1725 -0.7072
vn -0.6939 -0.1355 -0.7072
vn -0.6999 -0.0996 -0.7072
vn -0.7040 -0.0649 -0.7072
vn -0.7063 -0.0317 -0.7072
vn -0.7070 0.0000 -0.7072
vn -0.7063 0.0317 -0.7072
vn -0.7040 0.0649 -0.7072
vn -0.6999 0.0996 -0.7072
vn -0.6939 0.1355 -0.7072
vn -0.6856 0.1725 -0.7072
vn -0.6750 0.2101 -0.7072
vn -0.6620 0.2479 -0.7072
vn -0.6467 0.2855 -0.7072
vn -0.6291 0.3224 -0.7072
vn -0.6095 0.3581 -0.7072
vn -0.5881 0.3924 -0.7072
vn -0.3706 -0.1915 -0.9088
usemtl None
s off
f 49//1 1//1 50//1
f 49//1 2//1 1//1
f 49//1 3//1 2//1
f 48//1 3//1 49//1
f 48//1 4//1 3//1
f 47//1 4//1 48//1
f 47//1 5//1 4//1
f 46//1 5//1 47//1
f 46//1 6//1 5//1
f 45//1 6//1 46//1
f 45//1 7//1 6//1
f 44//1 7//1 45//1
f 43//1 7//1 44//1
f 43//1 8//1 7//1
f 42//1 8//1 43//1
f 42//1 9//1 8//1
f 41//1 9//1 42//1
f 41//1 10//1 9//1
f 40//1 10//1 41//1
f 40//1 11//1 10//1
f 39//1 11//1 40//1
f 39//1 12//1 11//1
f 38//1 12//1 39//1
f 38//1 13//1 12//1
f 37//1 13//1 38//1
f 37//1 14//1 13//1
f 37//1 15//1 14//1
f 36//1 15//1 37//1
f 36//1 16//1 15//1
f 35//1 16//1 36//1
f 35//1 17//1 16//1
f 34//1 17//1 35//1
f 34//1 18//1 17//1
f 33//1 18//1 34//1
f 33//1 19//1 18//1
f 32//1 19//1 33//1
f 32//1 20//1 19//1
f 31//1 20//1 32//1
f 30//1 20//1 31//1
f 30//1 21//1 20//1
f 29//1 21//1 30//1
f 29//1 22//1 21//1
f 28//1 22//1 29//1
f 28//1 23//1 22//1
f 27//1 23//1 28//1
f 27//1 24//1 23//1
f 26//1 24//1 27//1
f 26//1 25//1 24//1
f 51//2 99//2 100//2
f 52//2 99//2 51//2
f 53//2 99//2 52//2
f 53//2 98//2 99//2
f 54//2 98//2 53//2
f 54//2 97//2 98//2
f 55//2 97//2 54//2
f 55//2 96//2 97//2
f 56//2 96//2 55//2
f 56//2 95//2 96//2
f 57//2 95//2 56//2
f 57//2 94//2 95//2
f 57//2 93//2 94//2
f 58//2 93//2 57//2
f 58//2 92//2 93//2
f 59//2 92//2 58//2
f 59//2 91//2 92//2
f 60//2 91//2 59//2
f 60//2 90//2 91//2
f 61//2 90//2 60//2
f 61//2 89//2 90//2
f 62//2 89//2 61//2
f 62//2 88//2 89//2
f 63//2 88//2 62//2
f 63//2 87//2 88//2
f 64//2 87//2 63//2
f 65//2 87//2 64//2
f 65//2 86//2 87//2
f 66//2 86//2 65//2
f 66//2 85//2 86//2
f 67//2 85//2 66//2
f 67//2 84//2 85//2
f 68//2 84//2 67//2
f 68//2 83//2 84//2
f 69//2 83//2 68//2
f 69//2 82//2 83//2
f 70//2 82//2 69//2
f 70//2 81//2 82//2
f 70//2 80//2 81//2
f 71//2 80//2 70//2
f 71//2 79//2 80//2
f 72//2 79//2 71//2
f 72//2 78//2 79//2
f 73//2 78//2 72//2
f 73//2 77//2 78//2
f 74//2 77//2 73//2
f 74//2 76//2 77//2
f 75//2 76//2 74//2
s 1
f 102//3 104//4 103//4 101//3
f 104//4 106//5 105//5 103//4
f 106//5 108//6 107//6 105//5
f 108//6 110//7 109//7 107//6
f 110//7 112//8 111//8 109//7
f 112//8 114//9 113//9 111//8
f 114//9 116//10 115//10 113//9
f 116//10 118//11 117//11 115//10
f 118//11 120//12 119//12 117//11
f 120//12 122//13 121//13 119//12
f 122//13 124//14 123//14 121//13
f 124//14 126//15 125//15 123//14
f 126//15 128//16 127//16 125//15
f 128//16 130//17 129//17 127//16
f 130//17 132//18 131//18 129//17
f 132//18 134//19 133//19 131//18
f 134//19 136//20 135//20 133//19
f 136//20 138//21 137//21 135//20
f 138//21 140//22 139//22 137//21
f 140//22 142//23 141//23 139//22
f 142//23 144//24 143//24 141//23
f 144//24 146//25 145//25 143//24
f 146//25 148//26 147//26 145//25
f 148//26 150//27 149//27 147//26
f 150//27 152//28 151//28 149//27
f 152//28 154//29 153//29 151//28
f 154//29 156//30 155//30 153//29
f 156//30 158//31 157//31 155//30
f 158//31 160//32 159//32 157//31
f 160//32 162//33 161//33 159//32
f 162//33 164//34 163//34 161//33
f 164//34 166//35 165//35 163//34
f 166//35 168//36 167//36 165//35
f 168//36 170//37 169//37 167//36
f 170//37 172//38 171//38 169//37
f 172//38 174//39 173//39 171//38
f 174//39 176//40 175//40 173//39
f 176//40 178//41 177//41 175//40
f 178//41 180//42 179//42 177//41
f 180//42 182//43 181//43 179//42
f 182//43 184//44 183//44 181//43
f 184//44 186//45 185//45 183//44
f 186//45 188//46 187//46 185//45
f 188//46 190//47 189//47 187//46
f 190//47 192//48 191//48 189//47
f 192//48 194//49 193//49 191//48
f 194//49 196//50 195//50 193//49
f 196//50 198//51 197//51 195//50
f 198//51 200//52 199//52 197//51
f 200//52 102//3 101//3 199//52
f 202//53 204//54 203//54 201//53
f 204//54 206//55 205//55 203//54
f 206//55 208//56 207//56 205//55
f 208//56 210//57 209//57 207//56
f 210//57 212//58 211//58 209//57
f 212//58 214//59 213//59 211//58
f 214//59 216//60 215//60 213//59
f 216//60 218//61 217//61 215//60
f 218//61 220//62 219//62 217//61
f 220//62 222//63 221//63 219//62
f 222//63 224//64 223//64 221//63
f 224//64 226//65 225//65 223//64
f 226//65 228//66 227//66 225//65
f 228//66 230//67 229//67 227//66
f 230//67 232//68 231//68 229//67
f 232//68 234//69 233//69 231//68
f 234//69 236//70 235//70 233//69
f 236//70 238//71 237//71 235//70
f 238//71 240//72 239//72 237//71
f 240//72 242//73 241//73 239//72
f 242//73 244//74 243//74 241//73
f 244//74 246//75 245//75 243//74
f 246//75 248//76 247//76 245//75
f 248//76 250//77 249//77 247//76
f 250//77 252//78 251//78 249//77
f 252//78 254//79 253//79 251//78
f 254//79 256//80 255//80 253//79
f 256//80 258//81 257//81 255//80
f 258//81 260//82 259//82 257//81
f 260//82 262//83 261//83 259//82
f 262//83 264//84 263//84 261//83
f 264//84 266//85 265//85 263//84
f 266//85 268//86 267//86 265//85
f 268//86 270//87 269//87 267//86
f 270//87 272//88 271//88 269//87
f 272//88 274//89 273//89 271//88
f 274//89 276//90 275//90 273//89
f 276//90 278//91 277//91 275//90
f 278//91 280//92 279//92 277//91
f 280//92 282//93 281//93 279//92
f 282//93 284//94 283//94 281//93
f 284//94 286//95 285//95 283//94
f 286//95 288//96 287//96 285//95
f 288//96 290//97 289//97 287//96
f 290//97 292//98 291//98 289//97
f 292//98 294//99 293//99 291//98
f 294//99 296//100 295//100 293//99
f 296//100 298//101 297//101 295//100
f 298//101 300//102 299//102 297//101
f 300//102 202//53 201//53 299//102
f 302//103 304//104 303//104 301//103
f 304//104 306//105 305//105 303//104
f 306//105 308//106 307//106 305//105
f 308//106 310//107 309//107 307//106
f 310//107 312//108 311//108 309//107
f 312//108 314//109 313//109 311//108
f 314//109 316//110 315//110 313//109
f 316//110 318//111 317//111 315//110
f 318//111 320//112 319//112 317//111
f 320//112 322//113 321//113 319//112
f 322//113 324//114 323//114 321//113
f 324//114 326//115 325//115 323//114
f 326//115 328//116 327//116 325//115
f 328//116 330//117 329//117 327//116
f 330//117 332//118 331//118 329//117
f 332//118 334//119 333//119 331//118
f 334//119 336//120 335//120 333//119
f 336//120 338//121 337//121 335//120
f 338//121 340//122 339//122 337//121
f 340//122 342//123 341//123 339//122
f 342//123 344//124 343//124 341//123
f 344//124 346//125 345//125 343//124
f 346//125 348//126 347//126 345//125
f 348//126 350//127 349//127 347//126
f 350//127 352//128 351//128 349//127
f 352//128 354//129 353//129 351//128
f 354//129 356//130 355//130 353//129
f 356//130 358//131 357//131 355//130
f 358//131 360//132 359//132 357//131
f 360//132 362//133 361//133 359//132
f 362//133 364//134 363//134 361//133
f 364//134 366//135 365//135 363//134
f 366//135 368//136 367//136 365//135
f 368//136 370//137 369//137 367//136
f 370//137 372//138 371//138 369//137
f 372//138 374//139 373//139 371//138
f 374//139 376//140 375//140 373//139
f 376//140 378//141 377//141 375//140
f 378//141 380//142 379//142 377//141
f 380//142 382//143 381//143 379//142
f 382//143 384//144 383//144 381//143
f 384//144 386//145 385//145 383//144
f 386//145 388//146 387//146 385//145
f 388//146 390//147 389//147 387//146
f 390//147 392//148 391//148 389//147
f 392//148 394//149 393//149 391//148
f 394//149 396//150 395//150 393//149
f 396//150 398//151 397//151 395//150
f 398//151 400//152 399//152 397//151
f 400//152 302//103 301//103 399//152
