# Blender v2.79 (sub 0) OBJ File: 'unicode_to_obj.blend'
# www.blender.org
mtllib 002E.mtl
o Text_CUText.959
v 0.168450 -0.042887 -0.060000
v 0.166847 -0.035097 -0.060000
v 0.164266 -0.027703 -0.060000
v 0.160778 -0.020778 -0.060000
v 0.156457 -0.014394 -0.060000
v 0.151375 -0.008625 -0.060000
v 0.145606 -0.003543 -0.060000
v 0.139222 0.000778 -0.060000
v 0.132297 0.004266 -0.060000
v 0.124903 0.006847 -0.060000
v 0.117113 0.008450 -0.060000
v 0.109000 0.009000 -0.060000
v 0.100887 0.008450 -0.060000
v 0.093097 0.006847 -0.060000
v 0.085703 0.004266 -0.060000
v 0.078778 0.000778 -0.060000
v 0.072394 -0.003543 -0.060000
v 0.066625 -0.008625 -0.060000
v 0.061543 -0.014394 -0.060000
v 0.057222 -0.020778 -0.060000
v 0.053734 -0.027703 -0.060000
v 0.051153 -0.035097 -0.060000
v 0.049550 -0.042887 -0.060000
v 0.049000 -0.051000 -0.060000
v 0.049550 -0.059113 -0.060000
v 0.051153 -0.066903 -0.060000
v 0.053734 -0.074297 -0.060000
v 0.057222 -0.081222 -0.060000
v 0.061543 -0.087606 -0.060000
v 0.066625 -0.093375 -0.060000
v 0.072394 -0.098457 -0.060000
v 0.078778 -0.102778 -0.060000
v 0.085703 -0.106266 -0.060000
v 0.093097 -0.108847 -0.060000
v 0.100887 -0.110450 -0.060000
v 0.109000 -0.111000 -0.060000
v 0.117113 -0.110450 -0.060000
v 0.124903 -0.108847 -0.060000
v 0.132297 -0.106266 -0.060000
v 0.139222 -0.102778 -0.060000
v 0.145606 -0.098457 -0.060000
v 0.151375 -0.093375 -0.060000
v 0.156457 -0.087606 -0.060000
v 0.160778 -0.081222 -0.060000
v 0.164266 -0.074297 -0.060000
v 0.166847 -0.066903 -0.060000
v 0.168450 -0.059113 -0.060000
v 0.169000 -0.051000 -0.060000
v 0.168450 -0.042887 0.060000
v 0.166847 -0.035097 0.060000
v 0.164266 -0.027703 0.060000
v 0.160778 -0.020778 0.060000
v 0.156457 -0.014394 0.060000
v 0.151375 -0.008625 0.060000
v 0.145606 -0.003543 0.060000
v 0.139222 0.000778 0.060000
v 0.132297 0.004266 0.060000
v 0.124903 0.006847 0.060000
v 0.117113 0.008450 0.060000
v 0.109000 0.009000 0.060000
v 0.100887 0.008450 0.060000
v 0.093097 0.006847 0.060000
v 0.085703 0.004266 0.060000
v 0.078778 0.000778 0.060000
v 0.072394 -0.003543 0.060000
v 0.066625 -0.008625 0.060000
v 0.061543 -0.014394 0.060000
v 0.057222 -0.020778 0.060000
v 0.053734 -0.027703 0.060000
v 0.051153 -0.035097 0.060000
v 0.049550 -0.042887 0.060000
v 0.049000 -0.051000 0.060000
v 0.049550 -0.059113 0.060000
v 0.051153 -0.066903 0.060000
v 0.053734 -0.074297 0.060000
v 0.057222 -0.081222 0.060000
v 0.061543 -0.087606 0.060000
v 0.066625 -0.093375 0.060000
v 0.072394 -0.098457 0.060000
v 0.078778 -0.102778 0.060000
v 0.085703 -0.106266 0.060000
v 0.093097 -0.108847 0.060000
v 0.100887 -0.110450 0.060000
v 0.109000 -0.111000 0.060000
v 0.117113 -0.110450 0.060000
v 0.124903 -0.108847 0.060000
v 0.132297 -0.106266 0.060000
v 0.139222 -0.102778 0.060000
v 0.145606 -0.098457 0.060000
v 0.151375 -0.093375 0.060000
v 0.156457 -0.087606 0.060000
v 0.160778 -0.081222 0.060000
v 0.164266 -0.074297 0.060000
v 0.166847 -0.066903 0.060000
v 0.168450 -0.059113 0.060000
v 0.169000 -0.051000 0.060000
v 0.168450 -0.042887 0.060000
v 0.188312 -0.040183 0.040000
v 0.166847 -0.035097 0.060000
v 0.186169 -0.029762 0.040000
v 0.164266 -0.027703 0.060000
v 0.182717 -0.019875 0.040000
v 0.160778 -0.020778 0.060000
v 0.178061 -0.010632 0.040000
v 0.156457 -0.014394 0.060000
v 0.172306 -0.002129 0.040000
v 0.151375 -0.008625 0.060000
v 0.165545 0.005545 0.040000
v 0.145606 -0.003543 0.060000
v 0.157871 0.012306 0.040000
v 0.139222 0.000778 0.060000
v 0.149368 0.018061 0.040000
v 0.132297 0.004266 0.060000
v 0.140125 0.022717 0.040000
v 0.124903 0.006847 0.060000
v 0.130238 0.026169 0.040000
v 0.117113 0.008450 0.060000
v 0.119817 0.028312 0.040000
v 0.109000 0.009000 0.060000
v 0.109000 0.029046 0.040000
v 0.100887 0.008450 0.060000
v 0.098183 0.028312 0.040000
v 0.093097 0.006847 0.060000
v 0.087762 0.026169 0.040000
v 0.085703 0.004266 0.060000
v 0.077875 0.022717 0.040000
v 0.078778 0.000778 0.060000
v 0.068632 0.018061 0.040000
v 0.072394 -0.003543 0.060000
v 0.060129 0.012306 0.040000
v 0.066625 -0.008625 0.060000
v 0.052455 0.005545 0.040000
v 0.061543 -0.014394 0.060000
v 0.045694 -0.002129 0.040000
v 0.057222 -0.020778 0.060000
v 0.039939 -0.010632 0.040000
v 0.053734 -0.027703 0.060000
v 0.035283 -0.019875 0.040000
v 0.051153 -0.035097 0.060000
v 0.031831 -0.029762 0.040000
v 0.049550 -0.042887 0.060000
v 0.029688 -0.040183 0.040000
v 0.049000 -0.051000 0.060000
v 0.028954 -0.051000 0.040000
v 0.049550 -0.059113 0.060000
v 0.029688 -0.061817 0.040000
v 0.051153 -0.066903 0.060000
v 0.031831 -0.072238 0.040000
v 0.053734 -0.074297 0.060000
v 0.035283 -0.082125 0.040000
v 0.057222 -0.081222 0.060000
v 0.039939 -0.091368 0.040000
v 0.061543 -0.087606 0.060000
v 0.045694 -0.099871 0.040000
v 0.066625 -0.093375 0.060000
v 0.052455 -0.107545 0.040000
v 0.072394 -0.098457 0.060000
v 0.060129 -0.114306 0.040000
v 0.078778 -0.102778 0.060000
v 0.068632 -0.120061 0.040000
v 0.085703 -0.106266 0.060000
v 0.077875 -0.124717 0.040000
v 0.093097 -0.108847 0.060000
v 0.087762 -0.128169 0.040000
v 0.100887 -0.110450 0.060000
v 0.098183 -0.130312 0.040000
v 0.109000 -0.111000 0.060000
v 0.109000 -0.131046 0.040000
v 0.117113 -0.110450 0.060000
v 0.119817 -0.130312 0.040000
v 0.124903 -0.108847 0.060000
v 0.130238 -0.128169 0.040000
v 0.132297 -0.106266 0.060000
v 0.140125 -0.124717 0.040000
v 0.139222 -0.102778 0.060000
v 0.149368 -0.120061 0.040000
v 0.145606 -0.098457 0.060000
v 0.157871 -0.114306 0.040000
v 0.151375 -0.093375 0.060000
v 0.165545 -0.107545 0.040000
v 0.156457 -0.087606 0.060000
v 0.172306 -0.099871 0.040000
v 0.160778 -0.081222 0.060000
v 0.178061 -0.091368 0.040000
v 0.164266 -0.074297 0.060000
v 0.182717 -0.082125 0.040000
v 0.166847 -0.066903 0.060000
v 0.186169 -0.072238 0.040000
v 0.168450 -0.059113 0.060000
v 0.188312 -0.061817 0.040000
v 0.169000 -0.051000 0.060000
v 0.189046 -0.051000 0.040000
v 0.188312 -0.040183 0.040000
v 0.188312 -0.040183 -0.040000
v 0.186169 -0.029762 0.040000
v 0.186169 -0.029762 -0.040000
v 0.182717 -0.019875 0.040000
v 0.182717 -0.019875 -0.040000
v 0.178061 -0.010632 0.040000
v 0.178061 -0.010632 -0.040000
v 0.172306 -0.002129 0.040000
v 0.172306 -0.002129 -0.040000
v 0.165545 0.005545 0.040000
v 0.165545 0.005545 -0.040000
v 0.157871 0.012306 0.040000
v 0.157871 0.012306 -0.040000
v 0.149368 0.018061 0.040000
v 0.149368 0.018061 -0.040000
v 0.140125 0.022717 0.040000
v 0.140125 0.022717 -0.040000
v 0.130238 0.026169 0.040000
v 0.130238 0.026169 -0.040000
v 0.119817 0.028312 0.040000
v 0.119817 0.028312 -0.040000
v 0.109000 0.029046 0.040000
v 0.109000 0.029046 -0.040000
v 0.098183 0.028312 0.040000
v 0.098183 0.028312 -0.040000
v 0.087762 0.026169 0.040000
v 0.087762 0.026169 -0.040000
v 0.077875 0.022717 0.040000
v 0.077875 0.022717 -0.040000
v 0.068632 0.018061 0.040000
v 0.068632 0.018061 -0.040000
v 0.060129 0.012306 0.040000
v 0.060129 0.012306 -0.040000
v 0.052455 0.005545 0.040000
v 0.052455 0.005545 -0.040000
v 0.045694 -0.002129 0.040000
v 0.045694 -0.002129 -0.040000
v 0.039939 -0.010632 0.040000
v 0.039939 -0.010632 -0.040000
v 0.035283 -0.019875 0.040000
v 0.035283 -0.019875 -0.040000
v 0.031831 -0.029762 0.040000
v 0.031831 -0.029762 -0.040000
v 0.029688 -0.040183 0.040000
v 0.029688 -0.040183 -0.040000
v 0.028954 -0.051000 0.040000
v 0.028954 -0.051000 -0.040000
v 0.029688 -0.061817 0.040000
v 0.029688 -0.061817 -0.040000
v 0.031831 -0.072238 0.040000
v 0.031831 -0.072238 -0.040000
v 0.035283 -0.082125 0.040000
v 0.035283 -0.082125 -0.040000
v 0.039939 -0.091368 0.040000
v 0.039939 -0.091368 -0.040000
v 0.045694 -0.099871 0.040000
v 0.045694 -0.099871 -0.040000
v 0.052455 -0.107545 0.040000
v 0.052455 -0.107545 -0.040000
v 0.060129 -0.114306 0.040000
v 0.060129 -0.114306 -0.040000
v 0.068632 -0.120061 0.040000
v 0.068632 -0.120061 -0.040000
v 0.077875 -0.124717 0.040000
v 0.077875 -0.124717 -0.040000
v 0.087762 -0.128169 0.040000
v 0.087762 -0.128169 -0.040000
v 0.098183 -0.130312 0.040000
v 0.098183 -0.130312 -0.040000
v 0.109000 -0.131046 0.040000
v 0.109000 -0.131046 -0.040000
v 0.119817 -0.130312 0.040000
v 0.119817 -0.130312 -0.040000
v 0.130238 -0.128169 0.040000
v 0.130238 -0.128169 -0.040000
v 0.140125 -0.124717 0.040000
v 0.140125 -0.124717 -0.040000
v 0.149368 -0.120061 0.040000
v 0.149368 -0.120061 -0.040000
v 0.157871 -0.114306 0.040000
v 0.157871 -0.114306 -0.040000
v 0.165545 -0.107545 0.040000
v 0.165545 -0.107545 -0.040000
v 0.172306 -0.099871 0.040000
v 0.172306 -0.099871 -0.040000
v 0.178061 -0.091368 0.040000
v 0.178061 -0.091368 -0.040000
v 0.182717 -0.082125 0.040000
v 0.182717 -0.082125 -0.040000
v 0.186169 -0.072238 0.040000
v 0.186169 -0.072238 -0.040000
v 0.188312 -0.061817 0.040000
v 0.188312 -0.061817 -0.040000
v 0.189046 -0.051000 0.040000
v 0.189046 -0.051000 -0.040000
v 0.188312 -0.040183 -0.040000
v 0.168450 -0.042887 -0.060000
v 0.186169 -0.029762 -0.040000
v 0.166847 -0.035097 -0.060000
v 0.182717 -0.019875 -0.040000
v 0.164266 -0.027703 -0.060000
v 0.178061 -0.010632 -0.040000
v 0.160778 -0.020778 -0.060000
v 0.172306 -0.002129 -0.040000
v 0.156457 -0.014394 -0.060000
v 0.165545 0.005545 -0.040000
v 0.151375 -0.008625 -0.060000
v 0.157871 0.012306 -0.040000
v 0.145606 -0.003543 -0.060000
v 0.149368 0.018061 -0.040000
v 0.139222 0.000778 -0.060000
v 0.140125 0.022717 -0.040000
v 0.132297 0.004266 -0.060000
v 0.130238 0.026169 -0.040000
v 0.124903 0.006847 -0.060000
v 0.119817 0.028312 -0.040000
v 0.117113 0.008450 -0.060000
v 0.109000 0.029046 -0.040000
v 0.109000 0.009000 -0.060000
v 0.098183 0.028312 -0.040000
v 0.100887 0.008450 -0.060000
v 0.087762 0.026169 -0.040000
v 0.093097 0.006847 -0.060000
v 0.077875 0.022717 -0.040000
v 0.085703 0.004266 -0.060000
v 0.068632 0.018061 -0.040000
v 0.078778 0.000778 -0.060000
v 0.060129 0.012306 -0.040000
v 0.072394 -0.003543 -0.060000
v 0.052455 0.005545 -0.040000
v 0.066625 -0.008625 -0.060000
v 0.045694 -0.002129 -0.040000
v 0.061543 -0.014394 -0.060000
v 0.039939 -0.010632 -0.040000
v 0.057222 -0.020778 -0.060000
v 0.035283 -0.019875 -0.040000
v 0.053734 -0.027703 -0.060000
v 0.031831 -0.029762 -0.040000
v 0.051153 -0.035097 -0.060000
v 0.029688 -0.040183 -0.040000
v 0.049550 -0.042887 -0.060000
v 0.028954 -0.051000 -0.040000
v 0.049000 -0.051000 -0.060000
v 0.029688 -0.061817 -0.040000
v 0.049550 -0.059113 -0.060000
v 0.031831 -0.072238 -0.040000
v 0.051153 -0.066903 -0.060000
v 0.035283 -0.082125 -0.040000
v 0.053734 -0.074297 -0.060000
v 0.039939 -0.091368 -0.040000
v 0.057222 -0.081222 -0.060000
v 0.045694 -0.099871 -0.040000
v 0.061543 -0.087606 -0.060000
v 0.052455 -0.107545 -0.040000
v 0.066625 -0.093375 -0.060000
v 0.060129 -0.114306 -0.040000
v 0.072394 -0.098457 -0.060000
v 0.068632 -0.120061 -0.040000
v 0.078778 -0.102778 -0.060000
v 0.077875 -0.124717 -0.040000
v 0.085703 -0.106266 -0.060000
v 0.087762 -0.128169 -0.040000
v 0.093097 -0.108847 -0.060000
v 0.098183 -0.130312 -0.040000
v 0.100887 -0.110450 -0.060000
v 0.109000 -0.131046 -0.040000
v 0.109000 -0.111000 -0.060000
v 0.119817 -0.130312 -0.040000
v 0.117113 -0.110450 -0.060000
v 0.130238 -0.128169 -0.040000
v 0.124903 -0.108847 -0.060000
v 0.140125 -0.124717 -0.040000
v 0.132297 -0.106266 -0.060000
v 0.149368 -0.120061 -0.040000
v 0.139222 -0.102778 -0.060000
v 0.157871 -0.114306 -0.040000
v 0.145606 -0.098457 -0.060000
v 0.165545 -0.107545 -0.040000
v 0.151375 -0.093375 -0.060000
v 0.172306 -0.099871 -0.040000
v 0.156457 -0.087606 -0.060000
v 0.178061 -0.091368 -0.040000
v 0.160778 -0.081222 -0.060000
v 0.182717 -0.082125 -0.040000
v 0.164266 -0.074297 -0.060000
v 0.186169 -0.072238 -0.040000
v 0.166847 -0.066903 -0.060000
v 0.188312 -0.061817 -0.040000
v 0.168450 -0.059113 -0.060000
v 0.189046 -0.051000 -0.040000
v 0.169000 -0.051000 -0.060000
vn 0.0000 0.0000 -1.0000
vn 0.0000 0.0000 1.0000
vn 0.6998 0.0952 0.7079
vn 0.6808 0.1880 0.7079
vn 0.6502 0.2759 0.7078
vn 0.6091 0.3576 0.7078
vn 0.5586 0.4323 0.7078
vn 0.4995 0.4995 0.7078
vn 0.4323 0.5586 0.7078
vn 0.3576 0.6091 0.7078
vn 0.2759 0.6502 0.7078
vn 0.1880 0.6808 0.7079
vn 0.0952 0.6998 0.7079
vn 0.0000 0.7063 0.7079
vn -0.0952 0.6998 0.7079
vn -0.1880 0.6808 0.7079
vn -0.2759 0.6502 0.7078
vn -0.3576 0.6091 0.7078
vn -0.4323 0.5586 0.7078
vn -0.4995 0.4995 0.7078
vn -0.5586 0.4323 0.7078
vn -0.6091 0.3576 0.7078
vn -0.6502 0.2759 0.7078
vn -0.6808 0.1880 0.7079
vn -0.6998 0.0952 0.7079
vn -0.7063 0.0000 0.7079
vn -0.6998 -0.0952 0.7079
vn -0.6808 -0.1880 0.7079
vn -0.6502 -0.2759 0.7078
vn -0.6091 -0.3576 0.7078
vn -0.5586 -0.4323 0.7078
vn -0.4995 -0.4995 0.7078
vn -0.4323 -0.5586 0.7078
vn -0.3576 -0.6091 0.7078
vn -0.2759 -0.6502 0.7078
vn -0.1880 -0.6808 0.7079
vn -0.0952 -0.6998 0.7079
vn 0.0000 -0.7063 0.7079
vn 0.0952 -0.6998 0.7079
vn 0.1880 -0.6808 0.7079
vn 0.2759 -0.6502 0.7078
vn 0.3576 -0.6091 0.7078
vn 0.4323 -0.5586 0.7078
vn 0.4995 -0.4995 0.7078
vn 0.5586 -0.4323 0.7078
vn 0.6091 -0.3576 0.7078
vn 0.6502 -0.2759 0.7078
vn 0.6808 -0.1880 0.7079
vn 0.6998 -0.0952 0.7079
vn 0.7063 0.0000 0.7079
vn 0.9908 0.1349 0.0000
vn 0.9639 0.2661 0.0000
vn 0.9206 0.3905 0.0000
vn 0.8624 0.5062 0.0000
vn 0.7908 0.6120 0.0000
vn 0.7071 0.7071 0.0000
vn 0.6120 0.7908 0.0000
vn 0.5062 0.8624 0.0000
vn 0.3905 0.9206 0.0000
vn 0.2661 0.9639 0.0000
vn 0.1349 0.9908 0.0000
vn 0.0000 1.0000 0.0000
vn -0.1349 0.9908 0.0000
vn -0.2661 0.9639 0.0000
vn -0.3905 0.9206 0.0000
vn -0.5062 0.8624 0.0000
vn -0.6120 0.7908 0.0000
vn -0.7071 0.7071 0.0000
vn -0.7908 0.6120 0.0000
vn -0.8624 0.5062 0.0000
vn -0.9206 0.3905 0.0000
vn -0.9639 0.2661 0.0000
vn -0.9908 0.1349 0.0000
vn -1.0000 0.0000 0.0000
vn -0.9908 -0.1349 0.0000
vn -0.9639 -0.2661 0.0000
vn -0.9206 -0.3905 0.0000
vn -0.8624 -0.5062 0.0000
vn -0.7908 -0.6120 0.0000
vn -0.7071 -0.7071 0.0000
vn -0.6120 -0.7908 0.0000
vn -0.5062 -0.8624 0.0000
vn -0.3905 -0.9206 0.0000
vn -0.2661 -0.9639 0.0000
vn -0.1349 -0.9908 0.0000
vn 0.0000 -1.0000 0.0000
vn 0.1349 -0.9908 0.0000
vn 0.2661 -0.9639 0.0000
vn 0.3905 -0.9206 0.0000
vn 0.5062 -0.8624 0.0000
vn 0.6120 -0.7908 0.0000
vn 0.7071 -0.7071 0.0000
vn 0.7908 -0.6120 0.0000
vn 0.8624 -0.5062 0.0000
vn 0.9206 -0.3905 0.0000
vn 0.9639 -0.2661 0.0000
vn 0.9908 -0.1349 0.0000
vn 1.0000 0.0000 0.0000
vn 0.6998 0.0952 -0.7079
vn 0.6808 0.1880 -0.7079
vn 0.6502 0.2759 -0.7078
vn 0.6091 0.3576 -0.7078
vn 0.5586 0.4323 -0.7078
vn 0.4995 0.4995 -0.7078
vn 0.4323 0.5586 -0.7078
vn 0.3576 0.6091 -0.7078
vn 0.2759 0.6502 -0.7078
vn 0.1880 0.6808 -0.7079
vn 0.0952 0.6998 -0.7079
vn 0.0000 0.7063 -0.7079
vn -0.0952 0.6998 -0.7079
vn -0.1880 0.6808 -0.7079
vn -0.2759 0.6502 -0.7078
vn -0.3576 0.6091 -0.7078
vn -0.4323 0.5586 -0.7078
vn -0.4995 0.4995 -0.7078
vn -0.5586 0.4323 -0.7078
vn -0.6091 0.3576 -0.7078
vn -0.6502 0.2759 -0.7078
vn -0.6808 0.1880 -0.7079
vn -0.6998 0.0952 -0.7079
vn -0.7063 0.0000 -0.7079
vn -0.6998 -0.0952 -0.7079
vn -0.6808 -0.1880 -0.7079
vn -0.6502 -0.2759 -0.7078
vn -0.6091 -0.3576 -0.7078
vn -0.5586 -0.4323 -0.7078
vn -0.4995 -0.4995 -0.7078
vn -0.4323 -0.5586 -0.7078
vn -0.3576 -0.6091 -0.7078
vn -0.2759 -0.6502 -0.7078
vn -0.1880 -0.6808 -0.7079
vn -0.0952 -0.6998 -0.7079
vn 0.0000 -0.7063 -0.7079
vn 0.0952 -0.6998 -0.7079
vn 0.1880 -0.6808 -0.7079
vn 0.2759 -0.6502 -0.7078
vn 0.3576 -0.6091 -0.7078
vn 0.4323 -0.5586 -0.7078
vn 0.4995 -0.4995 -0.7078
vn 0.5586 -0.4323 -0.7078
vn 0.6091 -0.3576 -0.7078
vn 0.6502 -0.2759 -0.7078
vn 0.6808 -0.1880 -0.7079
vn 0.6998 -0.0952 -0.7079
vn 0.7063 0.0000 -0.7079
usemtl None
s off
f 35//1 37//1 36//1
f 34//1 37//1 35//1
f 34//1 38//1 37//1
f 33//1 38//1 34//1
f 33//1 39//1 38//1
f 32//1 39//1 33//1
f 32//1 40//1 39//1
f 31//1 40//1 32//1
f 31//1 41//1 40//1
f 30//1 41//1 31//1
f 30//1 42//1 41//1
f 29//1 42//1 30//1
f 29//1 43//1 42//1
f 28//1 43//1 29//1
f 28//1 44//1 43//1
f 27//1 44//1 28//1
f 27//1 45//1 44//1
f 26//1 45//1 27//1
f 26//1 46//1 45//1
f 25//1 46//1 26//1
f 25//1 47//1 46//1
f 25//1 48//1 47//1
f 24//1 48//1 25//1
f 23//1 48//1 24//1
f 23//1 1//1 48//1
f 22//1 1//1 23//1
f 22//1 2//1 1//1
f 21//1 2//1 22//1
f 21//1 3//1 2//1
f 20//1 3//1 21//1
f 20//1 4//1 3//1
f 19//1 4//1 20//1
f 19//1 5//1 4//1
f 18//1 5//1 19//1
f 18//1 6//1 5//1
f 17//1 6//1 18//1
f 17//1 7//1 6//1
f 16//1 7//1 17//1
f 16//1 8//1 7//1
f 15//1 8//1 16//1
f 15//1 9//1 8//1
f 14//1 9//1 15//1
f 14//1 10//1 9//1
f 13//1 10//1 14//1
f 13//1 11//1 10//1
f 12//1 11//1 13//1
f 85//2 83//2 84//2
f 85//2 82//2 83//2
f 86//2 82//2 85//2
f 86//2 81//2 82//2
f 87//2 81//2 86//2
f 87//2 80//2 81//2
f 88//2 80//2 87//2
f 88//2 79//2 80//2
f 89//2 79//2 88//2
f 89//2 78//2 79//2
f 90//2 78//2 89//2
f 90//2 77//2 78//2
f 91//2 77//2 90//2
f 91//2 76//2 77//2
f 92//2 76//2 91//2
f 92//2 75//2 76//2
f 93//2 75//2 92//2
f 93//2 74//2 75//2
f 94//2 74//2 93//2
f 94//2 73//2 74//2
f 95//2 73//2 94//2
f 96//2 73//2 95//2
f 96//2 72//2 73//2
f 96//2 71//2 72//2
f 49//2 71//2 96//2
f 49//2 70//2 71//2
f 50//2 70//2 49//2
f 50//2 69//2 70//2
f 51//2 69//2 50//2
f 51//2 68//2 69//2
f 52//2 68//2 51//2
f 52//2 67//2 68//2
f 53//2 67//2 52//2
f 53//2 66//2 67//2
f 54//2 66//2 53//2
f 54//2 65//2 66//2
f 55//2 65//2 54//2
f 55//2 64//2 65//2
f 56//2 64//2 55//2
f 56//2 63//2 64//2
f 57//2 63//2 56//2
f 57//2 62//2 63//2
f 58//2 62//2 57//2
f 58//2 61//2 62//2
f 59//2 61//2 58//2
f 59//2 60//2 61//2
s 1
f 98//3 100//4 99//4 97//3
f 100//4 102//5 101//5 99//4
f 102//5 104//6 103//6 101//5
f 104//6 106//7 105//7 103//6
f 106//7 108//8 107//8 105//7
f 108//8 110//9 109//9 107//8
f 110//9 112//10 111//10 109//9
f 112//10 114//11 113//11 111//10
f 114//11 116//12 115//12 113//11
f 116//12 118//13 117//13 115//12
f 118//13 120//14 119//14 117//13
f 120//14 122//15 121//15 119//14
f 122//15 124//16 123//16 121//15
f 124//16 126//17 125//17 123//16
f 126//17 128//18 127//18 125//17
f 128//18 130//19 129//19 127//18
f 130//19 132//20 131//20 129//19
f 132//20 134//21 133//21 131//20
f 134//21 136//22 135//22 133//21
f 136//22 138//23 137//23 135//22
f 138//23 140//24 139//24 137//23
f 140//24 142//25 141//25 139//24
f 142//25 144//26 143//26 141//25
f 144//26 146//27 145//27 143//26
f 146//27 148//28 147//28 145//27
f 148//28 150//29 149//29 147//28
f 150//29 152//30 151//30 149//29
f 152//30 154//31 153//31 151//30
f 154//31 156//32 155//32 153//31
f 156//32 158//33 157//33 155//32
f 158//33 160//34 159//34 157//33
f 160//34 162//35 161//35 159//34
f 162//35 164//36 163//36 161//35
f 164//36 166//37 165//37 163//36
f 166//37 168//38 167//38 165//37
f 168//38 170//39 169//39 167//38
f 170//39 172//40 171//40 169//39
f 172//40 174//41 173//41 171//40
f 174//41 176//42 175//42 173//41
f 176//42 178//43 177//43 175//42
f 178//43 180//44 179//44 177//43
f 180//44 182//45 181//45 179//44
f 182//45 184//46 183//46 181//45
f 184//46 186//47 185//47 183//46
f 186//47 188//48 187//48 185//47
f 188//48 190//49 189//49 187//48
f 190//49 192//50 191//50 189//49
f 192//50 98//3 97//3 191//50
f 194//51 196//52 195//52 193//51
f 196//52 198//53 197//53 195//52
f 198//53 200//54 199//54 197//53
f 200//54 202//55 201//55 199//54
f 202//55 204//56 203//56 201//55
f 204//56 206//57 205//57 203//56
f 206//57 208//58 207//58 205//57
f 208//58 210//59 209//59 207//58
f 210//59 212//60 211//60 209//59
f 212//60 214//61 213//61 211//60
f 214//61 216//62 215//62 213//61
f 216//62 218//63 217//63 215//62
f 218//63 220//64 219//64 217//63
f 220//64 222//65 221//65 219//64
f 222//65 224//66 223//66 221//65
f 224//66 226//67 225//67 223//66
f 226//67 228//68 227//68 225//67
f 228//68 230//69 229//69 227//68
f 230//69 232//70 231//70 229//69
f 232//70 234//71 233//71 231//70
f 234//71 236//72 235//72 233//71
f 236//72 238//73 237//73 235//72
f 238//73 240//74 239//74 237//73
f 240//74 242//75 241//75 239//74
f 242//75 244//76 243//76 241//75
f 244//76 246//77 245//77 243//76
f 246//77 248//78 247//78 245//77
f 248//78 250//79 249//79 247//78
f 250//79 252//80 251//80 249//79
f 252//80 254//81 253//81 251//80
f 254//81 256//82 255//82 253//81
f 256//82 258//83 257//83 255//82
f 258//83 260//84 259//84 257//83
f 260//84 262//85 261//85 259//84
f 262//85 264//86 263//86 261//85
f 264//86 266//87 265//87 263//86
f 266//87 268//88 267//88 265//87
f 268//88 270//89 269//89 267//88
f 270//89 272//90 271//90 269//89
f 272//90 274//91 273//91 271//90
f 274//91 276//92 275//92 273//91
f 276//92 278//93 277//93 275//92
f 278//93 280//94 279//94 277//93
f 280//94 282//95 281//95 279//94
f 282//95 284//96 283//96 281//95
f 284//96 286//97 285//97 283//96
f 286//97 288//98 287//98 285//97
f 288//98 194//51 193//51 287//98
f 290//99 292//100 291//100 289//99
f 292//100 294//101 293//101 291//100
f 294//101 296//102 295//102 293//101
f 296//102 298//103 297//103 295//102
f 298//103 300//104 299//104 297//103
f 300//104 302//105 301//105 299//104
f 302//105 304//106 303//106 301//105
f 304//106 306//107 305//107 303//106
f 306//107 308//108 307//108 305//107
f 308//108 310//109 309//109 307//108
f 310//109 312//110 311//110 309//109
f 312//110 314//111 313//111 311//110
f 314//111 316//112 315//112 313//111
f 316//112 318//113 317//113 315//112
f 318//113 320//114 319//114 317//113
f 320//114 322//115 321//115 319//114
f 322//115 324//116 323//116 321//115
f 324//116 326//117 325//117 323//116
f 326//117 328//118 327//118 325//117
f 328//118 330//119 329//119 327//118
f 330//119 332//120 331//120 329//119
f 332//120 334//121 333//121 331//120
f 334//121 336//122 335//122 333//121
f 336//122 338//123 337//123 335//122
f 338//123 340//124 339//124 337//123
f 340//124 342//125 341//125 339//124
f 342//125 344//126 343//126 341//125
f 344//126 346//127 345//127 343//126
f 346//127 348//128 347//128 345//127
f 348//128 350//129 349//129 347//128
f 350//129 352//130 351//130 349//129
f 352//130 354//131 353//131 351//130
f 354//131 356//132 355//132 353//131
f 356//132 358//133 357//133 355//132
f 358//133 360//134 359//134 357//133
f 360//134 362//135 361//135 359//134
f 362//135 364//136 363//136 361//135
f 364//136 366//137 365//137 363//136
f 366//137 368//138 367//138 365//137
f 368//138 370//139 369//139 367//138
f 370//139 372//140 371//140 369//139
f 372//140 374//141 373//141 371//140
f 374//141 376//142 375//142 373//141
f 376//142 378//143 377//143 375//142
f 378//143 380//144 379//144 377//143
f 380//144 382//145 381//145 379//144
f 382//145 384//146 383//146 381//145
f 384//146 290//99 289//99 383//146
