# Blender v2.79 (sub 0) OBJ File: 'unicode_to_obj.blend'
# www.blender.org
mtllib 003E.mtl
o Text_CUText.975
v 0.055000 -0.198000 -0.060000
v 0.431000 -0.354000 -0.060000
v 0.055000 -0.510000 -0.060000
v 0.055000 -0.597000 -0.060000
v 0.529000 -0.395000 -0.060000
v 0.529000 -0.313000 -0.060000
v 0.055000 -0.111000 -0.060000
v 0.055000 -0.198000 0.060000
v 0.431000 -0.354000 0.060000
v 0.055000 -0.510000 0.060000
v 0.055000 -0.597000 0.060000
v 0.529000 -0.395000 0.060000
v 0.529000 -0.313000 0.060000
v 0.055000 -0.111000 0.060000
v 0.055000 -0.198000 0.060000
v 0.035000 -0.211355 0.040000
v 0.431000 -0.354000 0.060000
v 0.378811 -0.354000 0.040000
v 0.055000 -0.510000 0.060000
v 0.035000 -0.496645 0.040000
v 0.055000 -0.597000 0.060000
v 0.035000 -0.627264 0.040000
v 0.529000 -0.395000 0.060000
v 0.549000 -0.408217 0.040000
v 0.529000 -0.313000 0.060000
v 0.549000 -0.299783 0.040000
v 0.055000 -0.111000 0.060000
v 0.035000 -0.080736 0.040000
v 0.035000 -0.211355 0.040000
v 0.035000 -0.211355 -0.040000
v 0.378811 -0.354000 0.040000
v 0.378811 -0.354000 -0.040000
v 0.035000 -0.496645 0.040000
v 0.035000 -0.496645 -0.040000
v 0.035000 -0.627264 0.040000
v 0.035000 -0.627264 -0.040000
v 0.549000 -0.408217 0.040000
v 0.549000 -0.408217 -0.040000
v 0.549000 -0.299783 0.040000
v 0.549000 -0.299783 -0.040000
v 0.035000 -0.080736 0.040000
v 0.035000 -0.080736 -0.040000
v 0.035000 -0.211355 -0.040000
v 0.055000 -0.198000 -0.060000
v 0.378811 -0.354000 -0.040000
v 0.431000 -0.354000 -0.060000
v 0.035000 -0.496645 -0.040000
v 0.055000 -0.510000 -0.060000
v 0.035000 -0.627264 -0.040000
v 0.055000 -0.597000 -0.060000
v 0.549000 -0.408217 -0.040000
v 0.529000 -0.395000 -0.060000
v 0.549000 -0.299783 -0.040000
v 0.529000 -0.313000 -0.060000
v 0.035000 -0.080736 -0.040000
v 0.055000 -0.111000 -0.060000
vn 0.0000 0.0000 -1.0000
vn 0.0000 0.0000 1.0000
vn -0.5317 -0.3551 0.7689
vn -0.3578 0.0000 0.9338
vn -0.5317 0.3551 0.7689
vn -0.2662 -0.4028 0.8757
vn 0.5344 -0.3532 0.7678
vn 0.5344 0.3532 0.7678
vn -0.2662 0.4028 0.8757
vn -0.8316 -0.5553 0.0000
vn -1.0000 0.0000 0.0000
vn -0.8316 0.5553 0.0000
vn -0.5513 -0.8343 0.0000
vn 0.8343 -0.5513 0.0000
vn 0.8343 0.5513 0.0000
vn -0.5513 0.8343 0.0000
vn -0.5317 -0.3551 -0.7689
vn -0.3578 0.0000 -0.9338
vn -0.5317 0.3551 -0.7689
vn -0.2662 -0.4028 -0.8757
vn 0.5344 -0.3532 -0.7678
vn 0.5344 0.3532 -0.7678
vn -0.2662 0.4028 -0.8757
usemtl None
s off
f 3//1 5//1 4//1
f 2//1 5//1 3//1
f 2//1 6//1 5//1
f 1//1 6//1 2//1
f 1//1 7//1 6//1
f 12//2 10//2 11//2
f 12//2 9//2 10//2
f 13//2 9//2 12//2
f 13//2 8//2 9//2
f 14//2 8//2 13//2
s 1
f 16//3 18//4 17//4 15//3
f 18//4 20//5 19//5 17//4
f 20//5 22//6 21//6 19//5
f 22//6 24//7 23//7 21//6
f 24//7 26//8 25//8 23//7
f 26//8 28//9 27//9 25//8
f 28//9 16//3 15//3 27//9
f 30//10 32//11 31//11 29//10
f 32//11 34//12 33//12 31//11
f 34//12 36//13 35//13 33//12
f 36//13 38//14 37//14 35//13
f 38//14 40//15 39//15 37//14
f 40//15 42//16 41//16 39//15
f 42//16 30//10 29//10 41//16
f 44//17 46//18 45//18 43//17
f 46//18 48//19 47//19 45//18
f 48//19 50//20 49//20 47//19
f 50//20 52//21 51//21 49//20
f 52//21 54//22 53//22 51//21
f 54//22 56//23 55//23 53//22
f 56//23 44//17 43//17 55//23
