# Blender v2.79 (sub 0) OBJ File: 'unicode_to_obj.blend'
# www.blender.org
mtllib 0045.mtl
o Text_CUText.982
v 0.173000 -0.594000 -0.060000
v 0.173000 -0.388000 -0.060000
v 0.452000 -0.388000 -0.060000
v 0.452000 -0.300000 -0.060000
v 0.173000 -0.300000 -0.060000
v 0.173000 -0.088000 -0.060000
v 0.471000 -0.088000 -0.060000
v 0.471000 -0.000000 -0.060000
v 0.075000 -0.000000 -0.060000
v 0.075000 -0.682000 -0.060000
v 0.462000 -0.682000 -0.060000
v 0.462000 -0.594000 -0.060000
v 0.173000 -0.594000 0.060000
v 0.173000 -0.388000 0.060000
v 0.452000 -0.388000 0.060000
v 0.452000 -0.300000 0.060000
v 0.173000 -0.300000 0.060000
v 0.173000 -0.088000 0.060000
v 0.471000 -0.088000 0.060000
v 0.471000 -0.000000 0.060000
v 0.075000 -0.000000 0.060000
v 0.075000 -0.682000 0.060000
v 0.462000 -0.682000 0.060000
v 0.462000 -0.594000 0.060000
v 0.173000 -0.594000 0.060000
v 0.193000 -0.574000 0.040000
v 0.173000 -0.388000 0.060000
v 0.193000 -0.408000 0.040000
v 0.452000 -0.388000 0.060000
v 0.472000 -0.408000 0.040000
v 0.452000 -0.300000 0.060000
v 0.472000 -0.280000 0.040000
v 0.173000 -0.300000 0.060000
v 0.193000 -0.280000 0.040000
v 0.173000 -0.088000 0.060000
v 0.193000 -0.108000 0.040000
v 0.471000 -0.088000 0.060000
v 0.491000 -0.108000 0.040000
v 0.471000 -0.000000 0.060000
v 0.491000 0.020000 0.040000
v 0.075000 -0.000000 0.060000
v 0.055000 0.020000 0.040000
v 0.075000 -0.682000 0.060000
v 0.055000 -0.702000 0.040000
v 0.462000 -0.682000 0.060000
v 0.482000 -0.702000 0.040000
v 0.462000 -0.594000 0.060000
v 0.482000 -0.574000 0.040000
v 0.193000 -0.574000 0.040000
v 0.193000 -0.574000 -0.040000
v 0.193000 -0.408000 0.040000
v 0.193000 -0.408000 -0.040000
v 0.472000 -0.408000 0.040000
v 0.472000 -0.408000 -0.040000
v 0.472000 -0.280000 0.040000
v 0.472000 -0.280000 -0.040000
v 0.193000 -0.280000 0.040000
v 0.193000 -0.280000 -0.040000
v 0.193000 -0.108000 0.040000
v 0.193000 -0.108000 -0.040000
v 0.491000 -0.108000 0.040000
v 0.491000 -0.108000 -0.040000
v 0.491000 0.020000 0.040000
v 0.491000 0.020000 -0.040000
v 0.055000 0.020000 0.040000
v 0.055000 0.020000 -0.040000
v 0.055000 -0.702000 0.040000
v 0.055000 -0.702000 -0.040000
v 0.482000 -0.702000 0.040000
v 0.482000 -0.702000 -0.040000
v 0.482000 -0.574000 0.040000
v 0.482000 -0.574000 -0.040000
v 0.193000 -0.574000 -0.040000
v 0.173000 -0.594000 -0.060000
v 0.193000 -0.408000 -0.040000
v 0.173000 -0.388000 -0.060000
v 0.472000 -0.408000 -0.040000
v 0.452000 -0.388000 -0.060000
v 0.472000 -0.280000 -0.040000
v 0.452000 -0.300000 -0.060000
v 0.193000 -0.280000 -0.040000
v 0.173000 -0.300000 -0.060000
v 0.193000 -0.108000 -0.040000
v 0.173000 -0.088000 -0.060000
v 0.491000 -0.108000 -0.040000
v 0.471000 -0.088000 -0.060000
v 0.491000 0.020000 -0.040000
v 0.471000 -0.000000 -0.060000
v 0.055000 0.020000 -0.040000
v 0.075000 -0.000000 -0.060000
v 0.055000 -0.702000 -0.040000
v 0.075000 -0.682000 -0.060000
v 0.482000 -0.702000 -0.040000
v 0.462000 -0.682000 -0.060000
v 0.482000 -0.574000 -0.040000
v 0.462000 -0.594000 -0.060000
vn -0.0000 0.0000 -1.0000
vn 0.0000 0.0000 1.0000
vn 0.4082 0.4082 0.8165
vn 0.4082 -0.4082 0.8165
vn -0.4082 0.4082 0.8165
vn -0.4082 -0.4082 0.8165
vn 0.7071 0.7071 0.0000
vn 0.7071 -0.7071 0.0000
vn -0.7071 0.7071 0.0000
vn -0.7071 -0.7071 0.0000
vn 0.4082 0.4082 -0.8165
vn 0.4082 -0.4082 -0.8165
vn -0.4082 0.4082 -0.8165
vn -0.4082 -0.4082 -0.8165
usemtl None
s off
f 9//1 1//1 10//1
f 1//1 11//1 10//1
f 1//1 12//1 11//1
f 9//1 2//1 1//1
f 9//1 5//1 2//1
f 5//1 3//1 2//1
f 5//1 4//1 3//1
f 9//1 6//1 5//1
f 9//1 7//1 6//1
f 9//1 8//1 7//1
f 13//2 21//2 22//2
f 23//2 13//2 22//2
f 24//2 13//2 23//2
f 14//2 21//2 13//2
f 17//2 21//2 14//2
f 15//2 17//2 14//2
f 16//2 17//2 15//2
f 18//2 21//2 17//2
f 19//2 21//2 18//2
f 20//2 21//2 19//2
s 1
f 26//3 28//4 27//4 25//3
f 28//4 30//4 29//4 27//4
f 30//4 32//3 31//3 29//4
f 32//3 34//3 33//3 31//3
f 34//3 36//4 35//4 33//3
f 36//4 38//4 37//4 35//4
f 38//4 40//3 39//3 37//4
f 40//3 42//5 41//5 39//3
f 42//5 44//6 43//6 41//5
f 44//6 46//4 45//4 43//6
f 46//4 48//3 47//3 45//4
f 48//3 26//3 25//3 47//3
f 50//7 52//8 51//8 49//7
f 52//8 54//8 53//8 51//8
f 54//8 56//7 55//7 53//8
f 56//7 58//7 57//7 55//7
f 58//7 60//8 59//8 57//7
f 60//8 62//8 61//8 59//8
f 62//8 64//7 63//7 61//8
f 64//7 66//9 65//9 63//7
f 66//9 68//10 67//10 65//9
f 68//10 70//8 69//8 67//10
f 70//8 72//7 71//7 69//8
f 72//7 50//7 49//7 71//7
f 74//11 76//12 75//12 73//11
f 76//12 78//12 77//12 75//12
f 78//12 80//11 79//11 77//12
f 80//11 82//11 81//11 79//11
f 82//11 84//12 83//12 81//11
f 84//12 86//12 85//12 83//12
f 86//12 88//11 87//11 85//12
f 88//11 90//13 89//13 87//11
f 90//13 92//14 91//14 89//13
f 92//14 94//12 93//12 91//14
f 94//12 96//11 95//11 93//12
f 96//11 74//11 73//11 95//11
