# Blender v2.79 (sub 0) OBJ File: 'unicode_to_obj.blend'
# www.blender.org
mtllib 0046.mtl
o Text_CUText.983
v 0.174000 -0.594000 -0.060000
v 0.174000 -0.405000 -0.060000
v 0.440000 -0.405000 -0.060000
v 0.440000 -0.317000 -0.060000
v 0.174000 -0.317000 -0.060000
v 0.174000 -0.000000 -0.060000
v 0.076000 -0.000000 -0.060000
v 0.076000 -0.682000 -0.060000
v 0.440000 -0.682000 -0.060000
v 0.440000 -0.594000 -0.060000
v 0.174000 -0.594000 0.060000
v 0.174000 -0.405000 0.060000
v 0.440000 -0.405000 0.060000
v 0.440000 -0.317000 0.060000
v 0.174000 -0.317000 0.060000
v 0.174000 -0.000000 0.060000
v 0.076000 -0.000000 0.060000
v 0.076000 -0.682000 0.060000
v 0.440000 -0.682000 0.060000
v 0.440000 -0.594000 0.060000
v 0.174000 -0.594000 0.060000
v 0.194000 -0.574000 0.040000
v 0.174000 -0.405000 0.060000
v 0.194000 -0.425000 0.040000
v 0.440000 -0.405000 0.060000
v 0.460000 -0.425000 0.040000
v 0.440000 -0.317000 0.060000
v 0.460000 -0.297000 0.040000
v 0.174000 -0.317000 0.060000
v 0.194000 -0.297000 0.040000
v 0.174000 -0.000000 0.060000
v 0.194000 0.020000 0.040000
v 0.076000 -0.000000 0.060000
v 0.056000 0.020000 0.040000
v 0.076000 -0.682000 0.060000
v 0.056000 -0.702000 0.040000
v 0.440000 -0.682000 0.060000
v 0.460000 -0.702000 0.040000
v 0.440000 -0.594000 0.060000
v 0.460000 -0.574000 0.040000
v 0.194000 -0.574000 0.040000
v 0.194000 -0.574000 -0.040000
v 0.194000 -0.425000 0.040000
v 0.194000 -0.425000 -0.040000
v 0.460000 -0.425000 0.040000
v 0.460000 -0.425000 -0.040000
v 0.460000 -0.297000 0.040000
v 0.460000 -0.297000 -0.040000
v 0.194000 -0.297000 0.040000
v 0.194000 -0.297000 -0.040000
v 0.194000 0.020000 0.040000
v 0.194000 0.020000 -0.040000
v 0.056000 0.020000 0.040000
v 0.056000 0.020000 -0.040000
v 0.056000 -0.702000 0.040000
v 0.056000 -0.702000 -0.040000
v 0.460000 -0.702000 0.040000
v 0.460000 -0.702000 -0.040000
v 0.460000 -0.574000 0.040000
v 0.460000 -0.574000 -0.040000
v 0.194000 -0.574000 -0.040000
v 0.174000 -0.594000 -0.060000
v 0.194000 -0.425000 -0.040000
v 0.174000 -0.405000 -0.060000
v 0.460000 -0.425000 -0.040000
v 0.440000 -0.405000 -0.060000
v 0.460000 -0.297000 -0.040000
v 0.440000 -0.317000 -0.060000
v 0.194000 -0.297000 -0.040000
v 0.174000 -0.317000 -0.060000
v 0.194000 0.020000 -0.040000
v 0.174000 -0.000000 -0.060000
v 0.056000 0.020000 -0.040000
v 0.076000 -0.000000 -0.060000
v 0.056000 -0.702000 -0.040000
v 0.076000 -0.682000 -0.060000
v 0.460000 -0.702000 -0.040000
v 0.440000 -0.682000 -0.060000
v 0.460000 -0.574000 -0.040000
v 0.440000 -0.594000 -0.060000
vn -0.0000 0.0000 -1.0000
vn 0.0000 0.0000 1.0000
vn 0.4082 0.4082 0.8165
vn 0.4082 -0.4082 0.8165
vn -0.4082 0.4082 0.8165
vn -0.4082 -0.4082 0.8165
vn 0.7071 0.7071 0.0000
vn 0.7071 -0.7071 0.0000
vn -0.7071 0.7071 0.0000
vn -0.7071 -0.7071 0.0000
vn 0.4082 0.4082 -0.8165
vn 0.4082 -0.4082 -0.8165
vn -0.4082 0.4082 -0.8165
vn -0.4082 -0.4082 -0.8165
usemtl None
s off
f 7//1 1//1 8//1
f 1//1 9//1 8//1
f 1//1 10//1 9//1
f 7//1 2//1 1//1
f 7//1 5//1 2//1
f 5//1 3//1 2//1
f 5//1 4//1 3//1
f 7//1 6//1 5//1
f 11//2 17//2 18//2
f 19//2 11//2 18//2
f 20//2 11//2 19//2
f 12//2 17//2 11//2
f 15//2 17//2 12//2
f 13//2 15//2 12//2
f 14//2 15//2 13//2
f 16//2 17//2 15//2
s 1
f 22//3 24//4 23//4 21//3
f 24//4 26//4 25//4 23//4
f 26//4 28//3 27//3 25//4
f 28//3 30//3 29//3 27//3
f 30//3 32//3 31//3 29//3
f 32//3 34//5 33//5 31//3
f 34//5 36//6 35//6 33//5
f 36//6 38//4 37//4 35//6
f 38//4 40//3 39//3 37//4
f 40//3 22//3 21//3 39//3
f 42//7 44//8 43//8 41//7
f 44//8 46//8 45//8 43//8
f 46//8 48//7 47//7 45//8
f 48//7 50//7 49//7 47//7
f 50//7 52//7 51//7 49//7
f 52//7 54//9 53//9 51//7
f 54//9 56//10 55//10 53//9
f 56//10 58//8 57//8 55//10
f 58//8 60//7 59//7 57//8
f 60//7 42//7 41//7 59//7
f 62//11 64//12 63//12 61//11
f 64//12 66//12 65//12 63//12
f 66//12 68//11 67//11 65//12
f 68//11 70//11 69//11 67//11
f 70//11 72//11 71//11 69//11
f 72//11 74//13 73//13 71//11
f 74//13 76//14 75//14 73//13
f 76//14 78//12 77//12 75//14
f 78//12 80//11 79//11 77//12
f 80//11 62//11 61//11 79//11
