# Blender v2.79 (sub 0) OBJ File: 'unicode_to_obj.blend'
# www.blender.org
mtllib 004B.mtl
o Text_CUText.988
v 0.520000 -0.000000 -0.060000
v 0.173000 -0.337000 -0.060000
v 0.173000 -0.000000 -0.060000
v 0.075000 -0.000000 -0.060000
v 0.075000 -0.682000 -0.060000
v 0.173000 -0.682000 -0.060000
v 0.173000 -0.370000 -0.060000
v 0.460000 -0.682000 -0.060000
v 0.582000 -0.682000 -0.060000
v 0.285000 -0.359000 -0.060000
v 0.655000 -0.000000 -0.060000
v 0.520000 -0.000000 0.060000
v 0.173000 -0.337000 0.060000
v 0.173000 -0.000000 0.060000
v 0.075000 -0.000000 0.060000
v 0.075000 -0.682000 0.060000
v 0.173000 -0.682000 0.060000
v 0.173000 -0.370000 0.060000
v 0.460000 -0.682000 0.060000
v 0.582000 -0.682000 0.060000
v 0.285000 -0.359000 0.060000
v 0.655000 -0.000000 0.060000
v 0.520000 -0.000000 0.060000
v 0.511887 0.020000 0.040000
v 0.173000 -0.337000 0.060000
v 0.193000 -0.289697 0.040000
v 0.173000 -0.000000 0.060000
v 0.193000 0.020000 0.040000
v 0.075000 -0.000000 0.060000
v 0.055000 0.020000 0.040000
v 0.075000 -0.682000 0.060000
v 0.055000 -0.702000 0.040000
v 0.173000 -0.682000 0.060000
v 0.193000 -0.702000 0.040000
v 0.173000 -0.370000 0.060000
v 0.193000 -0.421284 0.040000
v 0.460000 -0.682000 0.060000
v 0.451223 -0.702000 0.040000
v 0.582000 -0.682000 0.060000
v 0.627560 -0.702000 0.040000
v 0.285000 -0.359000 0.060000
v 0.312901 -0.359795 0.040000
v 0.655000 -0.000000 0.060000
v 0.704334 0.020000 0.040000
v 0.511887 0.020000 0.040000
v 0.511887 0.020000 -0.040000
v 0.193000 -0.289697 0.040000
v 0.193000 -0.289697 -0.040000
v 0.193000 0.020000 0.040000
v 0.193000 0.020000 -0.040000
v 0.055000 0.020000 0.040000
v 0.055000 0.020000 -0.040000
v 0.055000 -0.702000 0.040000
v 0.055000 -0.702000 -0.040000
v 0.193000 -0.702000 0.040000
v 0.193000 -0.702000 -0.040000
v 0.193000 -0.421284 0.040000
v 0.193000 -0.421284 -0.040000
v 0.451223 -0.702000 0.040000
v 0.451223 -0.702000 -0.040000
v 0.627560 -0.702000 0.040000
v 0.627560 -0.702000 -0.040000
v 0.312901 -0.359795 0.040000
v 0.312901 -0.359795 -0.040000
v 0.704334 0.020000 0.040000
v 0.704334 0.020000 -0.040000
v 0.511887 0.020000 -0.040000
v 0.520000 -0.000000 -0.060000
v 0.193000 -0.289697 -0.040000
v 0.173000 -0.337000 -0.060000
v 0.193000 0.020000 -0.040000
v 0.173000 -0.000000 -0.060000
v 0.055000 0.020000 -0.040000
v 0.075000 -0.000000 -0.060000
v 0.055000 -0.702000 -0.040000
v 0.075000 -0.682000 -0.060000
v 0.193000 -0.702000 -0.040000
v 0.173000 -0.682000 -0.060000
v 0.193000 -0.421284 -0.040000
v 0.173000 -0.370000 -0.060000
v 0.451223 -0.702000 -0.040000
v 0.460000 -0.682000 -0.060000
v 0.627560 -0.702000 -0.040000
v 0.582000 -0.682000 -0.060000
v 0.312901 -0.359795 -0.040000
v 0.285000 -0.359000 -0.060000
v 0.704334 0.020000 -0.040000
v 0.655000 -0.000000 -0.060000
vn 0.0000 0.0000 -1.0000
vn 0.0000 0.0000 1.0000
vn -0.2555 0.6298 0.7335
vn 0.1413 0.3342 0.9318
vn 0.4082 0.4082 0.8165
vn -0.4082 0.4082 0.8165
vn -0.4082 -0.4082 0.8165
vn 0.4082 -0.4082 0.8165
vn 0.1241 -0.3181 0.9399
vn -0.2714 -0.6184 0.7375
vn 0.3415 -0.1499 0.9278
vn 0.5822 -0.0166 0.8129
vn 0.3259 0.1321 0.9361
vn -0.3759 0.9266 0.0000
vn 0.3894 0.9210 0.0000
vn 0.7071 0.7071 0.0000
vn -0.7071 0.7071 0.0000
vn -0.7071 -0.7071 0.0000
vn 0.7071 -0.7071 0.0000
vn 0.3633 -0.9316 0.0000
vn -0.4018 -0.9157 0.0000
vn 0.9156 -0.4019 0.0000
vn 0.9996 -0.0285 0.0000
vn 0.9267 0.3757 0.0000
vn -0.2555 0.6298 -0.7335
vn 0.1413 0.3342 -0.9318
vn 0.4082 0.4082 -0.8165
vn -0.4082 0.4082 -0.8165
vn -0.4082 -0.4082 -0.8165
vn 0.4082 -0.4082 -0.8165
vn 0.1241 -0.3181 -0.9399
vn -0.2714 -0.6184 -0.7375
vn 0.3415 -0.1499 -0.9278
vn 0.5822 -0.0166 -0.8129
vn 0.3259 0.1321 -0.9361
usemtl None
s off
f 4//1 6//1 5//1
f 4//1 7//1 6//1
f 7//1 9//1 8//1
f 7//1 10//1 9//1
f 4//1 2//1 7//1
f 2//1 10//1 7//1
f 2//1 11//1 10//1
f 4//1 3//1 2//1
f 1//1 11//1 2//1
f 17//2 15//2 16//2
f 18//2 15//2 17//2
f 20//2 18//2 19//2
f 21//2 18//2 20//2
f 13//2 15//2 18//2
f 21//2 13//2 18//2
f 22//2 13//2 21//2
f 14//2 15//2 13//2
f 22//2 12//2 13//2
s 1
f 24//3 26//4 25//4 23//3
f 26//4 28//5 27//5 25//4
f 28//5 30//6 29//6 27//5
f 30//6 32//7 31//7 29//6
f 32//7 34//8 33//8 31//7
f 34//8 36//9 35//9 33//8
f 36//9 38//10 37//10 35//9
f 38//10 40//11 39//11 37//10
f 40//11 42//12 41//12 39//11
f 42//12 44//13 43//13 41//12
f 44//13 24//3 23//3 43//13
f 46//14 48//15 47//15 45//14
f 48//15 50//16 49//16 47//15
f 50//16 52//17 51//17 49//16
f 52//17 54//18 53//18 51//17
f 54//18 56//19 55//19 53//18
f 56//19 58//20 57//20 55//19
f 58//20 60//21 59//21 57//20
f 60//21 62//22 61//22 59//21
f 62//22 64//23 63//23 61//22
f 64//23 66//24 65//24 63//23
f 66//24 46//14 45//14 65//24
f 68//25 70//26 69//26 67//25
f 70//26 72//27 71//27 69//26
f 72//27 74//28 73//28 71//27
f 74//28 76//29 75//29 73//28
f 76//29 78//30 77//30 75//29
f 78//30 80//31 79//31 77//30
f 80//31 82//32 81//32 79//31
f 82//32 84//33 83//33 81//32
f 84//33 86//34 85//34 83//33
f 86//34 88//35 87//35 85//34
f 88//35 68//25 67//25 87//35
