# Blender v2.79 (sub 0) OBJ File: 'unicode_to_obj.blend'
# www.blender.org
mtllib 004E.mtl
o Text_CUText.991
v 0.622000 -0.000000 -0.060000
v 0.166000 -0.525000 -0.060000
v 0.166000 -0.000000 -0.060000
v 0.074000 -0.000000 -0.060000
v 0.074000 -0.682000 -0.060000
v 0.152000 -0.682000 -0.060000
v 0.614000 -0.154000 -0.060000
v 0.614000 -0.682000 -0.060000
v 0.706000 -0.682000 -0.060000
v 0.706000 -0.000000 -0.060000
v 0.622000 -0.000000 0.060000
v 0.166000 -0.525000 0.060000
v 0.166000 -0.000000 0.060000
v 0.074000 -0.000000 0.060000
v 0.074000 -0.682000 0.060000
v 0.152000 -0.682000 0.060000
v 0.614000 -0.154000 0.060000
v 0.614000 -0.682000 0.060000
v 0.706000 -0.682000 0.060000
v 0.706000 -0.000000 0.060000
v 0.622000 -0.000000 0.060000
v 0.612881 0.020000 0.040000
v 0.166000 -0.525000 0.060000
v 0.186000 -0.471474 0.040000
v 0.166000 -0.000000 0.060000
v 0.186000 0.020000 0.040000
v 0.074000 -0.000000 0.060000
v 0.054000 0.020000 0.040000
v 0.074000 -0.682000 0.060000
v 0.054000 -0.702000 0.040000
v 0.152000 -0.682000 0.060000
v 0.161075 -0.702000 0.040000
v 0.614000 -0.154000 0.060000
v 0.594000 -0.207229 0.040000
v 0.614000 -0.682000 0.060000
v 0.594000 -0.702000 0.040000
v 0.706000 -0.682000 0.060000
v 0.726000 -0.702000 0.040000
v 0.706000 -0.000000 0.060000
v 0.726000 0.020000 0.040000
v 0.612881 0.020000 0.040000
v 0.612881 0.020000 -0.040000
v 0.186000 -0.471474 0.040000
v 0.186000 -0.471474 -0.040000
v 0.186000 0.020000 0.040000
v 0.186000 0.020000 -0.040000
v 0.054000 0.020000 0.040000
v 0.054000 0.020000 -0.040000
v 0.054000 -0.702000 0.040000
v 0.054000 -0.702000 -0.040000
v 0.161075 -0.702000 0.040000
v 0.161075 -0.702000 -0.040000
v 0.594000 -0.207229 0.040000
v 0.594000 -0.207229 -0.040000
v 0.594000 -0.702000 0.040000
v 0.594000 -0.702000 -0.040000
v 0.726000 -0.702000 0.040000
v 0.726000 -0.702000 -0.040000
v 0.726000 0.020000 0.040000
v 0.726000 0.020000 -0.040000
v 0.612881 0.020000 -0.040000
v 0.622000 -0.000000 -0.060000
v 0.186000 -0.471474 -0.040000
v 0.166000 -0.525000 -0.060000
v 0.186000 0.020000 -0.040000
v 0.166000 -0.000000 -0.060000
v 0.054000 0.020000 -0.040000
v 0.074000 -0.000000 -0.060000
v 0.054000 -0.702000 -0.040000
v 0.074000 -0.682000 -0.060000
v 0.161075 -0.702000 -0.040000
v 0.152000 -0.682000 -0.060000
v 0.594000 -0.207229 -0.040000
v 0.614000 -0.154000 -0.060000
v 0.594000 -0.702000 -0.040000
v 0.614000 -0.682000 -0.060000
v 0.726000 -0.702000 -0.040000
v 0.706000 -0.682000 -0.060000
v 0.726000 0.020000 -0.040000
v 0.706000 -0.000000 -0.060000
vn 0.0000 0.0000 -1.0000
vn 0.0000 0.0000 1.0000
vn -0.2792 0.6123 0.7396
vn 0.1156 0.3095 0.9438
vn 0.4082 0.4082 0.8165
vn -0.4082 0.4082 0.8165
vn -0.4082 -0.4082 0.8165
vn 0.2782 -0.6131 0.7394
vn -0.1167 -0.3106 0.9433
vn 0.4082 -0.4082 0.8165
vn -0.4149 0.9098 0.0000
vn 0.3500 0.9367 0.0000
vn 0.7071 0.7071 0.0000
vn -0.7071 0.7071 0.0000
vn -0.7071 -0.7071 0.0000
vn 0.4132 -0.9106 0.0000
vn -0.3517 -0.9361 0.0000
vn 0.7071 -0.7071 0.0000
vn -0.2792 0.6123 -0.7396
vn 0.1156 0.3095 -0.9438
vn 0.4082 0.4082 -0.8165
vn -0.4082 0.4082 -0.8165
vn -0.4082 -0.4082 -0.8165
vn 0.2782 -0.6131 -0.7394
vn -0.1167 -0.3106 -0.9433
vn 0.4082 -0.4082 -0.8165
usemtl None
s off
f 4//1 6//1 5//1
f 4//1 2//1 6//1
f 2//1 7//1 6//1
f 7//1 9//1 8//1
f 7//1 10//1 9//1
f 4//1 3//1 2//1
f 1//1 7//1 2//1
f 1//1 10//1 7//1
f 16//2 14//2 15//2
f 12//2 14//2 16//2
f 17//2 12//2 16//2
f 19//2 17//2 18//2
f 20//2 17//2 19//2
f 13//2 14//2 12//2
f 17//2 11//2 12//2
f 20//2 11//2 17//2
s 1
f 22//3 24//4 23//4 21//3
f 24//4 26//5 25//5 23//4
f 26//5 28//6 27//6 25//5
f 28//6 30//7 29//7 27//6
f 30//7 32//8 31//8 29//7
f 32//8 34//9 33//9 31//8
f 34//9 36//7 35//7 33//9
f 36//7 38//10 37//10 35//7
f 38//10 40//5 39//5 37//10
f 40//5 22//3 21//3 39//5
f 42//11 44//12 43//12 41//11
f 44//12 46//13 45//13 43//12
f 46//13 48//14 47//14 45//13
f 48//14 50//15 49//15 47//14
f 50//15 52//16 51//16 49//15
f 52//16 54//17 53//17 51//16
f 54//17 56//15 55//15 53//17
f 56//15 58//18 57//18 55//15
f 58//18 60//13 59//13 57//18
f 60//13 42//11 41//11 59//13
f 62//19 64//20 63//20 61//19
f 64//20 66//21 65//21 63//20
f 66//21 68//22 67//22 65//21
f 68//22 70//23 69//23 67//22
f 70//23 72//24 71//24 69//23
f 72//24 74//25 73//25 71//24
f 74//25 76//23 75//23 73//25
f 76//23 78//26 77//26 75//23
f 78//26 80//21 79//21 77//26
f 80//21 62//19 61//19 79//21
