# Blender v2.79 (sub 0) OBJ File: 'unicode_to_obj.blend'
# www.blender.org
mtllib 0056.mtl
o Text_CUText.999
v 0.295000 0.006000 -0.060000
v 0.000000 -0.682000 -0.060000
v 0.098000 -0.682000 -0.060000
v 0.303000 -0.203000 -0.060000
v 0.507000 -0.682000 -0.060000
v 0.604000 -0.682000 -0.060000
v 0.315000 0.006000 -0.060000
v 0.295000 0.006000 0.060000
v 0.000000 -0.682000 0.060000
v 0.098000 -0.682000 0.060000
v 0.303000 -0.203000 0.060000
v 0.507000 -0.682000 0.060000
v 0.604000 -0.682000 0.060000
v 0.315000 0.006000 0.060000
v 0.295000 0.006000 0.060000
v 0.281815 0.026000 0.040000
v 0.000000 -0.682000 0.060000
v -0.030337 -0.702000 0.040000
v 0.098000 -0.682000 0.060000
v 0.111195 -0.702000 0.040000
v 0.303000 -0.203000 0.060000
v 0.302955 -0.253937 0.040000
v 0.507000 -0.682000 0.060000
v 0.493780 -0.702000 0.040000
v 0.604000 -0.682000 0.060000
v 0.634094 -0.702000 0.040000
v 0.315000 0.006000 0.060000
v 0.328292 0.026000 0.040000
v 0.281815 0.026000 0.040000
v 0.281815 0.026000 -0.040000
v -0.030337 -0.702000 0.040000
v -0.030337 -0.702000 -0.040000
v 0.111195 -0.702000 0.040000
v 0.111195 -0.702000 -0.040000
v 0.302955 -0.253937 0.040000
v 0.302955 -0.253937 -0.040000
v 0.493780 -0.702000 0.040000
v 0.493780 -0.702000 -0.040000
v 0.634094 -0.702000 0.040000
v 0.634094 -0.702000 -0.040000
v 0.328292 0.026000 0.040000
v 0.328292 0.026000 -0.040000
v 0.281815 0.026000 -0.040000
v 0.295000 0.006000 -0.060000
v -0.030337 -0.702000 -0.040000
v 0.000000 -0.682000 -0.060000
v 0.111195 -0.702000 -0.040000
v 0.098000 -0.682000 -0.060000
v 0.302955 -0.253937 -0.040000
v 0.303000 -0.203000 -0.060000
v 0.493780 -0.702000 -0.040000
v 0.507000 -0.682000 -0.060000
v 0.634094 -0.702000 -0.040000
v 0.604000 -0.682000 -0.060000
v 0.328292 0.026000 -0.040000
v 0.315000 0.006000 -0.060000
vn 0.0000 0.0000 -1.0000
vn 0.0000 0.0000 1.0000
vn -0.3527 0.5351 0.7676
vn -0.4026 -0.2654 0.8760
vn 0.3529 -0.5349 0.7677
vn -0.0003 -0.3655 0.9308
vn -0.3532 -0.5344 0.7679
vn 0.4033 -0.2680 0.8749
vn 0.3542 0.5330 0.7684
vn -0.5504 0.8349 0.0000
vn -0.8349 -0.5504 0.0000
vn 0.5507 -0.8347 0.0000
vn -0.0009 -1.0000 0.0000
vn -0.5514 -0.8342 0.0000
vn 0.8328 -0.5535 0.0000
vn 0.5535 0.8328 0.0000
vn -0.3527 0.5351 -0.7676
vn -0.4026 -0.2654 -0.8760
vn 0.3529 -0.5349 -0.7677
vn -0.0003 -0.3655 -0.9308
vn -0.3532 -0.5344 -0.7679
vn 0.4033 -0.2680 -0.8749
vn 0.3542 0.5330 -0.7684
usemtl None
s off
f 1//1 3//1 2//1
f 1//1 4//1 3//1
f 4//1 6//1 5//1
f 4//1 7//1 6//1
f 1//1 7//1 4//1
f 10//2 8//2 9//2
f 11//2 8//2 10//2
f 13//2 11//2 12//2
f 14//2 11//2 13//2
f 14//2 8//2 11//2
s 1
f 16//3 18//4 17//4 15//3
f 18//4 20//5 19//5 17//4
f 20//5 22//6 21//6 19//5
f 22//6 24//7 23//7 21//6
f 24//7 26//8 25//8 23//7
f 26//8 28//9 27//9 25//8
f 28//9 16//3 15//3 27//9
f 30//10 32//11 31//11 29//10
f 32//11 34//12 33//12 31//11
f 34//12 36//13 35//13 33//12
f 36//13 38//14 37//14 35//13
f 38//14 40//15 39//15 37//14
f 40//15 42//16 41//16 39//15
f 42//16 30//10 29//10 41//16
f 44//17 46//18 45//18 43//17
f 46//18 48//19 47//19 45//18
f 48//19 50//20 49//20 47//19
f 50//20 52//21 51//21 49//20
f 52//21 54//22 53//22 51//21
f 54//22 56//23 55//23 53//22
f 56//23 44//17 43//17 55//23
