# Blender v2.79 (sub 0) OBJ File: 'unicode_to_obj.blend'
# www.blender.org
mtllib 0057.mtl
o Text_CUText.1000
v 0.745000 0.006000 -0.060000
v 0.521000 -0.552000 -0.060000
v 0.295000 0.006000 -0.060000
v 0.276000 0.006000 -0.060000
v 0.000000 -0.682000 -0.060000
v 0.098000 -0.682000 -0.060000
v 0.286000 -0.212000 -0.060000
v 0.475000 -0.682000 -0.060000
v 0.568000 -0.682000 -0.060000
v 0.758000 -0.212000 -0.060000
v 0.944000 -0.682000 -0.060000
v 1.041000 -0.682000 -0.060000
v 0.764000 0.006000 -0.060000
v 0.745000 0.006000 0.060000
v 0.521000 -0.552000 0.060000
v 0.295000 0.006000 0.060000
v 0.276000 0.006000 0.060000
v 0.000000 -0.682000 0.060000
v 0.098000 -0.682000 0.060000
v 0.286000 -0.212000 0.060000
v 0.475000 -0.682000 0.060000
v 0.568000 -0.682000 0.060000
v 0.758000 -0.212000 0.060000
v 0.944000 -0.682000 0.060000
v 1.041000 -0.682000 0.060000
v 0.764000 0.006000 0.060000
v 0.745000 0.006000 0.060000
v 0.731477 0.026000 0.040000
v 0.521000 -0.552000 0.060000
v 0.520918 -0.498520 0.040000
v 0.295000 0.006000 0.060000
v 0.308478 0.026000 0.040000
v 0.276000 0.006000 0.060000
v 0.262474 0.026000 0.040000
v 0.000000 -0.682000 0.060000
v -0.029573 -0.702000 0.040000
v 0.098000 -0.682000 0.060000
v 0.111541 -0.702000 0.040000
v 0.286000 -0.212000 0.060000
v 0.286049 -0.265729 0.040000
v 0.475000 -0.682000 0.060000
v 0.461486 -0.702000 0.040000
v 0.568000 -0.682000 0.060000
v 0.581487 -0.702000 0.040000
v 0.758000 -0.212000 0.060000
v 0.757802 -0.265852 0.040000
v 0.944000 -0.682000 0.060000
v 0.930406 -0.702000 0.040000
v 1.041000 -0.682000 0.060000
v 1.070612 -0.702000 0.040000
v 0.764000 0.006000 0.060000
v 0.777508 0.026000 0.040000
v 0.731477 0.026000 0.040000
v 0.731477 0.026000 -0.040000
v 0.520918 -0.498520 0.040000
v 0.520918 -0.498520 -0.040000
v 0.308478 0.026000 0.040000
v 0.308478 0.026000 -0.040000
v 0.262474 0.026000 0.040000
v 0.262474 0.026000 -0.040000
v -0.029573 -0.702000 0.040000
v -0.029573 -0.702000 -0.040000
v 0.111541 -0.702000 0.040000
v 0.111541 -0.702000 -0.040000
v 0.286049 -0.265729 0.040000
v 0.286049 -0.265729 -0.040000
v 0.461486 -0.702000 0.040000
v 0.461486 -0.702000 -0.040000
v 0.581487 -0.702000 0.040000
v 0.581487 -0.702000 -0.040000
v 0.757802 -0.265852 0.040000
v 0.757802 -0.265852 -0.040000
v 0.930406 -0.702000 0.040000
v 0.930406 -0.702000 -0.040000
v 1.070612 -0.702000 0.040000
v 1.070612 -0.702000 -0.040000
v 0.777508 0.026000 0.040000
v 0.777508 0.026000 -0.040000
v 0.731477 0.026000 -0.040000
v 0.745000 0.006000 -0.060000
v 0.520918 -0.498520 -0.040000
v 0.521000 -0.552000 -0.060000
v 0.308478 0.026000 -0.040000
v 0.295000 0.006000 -0.060000
v 0.262474 0.026000 -0.040000
v 0.276000 0.006000 -0.060000
v -0.029573 -0.702000 -0.040000
v 0.000000 -0.682000 -0.060000
v 0.111541 -0.702000 -0.040000
v 0.098000 -0.682000 -0.060000
v 0.286049 -0.265729 -0.040000
v 0.286000 -0.212000 -0.060000
v 0.461486 -0.702000 -0.040000
v 0.475000 -0.682000 -0.060000
v 0.581487 -0.702000 -0.040000
v 0.568000 -0.682000 -0.060000
v 0.757802 -0.265852 -0.040000
v 0.758000 -0.212000 -0.060000
v 0.930406 -0.702000 -0.040000
v 0.944000 -0.682000 -0.060000
v 1.070612 -0.702000 -0.040000
v 1.041000 -0.682000 -0.060000
v 0.777508 0.026000 -0.040000
v 0.764000 0.006000 -0.060000
vn 0.0000 0.0000 -1.0000
vn 0.0000 0.0000 1.0000
vn -0.3573 0.5285 0.7701
vn -0.0005 0.3503 0.9366
vn 0.3567 0.5293 0.7697
vn -0.3573 0.5284 0.7701
vn -0.4048 -0.2738 0.8724
vn 0.3576 -0.5281 0.7702
vn 0.0003 -0.3488 0.9372
vn -0.3572 -0.5286 0.7700
vn 0.3569 -0.5292 0.7698
vn -0.0013 -0.3481 0.9374
vn -0.3583 -0.5271 0.7706
vn 0.4047 -0.2734 0.8726
vn 0.3571 0.5288 0.7700
vn -0.5601 0.8284 0.0000
vn -0.0015 1.0000 0.0000
vn 0.5588 0.8292 0.0000
vn -0.5602 0.8283 0.0000
vn -0.8283 -0.5602 0.0000
vn 0.5606 -0.8281 0.0000
vn 0.0009 -1.0000 0.0000
vn -0.5599 -0.8286 0.0000
vn 0.5591 -0.8291 0.0000
vn -0.0037 -1.0000 0.0000
vn -0.5621 -0.8270 0.0000
vn 0.8287 -0.5597 0.0000
vn 0.5597 0.8287 0.0000
vn -0.3573 0.5285 -0.7701
vn -0.0005 0.3503 -0.9366
vn 0.3567 0.5293 -0.7697
vn -0.3573 0.5284 -0.7701
vn -0.4048 -0.2738 -0.8724
vn 0.3576 -0.5281 -0.7702
vn 0.0003 -0.3488 -0.9372
vn -0.3572 -0.5286 -0.7700
vn 0.3569 -0.5292 -0.7698
vn -0.0013 -0.3481 -0.9374
vn -0.3583 -0.5271 -0.7706
vn 0.4047 -0.2734 -0.8726
vn 0.3571 0.5288 -0.7700
usemtl None
s off
f 4//1 6//1 5//1
f 4//1 7//1 6//1
f 7//1 9//1 8//1
f 7//1 2//1 9//1
f 2//1 10//1 9//1
f 10//1 12//1 11//1
f 10//1 13//1 12//1
f 7//1 3//1 2//1
f 1//1 10//1 2//1
f 4//1 3//1 7//1
f 1//1 13//1 10//1
f 19//2 17//2 18//2
f 20//2 17//2 19//2
f 22//2 20//2 21//2
f 15//2 20//2 22//2
f 23//2 15//2 22//2
f 25//2 23//2 24//2
f 26//2 23//2 25//2
f 16//2 20//2 15//2
f 23//2 14//2 15//2
f 16//2 17//2 20//2
f 26//2 14//2 23//2
s 1
f 28//3 30//4 29//4 27//3
f 30//4 32//5 31//5 29//4
f 32//5 34//6 33//6 31//5
f 34//6 36//7 35//7 33//6
f 36//7 38//8 37//8 35//7
f 38//8 40//9 39//9 37//8
f 40//9 42//10 41//10 39//9
f 42//10 44//11 43//11 41//10
f 44//11 46//12 45//12 43//11
f 46//12 48//13 47//13 45//12
f 48//13 50//14 49//14 47//13
f 50//14 52//15 51//15 49//14
f 52//15 28//3 27//3 51//15
f 54//16 56//17 55//17 53//16
f 56//17 58//18 57//18 55//17
f 58//18 60//19 59//19 57//18
f 60//19 62//20 61//20 59//19
f 62//20 64//21 63//21 61//20
f 64//21 66//22 65//22 63//21
f 66//22 68//23 67//23 65//22
f 68//23 70//24 69//24 67//23
f 70//24 72//25 71//25 69//24
f 72//25 74//26 73//26 71//25
f 74//26 76//27 75//27 73//26
f 76//27 78//28 77//28 75//27
f 78//28 54//16 53//16 77//28
f 80//29 82//30 81//30 79//29
f 82//30 84//31 83//31 81//30
f 84//31 86//32 85//32 83//31
f 86//32 88//33 87//33 85//32
f 88//33 90//34 89//34 87//33
f 90//34 92//35 91//35 89//34
f 92//35 94//36 93//36 91//35
f 94//36 96//37 95//37 93//36
f 96//37 98//38 97//38 95//37
f 98//38 100//39 99//39 97//38
f 100//39 102//40 101//40 99//39
f 102//40 104//41 103//41 101//40
f 104//41 80//29 79//29 103//41
