# Blender v2.79 (sub 0) OBJ File: 'unicode_to_obj.blend'
# www.blender.org
mtllib 0058.mtl
o Text_CUText.1001
v 0.706000 -0.000000 -0.060000
v 0.588000 -0.000000 -0.060000
v 0.356000 -0.282000 -0.060000
v 0.121000 -0.000000 -0.060000
v 0.002000 -0.000000 -0.060000
v 0.296000 -0.353000 -0.060000
v 0.023000 -0.682000 -0.060000
v 0.142000 -0.682000 -0.060000
v 0.356000 -0.422000 -0.060000
v 0.569000 -0.682000 -0.060000
v 0.687000 -0.682000 -0.060000
v 0.415000 -0.353000 -0.060000
v 0.706000 -0.000000 0.060000
v 0.588000 -0.000000 0.060000
v 0.356000 -0.282000 0.060000
v 0.121000 -0.000000 0.060000
v 0.002000 -0.000000 0.060000
v 0.296000 -0.353000 0.060000
v 0.023000 -0.682000 0.060000
v 0.142000 -0.682000 0.060000
v 0.356000 -0.422000 0.060000
v 0.569000 -0.682000 0.060000
v 0.687000 -0.682000 0.060000
v 0.415000 -0.353000 0.060000
v 0.706000 -0.000000 0.060000
v 0.748407 0.020000 0.040000
v 0.588000 -0.000000 0.060000
v 0.578555 0.020000 0.040000
v 0.356000 -0.282000 0.060000
v 0.355901 -0.250640 0.040000
v 0.121000 -0.000000 0.060000
v 0.130368 0.020000 0.040000
v 0.002000 -0.000000 0.060000
v -0.040685 0.020000 0.040000
v 0.296000 -0.353000 0.060000
v 0.269992 -0.353024 0.040000
v 0.023000 -0.682000 0.060000
v -0.019585 -0.702000 0.040000
v 0.142000 -0.682000 0.060000
v 0.151442 -0.702000 0.040000
v 0.356000 -0.422000 0.060000
v 0.355964 -0.453515 0.040000
v 0.569000 -0.682000 0.060000
v 0.559530 -0.702000 0.040000
v 0.687000 -0.682000 0.060000
v 0.729485 -0.702000 0.040000
v 0.415000 -0.353000 0.060000
v 0.440935 -0.352982 0.040000
v 0.748407 0.020000 0.040000
v 0.748407 0.020000 -0.040000
v 0.578555 0.020000 0.040000
v 0.578555 0.020000 -0.040000
v 0.355901 -0.250640 0.040000
v 0.355901 -0.250640 -0.040000
v 0.130368 0.020000 0.040000
v 0.130368 0.020000 -0.040000
v -0.040685 0.020000 0.040000
v -0.040685 0.020000 -0.040000
v 0.269992 -0.353024 0.040000
v 0.269992 -0.353024 -0.040000
v -0.019585 -0.702000 0.040000
v -0.019585 -0.702000 -0.040000
v 0.151442 -0.702000 0.040000
v 0.151442 -0.702000 -0.040000
v 0.355964 -0.453515 0.040000
v 0.355964 -0.453515 -0.040000
v 0.559530 -0.702000 0.040000
v 0.559530 -0.702000 -0.040000
v 0.729485 -0.702000 0.040000
v 0.729485 -0.702000 -0.040000
v 0.440935 -0.352982 0.040000
v 0.440935 -0.352982 -0.040000
v 0.748407 0.020000 -0.040000
v 0.706000 -0.000000 -0.060000
v 0.578555 0.020000 -0.040000
v 0.588000 -0.000000 -0.060000
v 0.355901 -0.250640 -0.040000
v 0.356000 -0.282000 -0.060000
v 0.130368 0.020000 -0.040000
v 0.121000 -0.000000 -0.060000
v -0.040685 0.020000 -0.040000
v 0.002000 -0.000000 -0.060000
v 0.269992 -0.353024 -0.040000
v 0.296000 -0.353000 -0.060000
v -0.019585 -0.702000 -0.040000
v 0.023000 -0.682000 -0.060000
v 0.151442 -0.702000 -0.040000
v 0.142000 -0.682000 -0.060000
v 0.355964 -0.453515 -0.040000
v 0.356000 -0.422000 -0.060000
v 0.559530 -0.702000 -0.040000
v 0.569000 -0.682000 -0.060000
v 0.729485 -0.702000 -0.040000
v 0.687000 -0.682000 -0.060000
v 0.440935 -0.352982 -0.040000
v 0.415000 -0.353000 -0.060000
vn 0.0000 0.0000 -1.0000
vn 0.0000 0.0000 1.0000
vn 0.3549 0.1674 0.9198
vn -0.2864 0.6065 0.7417
vn -0.0017 0.5377 0.8431
vn 0.2847 0.6079 0.7412
vn -0.3537 0.1657 0.9206
vn -0.6096 -0.0005 0.7927
vn -0.3541 -0.1663 0.9203
vn 0.2863 -0.6065 0.7417
vn -0.0006 -0.5358 0.8443
vn -0.2869 -0.6060 0.7419
vn 0.3545 -0.1669 0.9200
vn 0.6106 0.0004 0.7919
vn 0.9044 0.4266 0.0000
vn -0.4270 0.9042 0.0000
vn -0.0031 1.0000 0.0000
vn 0.4241 0.9056 0.0000
vn -0.9055 0.4243 0.0000
vn -1.0000 -0.0009 0.0000
vn -0.9051 -0.4251 0.0000
vn 0.4269 -0.9043 0.0000
vn -0.0011 -1.0000 0.0000
vn -0.4279 -0.9038 0.0000
vn 0.9048 -0.4259 0.0000
vn 1.0000 0.0007 0.0000
vn 0.3549 0.1674 -0.9198
vn -0.2864 0.6065 -0.7417
vn -0.0017 0.5377 -0.8431
vn 0.2847 0.6079 -0.7412
vn -0.3537 0.1657 -0.9206
vn -0.6096 -0.0005 -0.7927
vn -0.3541 -0.1663 -0.9203
vn 0.2863 -0.6065 -0.7417
vn -0.0006 -0.5358 -0.8443
vn -0.2869 -0.6060 -0.7419
vn 0.3545 -0.1669 -0.9200
vn 0.6106 0.0004 -0.7919
usemtl None
s off
f 6//1 8//1 7//1
f 6//1 9//1 8//1
f 9//1 11//1 10//1
f 9//1 12//1 11//1
f 6//1 12//1 9//1
f 5//1 12//1 6//1
f 5//1 3//1 12//1
f 3//1 1//1 12//1
f 5//1 4//1 3//1
f 2//1 1//1 3//1
f 20//2 18//2 19//2
f 21//2 18//2 20//2
f 23//2 21//2 22//2
f 24//2 21//2 23//2
f 24//2 18//2 21//2
f 24//2 17//2 18//2
f 15//2 17//2 24//2
f 13//2 15//2 24//2
f 16//2 17//2 15//2
f 13//2 14//2 15//2
s 1
f 26//3 28//4 27//4 25//3
f 28//4 30//5 29//5 27//4
f 30//5 32//6 31//6 29//5
f 32//6 34//7 33//7 31//6
f 34//7 36//8 35//8 33//7
f 36//8 38//9 37//9 35//8
f 38//9 40//10 39//10 37//9
f 40//10 42//11 41//11 39//10
f 42//11 44//12 43//12 41//11
f 44//12 46//13 45//13 43//12
f 46//13 48//14 47//14 45//13
f 48//14 26//3 25//3 47//14
f 50//15 52//16 51//16 49//15
f 52//16 54//17 53//17 51//16
f 54//17 56//18 55//18 53//17
f 56//18 58//19 57//19 55//18
f 58//19 60//20 59//20 57//19
f 60//20 62//21 61//21 59//20
f 62//21 64//22 63//22 61//21
f 64//22 66//23 65//23 63//22
f 66//23 68//24 67//24 65//23
f 68//24 70//25 69//25 67//24
f 70//25 72//26 71//26 69//25
f 72//26 50//15 49//15 71//26
f 74//27 76//28 75//28 73//27
f 76//28 78//29 77//29 75//28
f 78//29 80//30 79//30 77//29
f 80//30 82//31 81//31 79//30
f 82//31 84//32 83//32 81//31
f 84//32 86//33 85//33 83//32
f 86//33 88//34 87//34 85//33
f 88//34 90//35 89//35 87//34
f 90//35 92//36 91//36 89//35
f 92//36 94//37 93//37 91//36
f 94//37 96//38 95//38 93//37
f 96//38 74//27 73//27 95//38
