# Blender v2.79 (sub 0) OBJ File: 'unicode_to_obj.blend'
# www.blender.org
mtllib 005B.mtl
o Text_CUText.1004
v 0.182000 -0.602000 -0.060000
v 0.182000 0.141000 -0.060000
v 0.319000 0.141000 -0.060000
v 0.319000 0.221000 -0.060000
v 0.086000 0.221000 -0.060000
v 0.086000 -0.682000 -0.060000
v 0.319000 -0.682000 -0.060000
v 0.319000 -0.602000 -0.060000
v 0.182000 -0.602000 0.060000
v 0.182000 0.141000 0.060000
v 0.319000 0.141000 0.060000
v 0.319000 0.221000 0.060000
v 0.086000 0.221000 0.060000
v 0.086000 -0.682000 0.060000
v 0.319000 -0.682000 0.060000
v 0.319000 -0.602000 0.060000
v 0.182000 -0.602000 0.060000
v 0.202000 -0.582000 0.040000
v 0.182000 0.141000 0.060000
v 0.202000 0.121000 0.040000
v 0.319000 0.141000 0.060000
v 0.339000 0.121000 0.040000
v 0.319000 0.221000 0.060000
v 0.339000 0.241000 0.040000
v 0.086000 0.221000 0.060000
v 0.066000 0.241000 0.040000
v 0.086000 -0.682000 0.060000
v 0.066000 -0.702000 0.040000
v 0.319000 -0.682000 0.060000
v 0.339000 -0.702000 0.040000
v 0.319000 -0.602000 0.060000
v 0.339000 -0.582000 0.040000
v 0.202000 -0.582000 0.040000
v 0.202000 -0.582000 -0.040000
v 0.202000 0.121000 0.040000
v 0.202000 0.121000 -0.040000
v 0.339000 0.121000 0.040000
v 0.339000 0.121000 -0.040000
v 0.339000 0.241000 0.040000
v 0.339000 0.241000 -0.040000
v 0.066000 0.241000 0.040000
v 0.066000 0.241000 -0.040000
v 0.066000 -0.702000 0.040000
v 0.066000 -0.702000 -0.040000
v 0.339000 -0.702000 0.040000
v 0.339000 -0.702000 -0.040000
v 0.339000 -0.582000 0.040000
v 0.339000 -0.582000 -0.040000
v 0.202000 -0.582000 -0.040000
v 0.182000 -0.602000 -0.060000
v 0.202000 0.121000 -0.040000
v 0.182000 0.141000 -0.060000
v 0.339000 0.121000 -0.040000
v 0.319000 0.141000 -0.060000
v 0.339000 0.241000 -0.040000
v 0.319000 0.221000 -0.060000
v 0.066000 0.241000 -0.040000
v 0.086000 0.221000 -0.060000
v 0.066000 -0.702000 -0.040000
v 0.086000 -0.682000 -0.060000
v 0.339000 -0.702000 -0.040000
v 0.319000 -0.682000 -0.060000
v 0.339000 -0.582000 -0.040000
v 0.319000 -0.602000 -0.060000
vn 0.0000 0.0000 -1.0000
vn 0.0000 0.0000 1.0000
vn 0.4082 0.4082 0.8165
vn 0.4082 -0.4082 0.8165
vn -0.4082 0.4082 0.8165
vn -0.4082 -0.4082 0.8165
vn 0.7071 0.7071 0.0000
vn 0.7071 -0.7071 0.0000
vn -0.7071 0.7071 0.0000
vn -0.7071 -0.7071 0.0000
vn 0.4082 0.4082 -0.8165
vn 0.4082 -0.4082 -0.8165
vn -0.4082 0.4082 -0.8165
vn -0.4082 -0.4082 -0.8165
usemtl None
s off
f 5//1 1//1 6//1
f 1//1 7//1 6//1
f 1//1 8//1 7//1
f 5//1 2//1 1//1
f 5//1 3//1 2//1
f 5//1 4//1 3//1
f 9//2 13//2 14//2
f 15//2 9//2 14//2
f 16//2 9//2 15//2
f 10//2 13//2 9//2
f 11//2 13//2 10//2
f 12//2 13//2 11//2
s 1
f 18//3 20//4 19//4 17//3
f 20//4 22//4 21//4 19//4
f 22//4 24//3 23//3 21//4
f 24//3 26//5 25//5 23//3
f 26//5 28//6 27//6 25//5
f 28//6 30//4 29//4 27//6
f 30//4 32//3 31//3 29//4
f 32//3 18//3 17//3 31//3
f 34//7 36//8 35//8 33//7
f 36//8 38//8 37//8 35//8
f 38//8 40//7 39//7 37//8
f 40//7 42//9 41//9 39//7
f 42//9 44//10 43//10 41//9
f 44//10 46//8 45//8 43//10
f 46//8 48//7 47//7 45//8
f 48//7 34//7 33//7 47//7
f 50//11 52//12 51//12 49//11
f 52//12 54//12 53//12 51//12
f 54//12 56//11 55//11 53//12
f 56//11 58//13 57//13 55//11
f 58//13 60//14 59//14 57//13
f 60//14 62//12 61//12 59//14
f 62//12 64//11 63//11 61//12
f 64//11 50//11 49//11 63//11
