# Blender v2.79 (sub 0) OBJ File: 'unicode_to_obj.blend'
# www.blender.org
mtllib 005E.mtl
o Text_CUText.1007
v 0.199000 -0.682000 -0.060000
v 0.270000 -0.682000 -0.060000
v 0.443000 -0.291000 -0.060000
v 0.354000 -0.291000 -0.060000
v 0.234000 -0.583000 -0.060000
v 0.116000 -0.291000 -0.060000
v 0.026000 -0.291000 -0.060000
v 0.199000 -0.682000 0.060000
v 0.270000 -0.682000 0.060000
v 0.443000 -0.291000 0.060000
v 0.354000 -0.291000 0.060000
v 0.234000 -0.583000 0.060000
v 0.116000 -0.291000 0.060000
v 0.026000 -0.291000 0.060000
v 0.199000 -0.682000 0.060000
v 0.185979 -0.702000 0.040000
v 0.270000 -0.682000 0.060000
v 0.283021 -0.702000 0.040000
v 0.443000 -0.291000 0.060000
v 0.473719 -0.271000 0.040000
v 0.354000 -0.291000 0.060000
v 0.340596 -0.271000 0.040000
v 0.234000 -0.583000 0.060000
v 0.234156 -0.530005 0.040000
v 0.116000 -0.291000 0.060000
v 0.129489 -0.271000 0.040000
v 0.026000 -0.291000 0.060000
v -0.004719 -0.271000 0.040000
v 0.185979 -0.702000 0.040000
v 0.185979 -0.702000 -0.040000
v 0.283021 -0.702000 0.040000
v 0.283021 -0.702000 -0.040000
v 0.473719 -0.271000 0.040000
v 0.473719 -0.271000 -0.040000
v 0.340596 -0.271000 0.040000
v 0.340596 -0.271000 -0.040000
v 0.234156 -0.530005 0.040000
v 0.234156 -0.530005 -0.040000
v 0.129489 -0.271000 0.040000
v 0.129489 -0.271000 -0.040000
v -0.004719 -0.271000 0.040000
v -0.004719 -0.271000 -0.040000
v 0.185979 -0.702000 -0.040000
v 0.199000 -0.682000 -0.060000
v 0.283021 -0.702000 -0.040000
v 0.270000 -0.682000 -0.060000
v 0.473719 -0.271000 -0.040000
v 0.443000 -0.291000 -0.060000
v 0.340596 -0.271000 -0.040000
v 0.354000 -0.291000 -0.060000
v 0.234156 -0.530005 -0.040000
v 0.234000 -0.583000 -0.060000
v 0.129489 -0.271000 -0.040000
v 0.116000 -0.291000 -0.060000
v -0.004719 -0.271000 -0.040000
v 0.026000 -0.291000 -0.060000
vn 0.0000 0.0000 -1.0000
vn 0.0000 0.0000 1.0000
vn -0.3504 -0.5383 0.7664
vn 0.3504 -0.5383 0.7664
vn 0.4014 0.2613 0.8778
vn -0.3557 0.5308 0.7692
vn 0.0010 0.3531 0.9356
vn 0.3569 0.5291 0.7698
vn -0.4014 0.2613 0.8778
vn -0.5456 -0.8380 0.0000
vn 0.5456 -0.8380 0.0000
vn 0.8380 0.5456 0.0000
vn -0.5567 0.8307 0.0000
vn 0.0029 1.0000 0.0000
vn 0.5592 0.8290 0.0000
vn -0.8380 0.5456 0.0000
vn -0.3504 -0.5383 -0.7664
vn 0.3504 -0.5383 -0.7664
vn 0.4014 0.2613 -0.8778
vn -0.3557 0.5308 -0.7692
vn 0.0010 0.3531 -0.9356
vn 0.3569 0.5291 -0.7698
vn -0.4014 0.2613 -0.8778
usemtl None
s off
f 7//1 2//1 1//1
f 7//1 5//1 2//1
f 5//1 3//1 2//1
f 7//1 6//1 5//1
f 4//1 3//1 5//1
f 9//2 14//2 8//2
f 12//2 14//2 9//2
f 10//2 12//2 9//2
f 13//2 14//2 12//2
f 10//2 11//2 12//2
s 1
f 16//3 18//4 17//4 15//3
f 18//4 20//5 19//5 17//4
f 20//5 22//6 21//6 19//5
f 22//6 24//7 23//7 21//6
f 24//7 26//8 25//8 23//7
f 26//8 28//9 27//9 25//8
f 28//9 16//3 15//3 27//9
f 30//10 32//11 31//11 29//10
f 32//11 34//12 33//12 31//11
f 34//12 36//13 35//13 33//12
f 36//13 38//14 37//14 35//13
f 38//14 40//15 39//15 37//14
f 40//15 42//16 41//16 39//15
f 42//16 30//10 29//10 41//16
f 44//17 46//18 45//18 43//17
f 46//18 48//19 47//19 45//18
f 48//19 50//20 49//20 47//19
f 50//20 52//21 51//21 49//20
f 52//21 54//22 53//22 51//21
f 54//22 56//23 55//23 53//22
f 56//23 44//17 43//17 55//23
