# Blender v2.79 (sub 0) OBJ File: 'unicode_to_obj.blend'
# www.blender.org
mtllib 005F.mtl
o Text_CUText.1008
v 0.506000 0.125000 -0.060000
v -0.006000 0.125000 -0.060000
v -0.006000 0.075000 -0.060000
v 0.506000 0.075000 -0.060000
v 0.506000 0.125000 0.060000
v -0.006000 0.125000 0.060000
v -0.006000 0.075000 0.060000
v 0.506000 0.075000 0.060000
v 0.506000 0.125000 0.060000
v 0.526000 0.145000 0.040000
v -0.006000 0.125000 0.060000
v -0.026000 0.145000 0.040000
v -0.006000 0.075000 0.060000
v -0.026000 0.055000 0.040000
v 0.506000 0.075000 0.060000
v 0.526000 0.055000 0.040000
v 0.526000 0.145000 0.040000
v 0.526000 0.145000 -0.040000
v -0.026000 0.145000 0.040000
v -0.026000 0.145000 -0.040000
v -0.026000 0.055000 0.040000
v -0.026000 0.055000 -0.040000
v 0.526000 0.055000 0.040000
v 0.526000 0.055000 -0.040000
v 0.526000 0.145000 -0.040000
v 0.506000 0.125000 -0.060000
v -0.026000 0.145000 -0.040000
v -0.006000 0.125000 -0.060000
v -0.026000 0.055000 -0.040000
v -0.006000 0.075000 -0.060000
v 0.526000 0.055000 -0.040000
v 0.506000 0.075000 -0.060000
vn 0.0000 0.0000 -1.0000
vn 0.0000 0.0000 1.0000
vn 0.4082 0.4082 0.8165
vn -0.4082 0.4082 0.8165
vn -0.4082 -0.4082 0.8165
vn 0.4082 -0.4082 0.8165
vn 0.7071 0.7071 0.0000
vn -0.7071 0.7071 0.0000
vn -0.7071 -0.7071 0.0000
vn 0.7071 -0.7071 0.0000
vn 0.4082 0.4082 -0.8165
vn -0.4082 0.4082 -0.8165
vn -0.4082 -0.4082 -0.8165
vn 0.4082 -0.4082 -0.8165
usemtl None
s off
f 2//1 4//1 3//1
f 2//1 1//1 4//1
f 8//2 6//2 7//2
f 5//2 6//2 8//2
s 1
f 10//3 12//4 11//4 9//3
f 12//4 14//5 13//5 11//4
f 14//5 16//6 15//6 13//5
f 16//6 10//3 9//3 15//6
f 18//7 20//8 19//8 17//7
f 20//8 22//9 21//9 19//8
f 22//9 24//10 23//10 21//9
f 24//10 18//7 17//7 23//10
f 26//11 28//12 27//12 25//11
f 28//12 30//13 29//13 27//12
f 30//13 32//14 31//14 29//13
f 32//14 26//11 25//11 31//14
