# Blender v2.79 (sub 0) OBJ File: 'unicode_to_obj.blend'
# www.blender.org
mtllib 0060.mtl
o Text_CUText.1009
v 0.172000 -0.507000 -0.060000
v 0.060000 -0.654000 -0.060000
v 0.160000 -0.654000 -0.060000
v 0.227000 -0.507000 -0.060000
v 0.172000 -0.507000 0.060000
v 0.060000 -0.654000 0.060000
v 0.160000 -0.654000 0.060000
v 0.227000 -0.507000 0.060000
v 0.172000 -0.507000 0.060000
v 0.162095 -0.487000 0.040000
v 0.060000 -0.654000 0.060000
v 0.019618 -0.674000 0.040000
v 0.160000 -0.654000 0.060000
v 0.172864 -0.674000 0.040000
v 0.227000 -0.507000 0.060000
v 0.258095 -0.487000 0.040000
v 0.162095 -0.487000 0.040000
v 0.162095 -0.487000 -0.040000
v 0.019618 -0.674000 0.040000
v 0.019618 -0.674000 -0.040000
v 0.172864 -0.674000 0.040000
v 0.172864 -0.674000 -0.040000
v 0.258095 -0.487000 0.040000
v 0.258095 -0.487000 -0.040000
v 0.162095 -0.487000 -0.040000
v 0.172000 -0.507000 -0.060000
v 0.019618 -0.674000 -0.040000
v 0.060000 -0.654000 -0.060000
v 0.172864 -0.674000 -0.040000
v 0.160000 -0.654000 -0.060000
v 0.258095 -0.487000 -0.040000
v 0.227000 -0.507000 -0.060000
vn 0.0000 0.0000 -1.0000
vn 0.0000 0.0000 1.0000
vn -0.2962 0.5980 0.7447
vn -0.3635 -0.1800 0.9140
vn 0.3482 -0.5413 0.7653
vn 0.4002 0.2574 0.8795
vn -0.4438 0.8961 0.0000
vn -0.8961 -0.4438 0.0000
vn 0.5409 -0.8410 0.0000
vn 0.8410 0.5409 0.0000
vn -0.2962 0.5980 -0.7447
vn -0.3635 -0.1800 -0.9140
vn 0.3482 -0.5413 -0.7653
vn 0.4002 0.2574 -0.8795
usemtl None
s off
f 1//1 3//1 2//1
f 1//1 4//1 3//1
f 7//2 5//2 6//2
f 8//2 5//2 7//2
s 1
f 10//3 12//4 11//4 9//3
f 12//4 14//5 13//5 11//4
f 14//5 16//6 15//6 13//5
f 16//6 10//3 9//3 15//6
f 18//7 20//8 19//8 17//7
f 20//8 22//9 21//9 19//8
f 22//9 24//10 23//10 21//9
f 24//10 18//7 17//7 23//10
f 26//11 28//12 27//12 25//11
f 28//12 30//13 29//13 27//12
f 30//13 32//14 31//14 29//13
f 32//14 26//11 25//11 31//14
