# Blender v2.79 (sub 0) OBJ File: 'unicode_to_obj.blend'
# www.blender.org
mtllib 006B.mtl
o Text_CUText.1020
v 0.500000 -0.000000 -0.060000
v 0.380000 -0.000000 -0.060000
v 0.155000 -0.229000 -0.060000
v 0.354000 -0.449000 -0.060000
v 0.460000 -0.449000 -0.060000
v 0.268000 -0.229000 -0.060000
v 0.062000 -0.000000 -0.060000
v 0.062000 -0.682000 -0.060000
v 0.151000 -0.682000 -0.060000
v 0.151000 -0.000000 -0.060000
v 0.500000 -0.000000 0.060000
v 0.380000 -0.000000 0.060000
v 0.155000 -0.229000 0.060000
v 0.354000 -0.449000 0.060000
v 0.460000 -0.449000 0.060000
v 0.268000 -0.229000 0.060000
v 0.062000 -0.000000 0.060000
v 0.062000 -0.682000 0.060000
v 0.151000 -0.682000 0.060000
v 0.151000 -0.000000 0.060000
v 0.500000 -0.000000 0.060000
v 0.548732 0.020000 0.040000
v 0.380000 -0.000000 0.060000
v 0.371612 0.020000 0.040000
v 0.155000 -0.229000 0.060000
v 0.127519 -0.228433 0.040000
v 0.354000 -0.449000 0.060000
v 0.345123 -0.469000 0.040000
v 0.460000 -0.449000 0.060000
v 0.504000 -0.469000 0.040000
v 0.268000 -0.229000 0.060000
v 0.295436 -0.230021 0.040000
v 0.548732 0.020000 0.040000
v 0.548732 0.020000 -0.040000
v 0.371612 0.020000 0.040000
v 0.371612 0.020000 -0.040000
v 0.127519 -0.228433 0.040000
v 0.127519 -0.228433 -0.040000
v 0.345123 -0.469000 0.040000
v 0.345123 -0.469000 -0.040000
v 0.504000 -0.469000 0.040000
v 0.504000 -0.469000 -0.040000
v 0.295436 -0.230021 0.040000
v 0.295436 -0.230021 -0.040000
v 0.548732 0.020000 -0.040000
v 0.500000 -0.000000 -0.060000
v 0.371612 0.020000 -0.040000
v 0.380000 -0.000000 -0.060000
v 0.127519 -0.228433 -0.040000
v 0.155000 -0.229000 -0.060000
v 0.345123 -0.469000 -0.040000
v 0.354000 -0.449000 -0.060000
v 0.504000 -0.469000 -0.040000
v 0.460000 -0.449000 -0.060000
v 0.295436 -0.230021 -0.040000
v 0.268000 -0.229000 -0.060000
v 0.062000 -0.000000 0.060000
v 0.042000 0.020000 0.040000
v 0.062000 -0.682000 0.060000
v 0.042000 -0.702000 0.040000
v 0.151000 -0.682000 0.060000
v 0.171000 -0.702000 0.040000
v 0.151000 -0.000000 0.060000
v 0.171000 0.020000 0.040000
v 0.042000 0.020000 0.040000
v 0.042000 0.020000 -0.040000
v 0.042000 -0.702000 0.040000
v 0.042000 -0.702000 -0.040000
v 0.171000 -0.702000 0.040000
v 0.171000 -0.702000 -0.040000
v 0.171000 0.020000 0.040000
v 0.171000 0.020000 -0.040000
v 0.042000 0.020000 -0.040000
v 0.062000 -0.000000 -0.060000
v 0.042000 -0.702000 -0.040000
v 0.062000 -0.682000 -0.060000
v 0.171000 -0.702000 -0.040000
v 0.151000 -0.682000 -0.060000
v 0.171000 0.020000 -0.040000
v 0.151000 -0.000000 -0.060000
vn 0.0000 0.0000 -1.0000
vn 0.0000 0.0000 1.0000
vn 0.3283 0.1347 0.9349
vn -0.2622 0.6252 0.7351
vn -0.5882 0.0121 0.8086
vn -0.2737 -0.6166 0.7381
vn 0.3481 -0.1582 0.9240
vn 0.5884 -0.0219 0.8083
vn 0.9251 0.3797 0.0000
vn -0.3867 0.9222 0.0000
vn -0.9998 0.0206 0.0000
vn -0.4057 -0.9140 0.0000
vn 0.9103 -0.4138 0.0000
vn 0.9993 -0.0372 0.0000
vn 0.3283 0.1347 -0.9349
vn -0.2622 0.6252 -0.7351
vn -0.5882 0.0121 -0.8086
vn -0.2737 -0.6166 -0.7381
vn 0.3481 -0.1582 -0.9240
vn 0.5884 -0.0219 -0.8083
vn -0.4082 0.4082 0.8165
vn -0.4082 -0.4082 0.8165
vn 0.4082 -0.4082 0.8165
vn 0.4082 0.4082 0.8165
vn -0.7071 0.7071 0.0000
vn -0.7071 -0.7071 0.0000
vn 0.7071 -0.7071 0.0000
vn 0.7071 0.7071 0.0000
vn -0.4082 0.4082 -0.8165
vn -0.4082 -0.4082 -0.8165
vn 0.4082 -0.4082 -0.8165
vn 0.4082 0.4082 -0.8165
usemtl None
s off
f 7//1 9//1 8//1
f 7//1 10//1 9//1
f 3//1 5//1 4//1
f 3//1 6//1 5//1
f 2//1 6//1 3//1
f 2//1 1//1 6//1
f 19//2 17//2 18//2
f 20//2 17//2 19//2
f 15//2 13//2 14//2
f 16//2 13//2 15//2
f 16//2 12//2 13//2
f 11//2 12//2 16//2
s 1
f 22//3 24//4 23//4 21//3
f 24//4 26//5 25//5 23//4
f 26//5 28//6 27//6 25//5
f 28//6 30//7 29//7 27//6
f 30//7 32//8 31//8 29//7
f 32//8 22//3 21//3 31//8
f 34//9 36//10 35//10 33//9
f 36//10 38//11 37//11 35//10
f 38//11 40//12 39//12 37//11
f 40//12 42//13 41//13 39//12
f 42//13 44//14 43//14 41//13
f 44//14 34//9 33//9 43//14
f 46//15 48//16 47//16 45//15
f 48//16 50//17 49//17 47//16
f 50//17 52//18 51//18 49//17
f 52//18 54//19 53//19 51//18
f 54//19 56//20 55//20 53//19
f 56//20 46//15 45//15 55//20
f 58//21 60//22 59//22 57//21
f 60//22 62//23 61//23 59//22
f 62//23 64//24 63//24 61//23
f 64//24 58//21 57//21 63//24
f 66//25 68//26 67//26 65//25
f 68//26 70//27 69//27 67//26
f 70//27 72//28 71//28 69//27
f 72//28 66//25 65//25 71//28
f 74//29 76//30 75//30 73//29
f 76//30 78//31 77//31 75//30
f 78//31 80//32 79//32 77//31
f 80//32 74//29 73//29 79//32
