# Blender v2.79 (sub 0) OBJ File: 'unicode_to_obj.blend'
# www.blender.org
mtllib 0078.mtl
o Text_CUText.1033
v 0.500000 -0.000000 -0.060000
v 0.386000 -0.000000 -0.060000
v 0.245000 -0.161000 -0.060000
v 0.112000 -0.000000 -0.060000
v 0.000000 -0.000000 -0.060000
v 0.189000 -0.228000 -0.060000
v 0.000000 -0.449000 -0.060000
v 0.112000 -0.449000 -0.060000
v 0.245000 -0.295000 -0.060000
v 0.373000 -0.449000 -0.060000
v 0.487000 -0.449000 -0.060000
v 0.302000 -0.228000 -0.060000
v 0.500000 -0.000000 0.060000
v 0.386000 -0.000000 0.060000
v 0.245000 -0.161000 0.060000
v 0.112000 -0.000000 0.060000
v 0.000000 -0.000000 0.060000
v 0.189000 -0.228000 0.060000
v 0.000000 -0.449000 0.060000
v 0.112000 -0.449000 0.060000
v 0.245000 -0.295000 0.060000
v 0.373000 -0.449000 0.060000
v 0.487000 -0.449000 0.060000
v 0.302000 -0.228000 0.060000
v 0.500000 -0.000000 0.060000
v 0.543857 0.020000 0.040000
v 0.386000 -0.000000 0.060000
v 0.376930 0.020000 0.040000
v 0.245000 -0.161000 0.060000
v 0.245445 -0.130135 0.040000
v 0.112000 -0.000000 0.060000
v 0.121420 0.020000 0.040000
v 0.000000 -0.000000 0.060000
v -0.042557 0.020000 0.040000
v 0.189000 -0.228000 0.060000
v 0.162855 -0.227799 0.040000
v 0.000000 -0.449000 0.060000
v -0.043420 -0.469000 0.040000
v 0.112000 -0.449000 0.060000
v 0.121154 -0.469000 0.040000
v 0.245000 -0.295000 0.060000
v 0.244708 -0.325937 0.040000
v 0.373000 -0.449000 0.060000
v 0.363617 -0.469000 0.040000
v 0.487000 -0.449000 0.060000
v 0.529825 -0.469000 0.040000
v 0.302000 -0.228000 0.060000
v 0.328282 -0.228238 0.040000
v 0.543857 0.020000 0.040000
v 0.543857 0.020000 -0.040000
v 0.376930 0.020000 0.040000
v 0.376930 0.020000 -0.040000
v 0.245445 -0.130135 0.040000
v 0.245445 -0.130135 -0.040000
v 0.121420 0.020000 0.040000
v 0.121420 0.020000 -0.040000
v -0.042557 0.020000 0.040000
v -0.042557 0.020000 -0.040000
v 0.162855 -0.227799 0.040000
v 0.162855 -0.227799 -0.040000
v -0.043420 -0.469000 0.040000
v -0.043420 -0.469000 -0.040000
v 0.121154 -0.469000 0.040000
v 0.121154 -0.469000 -0.040000
v 0.244708 -0.325937 0.040000
v 0.244708 -0.325937 -0.040000
v 0.363617 -0.469000 0.040000
v 0.363617 -0.469000 -0.040000
v 0.529825 -0.469000 0.040000
v 0.529825 -0.469000 -0.040000
v 0.328282 -0.228238 0.040000
v 0.328282 -0.228238 -0.040000
v 0.543857 0.020000 -0.040000
v 0.500000 -0.000000 -0.060000
v 0.376930 0.020000 -0.040000
v 0.386000 -0.000000 -0.060000
v 0.245445 -0.130135 -0.040000
v 0.245000 -0.161000 -0.060000
v 0.121420 0.020000 -0.040000
v 0.112000 -0.000000 -0.060000
v -0.042557 0.020000 -0.040000
v 0.000000 -0.000000 -0.060000
v 0.162855 -0.227799 -0.040000
v 0.189000 -0.228000 -0.060000
v -0.043420 -0.469000 -0.040000
v 0.000000 -0.449000 -0.060000
v 0.121154 -0.469000 -0.040000
v 0.112000 -0.449000 -0.060000
v 0.244708 -0.325937 -0.040000
v 0.245000 -0.295000 -0.060000
v 0.363617 -0.469000 -0.040000
v 0.373000 -0.449000 -0.060000
v 0.529825 -0.469000 -0.040000
v 0.487000 -0.449000 -0.060000
v 0.328282 -0.228238 -0.040000
v 0.302000 -0.228000 -0.060000
vn 0.0000 0.0000 -1.0000
vn 0.0000 0.0000 1.0000
vn 0.3487 0.1590 0.9236
vn -0.2781 0.6132 0.7393
vn 0.0078 0.5437 0.8392
vn 0.2858 0.6069 0.7415
vn -0.3542 0.1664 0.9202
vn -0.6075 0.0046 0.7942
vn -0.3505 -0.1614 0.9225
vn 0.2799 -0.6117 0.7399
vn -0.0051 -0.5428 0.8398
vn -0.2850 -0.6076 0.7413
vn 0.3531 -0.1649 0.9209
vn 0.6055 -0.0055 0.7958
vn 0.9098 0.4149 0.0000
vn -0.4130 0.9107 0.0000
vn 0.0144 0.9999 0.0000
vn 0.4261 0.9047 0.0000
vn -0.9050 0.4253 0.0000
vn -1.0000 0.0077 0.0000
vn -0.9083 -0.4183 0.0000
vn 0.4162 -0.9093 0.0000
vn -0.0094 -0.9999 0.0000
vn -0.4247 -0.9053 0.0000
vn 0.9060 -0.4231 0.0000
vn 0.9999 -0.0091 0.0000
vn 0.3487 0.1590 -0.9236
vn -0.2781 0.6132 -0.7393
vn 0.0078 0.5437 -0.8392
vn 0.2858 0.6069 -0.7415
vn -0.3542 0.1664 -0.9202
vn -0.6075 0.0046 -0.7942
vn -0.3505 -0.1614 -0.9225
vn 0.2799 -0.6117 -0.7399
vn -0.0051 -0.5428 -0.8398
vn -0.2850 -0.6076 -0.7413
vn 0.3531 -0.1649 -0.9209
vn 0.6055 -0.0055 -0.7958
usemtl None
s off
f 6//1 8//1 7//1
f 6//1 9//1 8//1
f 9//1 11//1 10//1
f 9//1 12//1 11//1
f 6//1 12//1 9//1
f 5//1 12//1 6//1
f 5//1 3//1 12//1
f 3//1 1//1 12//1
f 5//1 4//1 3//1
f 2//1 1//1 3//1
f 20//2 18//2 19//2
f 21//2 18//2 20//2
f 23//2 21//2 22//2
f 24//2 21//2 23//2
f 24//2 18//2 21//2
f 24//2 17//2 18//2
f 15//2 17//2 24//2
f 13//2 15//2 24//2
f 16//2 17//2 15//2
f 13//2 14//2 15//2
s 1
f 26//3 28//4 27//4 25//3
f 28//4 30//5 29//5 27//4
f 30//5 32//6 31//6 29//5
f 32//6 34//7 33//7 31//6
f 34//7 36//8 35//8 33//7
f 36//8 38//9 37//9 35//8
f 38//9 40//10 39//10 37//9
f 40//10 42//11 41//11 39//10
f 42//11 44//12 43//12 41//11
f 44//12 46//13 45//13 43//12
f 46//13 48//14 47//14 45//13
f 48//14 26//3 25//3 47//14
f 50//15 52//16 51//16 49//15
f 52//16 54//17 53//17 51//16
f 54//17 56//18 55//18 53//17
f 56//18 58//19 57//19 55//18
f 58//19 60//20 59//20 57//19
f 60//20 62//21 61//21 59//20
f 62//21 64//22 63//22 61//21
f 64//22 66//23 65//23 63//22
f 66//23 68//24 67//24 65//23
f 68//24 70//25 69//25 67//24
f 70//25 72//26 71//26 69//25
f 72//26 50//15 49//15 71//26
f 74//27 76//28 75//28 73//27
f 76//28 78//29 77//29 75//28
f 78//29 80//30 79//30 77//29
f 80//30 82//31 81//31 79//30
f 82//31 84//32 83//32 81//31
f 84//32 86//33 85//33 83//32
f 86//33 88//34 87//34 85//33
f 88//34 90//35 89//35 87//34
f 90//35 92//36 91//36 89//35
f 92//36 94//37 93//37 91//36
f 94//37 96//38 95//38 93//37
f 96//38 74//27 73//27 95//38
