# Blender v2.79 (sub 0) OBJ File: 'unicode_to_obj.blend'
# www.blender.org
mtllib 007A.mtl
o Text_CUText.1035
v 0.405000 -0.080000 -0.060000
v 0.405000 -0.000000 -0.060000
v 0.011000 -0.000000 -0.060000
v 0.249000 -0.369000 -0.060000
v 0.021000 -0.369000 -0.060000
v 0.021000 -0.449000 -0.060000
v 0.404000 -0.449000 -0.060000
v 0.165000 -0.080000 -0.060000
v 0.405000 -0.080000 0.060000
v 0.405000 -0.000000 0.060000
v 0.011000 -0.000000 0.060000
v 0.249000 -0.369000 0.060000
v 0.021000 -0.369000 0.060000
v 0.021000 -0.449000 0.060000
v 0.404000 -0.449000 0.060000
v 0.165000 -0.080000 0.060000
v 0.405000 -0.080000 0.060000
v 0.425000 -0.100000 0.040000
v 0.405000 -0.000000 0.060000
v 0.425000 0.020000 0.040000
v 0.011000 -0.000000 0.060000
v -0.025699 0.020000 0.040000
v 0.249000 -0.369000 0.060000
v 0.212301 -0.349000 0.040000
v 0.021000 -0.369000 0.060000
v 0.001000 -0.349000 0.040000
v 0.021000 -0.449000 0.060000
v 0.001000 -0.469000 0.040000
v 0.404000 -0.449000 0.060000
v 0.440783 -0.469000 0.040000
v 0.165000 -0.080000 0.060000
v 0.201783 -0.100000 0.040000
v 0.425000 -0.100000 0.040000
v 0.425000 -0.100000 -0.040000
v 0.425000 0.020000 0.040000
v 0.425000 0.020000 -0.040000
v -0.025699 0.020000 0.040000
v -0.025699 0.020000 -0.040000
v 0.212301 -0.349000 0.040000
v 0.212301 -0.349000 -0.040000
v 0.001000 -0.349000 0.040000
v 0.001000 -0.349000 -0.040000
v 0.001000 -0.469000 0.040000
v 0.001000 -0.469000 -0.040000
v 0.440783 -0.469000 0.040000
v 0.440783 -0.469000 -0.040000
v 0.201783 -0.100000 0.040000
v 0.201783 -0.100000 -0.040000
v 0.425000 -0.100000 -0.040000
v 0.405000 -0.080000 -0.060000
v 0.425000 0.020000 -0.040000
v 0.405000 -0.000000 -0.060000
v -0.025699 0.020000 -0.040000
v 0.011000 -0.000000 -0.060000
v 0.212301 -0.349000 -0.040000
v 0.249000 -0.369000 -0.060000
v 0.001000 -0.349000 -0.040000
v 0.021000 -0.369000 -0.060000
v 0.001000 -0.469000 -0.040000
v 0.021000 -0.449000 -0.060000
v 0.440783 -0.469000 -0.040000
v 0.404000 -0.449000 -0.060000
v 0.201783 -0.100000 -0.040000
v 0.165000 -0.080000 -0.060000
vn 0.0000 0.0000 -1.0000
vn 0.0000 0.0000 1.0000
vn 0.4082 -0.4082 0.8165
vn 0.4082 0.4082 0.8165
vn -0.3790 0.2065 0.9020
vn -0.4082 0.4082 0.8165
vn -0.4082 -0.4082 0.8165
vn 0.3787 -0.2059 0.9023
vn 0.7071 -0.7071 0.0000
vn 0.7071 0.7071 0.0000
vn -0.8780 0.4785 0.0000
vn -0.7071 0.7071 0.0000
vn -0.7071 -0.7071 0.0000
vn 0.8785 -0.4777 0.0000
vn 0.4082 -0.4082 -0.8165
vn 0.4082 0.4082 -0.8165
vn -0.3790 0.2065 -0.9020
vn -0.4082 0.4082 -0.8165
vn -0.4082 -0.4082 -0.8165
vn 0.3787 -0.2059 -0.9023
usemtl None
s off
f 5//1 7//1 6//1
f 5//1 4//1 7//1
f 4//1 8//1 7//1
f 3//1 8//1 4//1
f 3//1 1//1 8//1
f 3//1 2//1 1//1
f 15//2 13//2 14//2
f 12//2 13//2 15//2
f 16//2 12//2 15//2
f 16//2 11//2 12//2
f 9//2 11//2 16//2
f 10//2 11//2 9//2
s 1
f 18//3 20//4 19//4 17//3
f 20//4 22//5 21//5 19//4
f 22//5 24//5 23//5 21//5
f 24//5 26//6 25//6 23//5
f 26//6 28//7 27//7 25//6
f 28//7 30//8 29//8 27//7
f 30//8 32//8 31//8 29//8
f 32//8 18//3 17//3 31//8
f 34//9 36//10 35//10 33//9
f 36//10 38//11 37//11 35//10
f 38//11 40//11 39//11 37//11
f 40//11 42//12 41//12 39//11
f 42//12 44//13 43//13 41//12
f 44//13 46//14 45//14 43//13
f 46//14 48//14 47//14 45//14
f 48//14 34//9 33//9 47//14
f 50//15 52//16 51//16 49//15
f 52//16 54//17 53//17 51//16
f 54//17 56//17 55//17 53//17
f 56//17 58//18 57//18 55//17
f 58//18 60//19 59//19 57//18
f 60//19 62//20 61//20 59//19
f 62//20 64//20 63//20 61//20
f 64//20 50//15 49//15 63//20
