# Blender v2.79 (sub 0) OBJ File: 'unicode_to_obj.blend'
# www.blender.org
mtllib 00A5.mtl
o Text_CUText.1044
v 0.030000 -0.159000 -0.060000
v 0.030000 -0.226000 -0.060000
v 0.233000 -0.226000 -0.060000
v 0.233000 -0.296000 -0.060000
v 0.030000 -0.296000 -0.060000
v 0.030000 -0.369000 -0.060000
v 0.197000 -0.369000 -0.060000
v -0.001000 -0.716000 -0.060000
v 0.097000 -0.716000 -0.060000
v 0.277000 -0.394000 -0.060000
v 0.450000 -0.716000 -0.060000
v 0.553000 -0.716000 -0.060000
v 0.357000 -0.369000 -0.060000
v 0.522000 -0.369000 -0.060000
v 0.522000 -0.296000 -0.060000
v 0.322000 -0.296000 -0.060000
v 0.322000 -0.226000 -0.060000
v 0.522000 -0.226000 -0.060000
v 0.522000 -0.159000 -0.060000
v 0.322000 -0.159000 -0.060000
v 0.322000 -0.000000 -0.060000
v 0.233000 -0.000000 -0.060000
v 0.233000 -0.159000 -0.060000
v 0.030000 -0.159000 0.060000
v 0.030000 -0.226000 0.060000
v 0.233000 -0.226000 0.060000
v 0.233000 -0.296000 0.060000
v 0.030000 -0.296000 0.060000
v 0.030000 -0.369000 0.060000
v 0.197000 -0.369000 0.060000
v -0.001000 -0.716000 0.060000
v 0.097000 -0.716000 0.060000
v 0.277000 -0.394000 0.060000
v 0.450000 -0.716000 0.060000
v 0.553000 -0.716000 0.060000
v 0.357000 -0.369000 0.060000
v 0.522000 -0.369000 0.060000
v 0.522000 -0.296000 0.060000
v 0.322000 -0.296000 0.060000
v 0.322000 -0.226000 0.060000
v 0.522000 -0.226000 0.060000
v 0.522000 -0.159000 0.060000
v 0.322000 -0.159000 0.060000
v 0.322000 -0.000000 0.060000
v 0.233000 -0.000000 0.060000
v 0.233000 -0.159000 0.060000
v 0.030000 -0.159000 0.060000
v 0.010000 -0.139000 0.040000
v 0.030000 -0.226000 0.060000
v 0.010000 -0.246000 0.040000
v 0.233000 -0.226000 0.060000
v 0.213000 -0.246000 0.040000
v 0.233000 -0.296000 0.060000
v 0.213000 -0.276000 0.040000
v 0.030000 -0.296000 0.060000
v 0.010000 -0.276000 0.040000
v 0.030000 -0.369000 0.060000
v 0.010000 -0.389000 0.040000
v 0.197000 -0.369000 0.060000
v 0.162561 -0.389000 0.040000
v -0.001000 -0.716000 0.060000
v -0.035439 -0.736000 0.040000
v 0.097000 -0.716000 0.060000
v 0.108733 -0.736000 0.040000
v 0.277000 -0.394000 0.060000
v 0.276652 -0.435611 0.040000
v 0.450000 -0.716000 0.060000
v 0.438042 -0.736000 0.040000
v 0.553000 -0.716000 0.060000
v 0.587267 -0.736000 0.040000
v 0.357000 -0.369000 0.060000
v 0.391267 -0.389000 0.040000
v 0.522000 -0.369000 0.060000
v 0.542000 -0.389000 0.040000
v 0.522000 -0.296000 0.060000
v 0.542000 -0.276000 0.040000
v 0.322000 -0.296000 0.060000
v 0.342000 -0.276000 0.040000
v 0.322000 -0.226000 0.060000
v 0.342000 -0.246000 0.040000
v 0.522000 -0.226000 0.060000
v 0.542000 -0.246000 0.040000
v 0.522000 -0.159000 0.060000
v 0.542000 -0.139000 0.040000
v 0.322000 -0.159000 0.060000
v 0.342000 -0.139000 0.040000
v 0.322000 -0.000000 0.060000
v 0.342000 0.020000 0.040000
v 0.233000 -0.000000 0.060000
v 0.213000 0.020000 0.040000
v 0.233000 -0.159000 0.060000
v 0.213000 -0.139000 0.040000
v 0.010000 -0.139000 0.040000
v 0.010000 -0.139000 -0.040000
v 0.010000 -0.246000 0.040000
v 0.010000 -0.246000 -0.040000
v 0.213000 -0.246000 0.040000
v 0.213000 -0.246000 -0.040000
v 0.213000 -0.276000 0.040000
v 0.213000 -0.276000 -0.040000
v 0.010000 -0.276000 0.040000
v 0.010000 -0.276000 -0.040000
v 0.010000 -0.389000 0.040000
v 0.010000 -0.389000 -0.040000
v 0.162561 -0.389000 0.040000
v 0.162561 -0.389000 -0.040000
v -0.035439 -0.736000 0.040000
v -0.035439 -0.736000 -0.040000
v 0.108733 -0.736000 0.040000
v 0.108733 -0.736000 -0.040000
v 0.276652 -0.435611 0.040000
v 0.276652 -0.435611 -0.040000
v 0.438042 -0.736000 0.040000
v 0.438042 -0.736000 -0.040000
v 0.587267 -0.736000 0.040000
v 0.587267 -0.736000 -0.040000
v 0.391267 -0.389000 0.040000
v 0.391267 -0.389000 -0.040000
v 0.542000 -0.389000 0.040000
v 0.542000 -0.389000 -0.040000
v 0.542000 -0.276000 0.040000
v 0.542000 -0.276000 -0.040000
v 0.342000 -0.276000 0.040000
v 0.342000 -0.276000 -0.040000
v 0.342000 -0.246000 0.040000
v 0.342000 -0.246000 -0.040000
v 0.542000 -0.246000 0.040000
v 0.542000 -0.246000 -0.040000
v 0.542000 -0.139000 0.040000
v 0.542000 -0.139000 -0.040000
v 0.342000 -0.139000 0.040000
v 0.342000 -0.139000 -0.040000
v 0.342000 0.020000 0.040000
v 0.342000 0.020000 -0.040000
v 0.213000 0.020000 0.040000
v 0.213000 0.020000 -0.040000
v 0.213000 -0.139000 0.040000
v 0.213000 -0.139000 -0.040000
v 0.010000 -0.139000 -0.040000
v 0.030000 -0.159000 -0.060000
v 0.010000 -0.246000 -0.040000
v 0.030000 -0.226000 -0.060000
v 0.213000 -0.246000 -0.040000
v 0.233000 -0.226000 -0.060000
v 0.213000 -0.276000 -0.040000
v 0.233000 -0.296000 -0.060000
v 0.010000 -0.276000 -0.040000
v 0.030000 -0.296000 -0.060000
v 0.010000 -0.389000 -0.040000
v 0.030000 -0.369000 -0.060000
v 0.162561 -0.389000 -0.040000
v 0.197000 -0.369000 -0.060000
v -0.035439 -0.736000 -0.040000
v -0.001000 -0.716000 -0.060000
v 0.108733 -0.736000 -0.040000
v 0.097000 -0.716000 -0.060000
v 0.276652 -0.435611 -0.040000
v 0.277000 -0.394000 -0.060000
v 0.438042 -0.736000 -0.040000
v 0.450000 -0.716000 -0.060000
v 0.587267 -0.736000 -0.040000
v 0.553000 -0.716000 -0.060000
v 0.391267 -0.389000 -0.040000
v 0.357000 -0.369000 -0.060000
v 0.542000 -0.389000 -0.040000
v 0.522000 -0.369000 -0.060000
v 0.542000 -0.276000 -0.040000
v 0.522000 -0.296000 -0.060000
v 0.342000 -0.276000 -0.040000
v 0.322000 -0.296000 -0.060000
v 0.342000 -0.246000 -0.040000
v 0.322000 -0.226000 -0.060000
v 0.542000 -0.246000 -0.040000
v 0.522000 -0.226000 -0.060000
v 0.542000 -0.139000 -0.040000
v 0.522000 -0.159000 -0.060000
v 0.342000 -0.139000 -0.040000
v 0.322000 -0.159000 -0.060000
v 0.342000 0.020000 -0.040000
v 0.322000 -0.000000 -0.060000
v 0.213000 0.020000 -0.040000
v 0.233000 -0.000000 -0.060000
v 0.213000 -0.139000 -0.040000
v 0.233000 -0.159000 -0.060000
vn 0.0000 0.0000 -1.0000
vn 0.0000 0.0000 1.0000
vn -0.4082 0.4082 0.8165
vn -0.4082 -0.4082 0.8165
vn -0.3881 -0.2253 0.8936
vn 0.3305 -0.5633 0.7572
vn -0.0036 -0.4331 0.9013
vn -0.3342 -0.5590 0.7588
vn 0.3887 -0.2269 0.8929
vn 0.4082 -0.4082 0.8165
vn 0.4082 0.4082 0.8165
vn -0.7071 0.7071 0.0000
vn -0.7071 -0.7071 0.0000
vn -0.8647 -0.5022 0.0000
vn 0.5060 -0.8625 0.0000
vn -0.0083 -0.9999 0.0000
vn -0.5132 -0.8583 0.0000
vn 0.8636 -0.5041 0.0000
vn 0.7071 -0.7071 0.0000
vn 0.7071 0.7071 0.0000
vn -0.4082 0.4082 -0.8165
vn -0.4082 -0.4082 -0.8165
vn -0.3881 -0.2253 -0.8936
vn 0.3305 -0.5633 -0.7572
vn -0.0036 -0.4331 -0.9013
vn -0.3342 -0.5590 -0.7588
vn 0.3887 -0.2269 -0.8929
vn 0.4082 -0.4082 -0.8165
vn 0.4082 0.4082 -0.8165
usemtl None
s off
f 7//1 9//1 8//1
f 7//1 10//1 9//1
f 10//1 12//1 11//1
f 10//1 13//1 12//1
f 7//1 13//1 10//1
f 5//1 7//1 6//1
f 5//1 13//1 7//1
f 5//1 14//1 13//1
f 5//1 15//1 14//1
f 4//2 15//2 5//2
f 3//1 16//1 4//1
f 16//2 15//2 4//2
f 3//1 17//1 16//1
f 1//1 3//1 2//1
f 1//1 17//1 3//1
f 1//1 18//1 17//1
f 1//1 19//1 18//1
f 23//2 19//2 1//2
f 22//1 20//1 23//1
f 20//1 19//1 23//1
f 22//1 21//1 20//1
f 32//2 30//2 31//2
f 33//2 30//2 32//2
f 35//2 33//2 34//2
f 36//2 33//2 35//2
f 36//2 30//2 33//2
f 30//2 28//2 29//2
f 36//2 28//2 30//2
f 37//2 28//2 36//2
f 38//2 28//2 37//2
f 38//1 27//1 28//1
f 39//2 26//2 27//2
f 38//2 39//2 27//2
f 40//2 26//2 39//2
f 26//2 24//2 25//2
f 40//2 24//2 26//2
f 41//2 24//2 40//2
f 42//2 24//2 41//2
f 42//1 46//1 24//1
f 43//2 45//2 46//2
f 42//2 43//2 46//2
f 44//2 45//2 43//2
s 1
f 48//3 50//4 49//4 47//3
f 50//4 52//4 51//4 49//4
f 52//4 54//3 53//3 51//4
f 54//3 56//3 55//3 53//3
f 56//3 58//4 57//4 55//3
f 58//4 60//5 59//5 57//4
f 60//5 62//5 61//5 59//5
f 62//5 64//6 63//6 61//5
f 64//6 66//7 65//7 63//6
f 66//7 68//8 67//8 65//7
f 68//8 70//9 69//9 67//8
f 70//9 72//9 71//9 69//9
f 72//9 74//10 73//10 71//9
f 74//10 76//11 75//11 73//10
f 76//11 78//11 77//11 75//11
f 78//11 80//10 79//10 77//11
f 80//10 82//10 81//10 79//10
f 82//10 84//11 83//11 81//10
f 84//11 86//11 85//11 83//11
f 86//11 88//11 87//11 85//11
f 88//11 90//3 89//3 87//11
f 90//3 92//3 91//3 89//3
f 92//3 48//3 47//3 91//3
f 94//12 96//13 95//13 93//12
f 96//13 98//13 97//13 95//13
f 98//13 100//12 99//12 97//13
f 100//12 102//12 101//12 99//12
f 102//12 104//13 103//13 101//12
f 104//13 106//14 105//14 103//13
f 106//14 108//14 107//14 105//14
f 108//14 110//15 109//15 107//14
f 110//15 112//16 111//16 109//15
f 112//16 114//17 113//17 111//16
f 114//17 116//18 115//18 113//17
f 116//18 118//18 117//18 115//18
f 118//18 120//19 119//19 117//18
f 120//19 122//20 121//20 119//19
f 122//20 124//20 123//20 121//20
f 124//20 126//19 125//19 123//20
f 126//19 128//19 127//19 125//19
f 128//19 130//20 129//20 127//19
f 130//20 132//20 131//20 129//20
f 132//20 134//20 133//20 131//20
f 134//20 136//12 135//12 133//20
f 136//12 138//12 137//12 135//12
f 138//12 94//12 93//12 137//12
f 140//21 142//22 141//22 139//21
f 142//22 144//22 143//22 141//22
f 144//22 146//21 145//21 143//22
f 146//21 148//21 147//21 145//21
f 148//21 150//22 149//22 147//21
f 150//22 152//23 151//23 149//22
f 152//23 154//23 153//23 151//23
f 154//23 156//24 155//24 153//23
f 156//24 158//25 157//25 155//24
f 158//25 160//26 159//26 157//25
f 160//26 162//27 161//27 159//26
f 162//27 164//27 163//27 161//27
f 164//27 166//28 165//28 163//27
f 166//28 168//29 167//29 165//28
f 168//29 170//29 169//29 167//29
f 170//29 172//28 171//28 169//29
f 172//28 174//28 173//28 171//28
f 174//28 176//29 175//29 173//28
f 176//29 178//29 177//29 175//29
f 178//29 180//29 179//29 177//29
f 180//29 182//21 181//21 179//29
f 182//21 184//21 183//21 181//21
f 184//21 140//21 139//21 183//21
