# Blender v2.79 (sub 0) OBJ File: 'unicode_to_obj.blend'
# www.blender.org
mtllib 00B8.mtl
o Text_CUText.1063
v 0.209995 0.018538 -0.060000
v 0.217458 0.021639 -0.060000
v 0.224359 0.025281 -0.060000
v 0.230667 0.029444 -0.060000
v 0.236349 0.034108 -0.060000
v 0.241375 0.039250 -0.060000
v 0.245714 0.044851 -0.060000
v 0.249333 0.050889 -0.060000
v 0.252203 0.057344 -0.060000
v 0.254292 0.064194 -0.060000
v 0.255568 0.071420 -0.060000
v 0.256000 0.079000 -0.060000
v 0.254631 0.096755 -0.060000
v 0.250630 0.112537 -0.060000
v 0.244156 0.126375 -0.060000
v 0.235370 0.138296 -0.060000
v 0.224432 0.148329 -0.060000
v 0.211500 0.156500 -0.060000
v 0.196735 0.162838 -0.060000
v 0.180296 0.167370 -0.060000
v 0.162344 0.170125 -0.060000
v 0.143037 0.171130 -0.060000
v 0.122536 0.170412 -0.060000
v 0.101000 0.168000 -0.060000
v 0.101000 0.113000 -0.060000
v 0.112526 0.114398 -0.060000
v 0.123542 0.115102 -0.060000
v 0.133953 0.115125 -0.060000
v 0.143667 0.114481 -0.060000
v 0.152589 0.113185 -0.060000
v 0.160625 0.111250 -0.060000
v 0.167682 0.108690 -0.060000
v 0.173667 0.105519 -0.060000
v 0.178484 0.101750 -0.060000
v 0.182042 0.097398 -0.060000
v 0.184245 0.092477 -0.060000
v 0.185000 0.087000 -0.060000
v 0.184584 0.082861 -0.060000
v 0.183343 0.078968 -0.060000
v 0.181281 0.075359 -0.060000
v 0.178407 0.072074 -0.060000
v 0.174728 0.069150 -0.060000
v 0.170250 0.066625 -0.060000
v 0.164980 0.064538 -0.060000
v 0.158926 0.062926 -0.060000
v 0.152094 0.061828 -0.060000
v 0.144491 0.061282 -0.060000
v 0.136124 0.061327 -0.060000
v 0.127000 0.062000 -0.060000
v 0.152000 -0.008000 -0.060000
v 0.209000 -0.008000 -0.060000
v 0.202000 0.016000 -0.060000
v 0.209995 0.018538 0.060000
v 0.217458 0.021639 0.060000
v 0.224359 0.025281 0.060000
v 0.230667 0.029444 0.060000
v 0.236349 0.034108 0.060000
v 0.241375 0.039250 0.060000
v 0.245714 0.044851 0.060000
v 0.249333 0.050889 0.060000
v 0.252203 0.057344 0.060000
v 0.254292 0.064194 0.060000
v 0.255568 0.071420 0.060000
v 0.256000 0.079000 0.060000
v 0.254631 0.096755 0.060000
v 0.250630 0.112537 0.060000
v 0.244156 0.126375 0.060000
v 0.235370 0.138296 0.060000
v 0.224432 0.148329 0.060000
v 0.211500 0.156500 0.060000
v 0.196735 0.162838 0.060000
v 0.180296 0.167370 0.060000
v 0.162344 0.170125 0.060000
v 0.143037 0.171130 0.060000
v 0.122536 0.170412 0.060000
v 0.101000 0.168000 0.060000
v 0.101000 0.113000 0.060000
v 0.112526 0.114398 0.060000
v 0.123542 0.115102 0.060000
v 0.133953 0.115125 0.060000
v 0.143667 0.114481 0.060000
v 0.152589 0.113185 0.060000
v 0.160625 0.111250 0.060000
v 0.167682 0.108690 0.060000
v 0.173667 0.105519 0.060000
v 0.178484 0.101750 0.060000
v 0.182042 0.097398 0.060000
v 0.184245 0.092477 0.060000
v 0.185000 0.087000 0.060000
v 0.184584 0.082861 0.060000
v 0.183343 0.078968 0.060000
v 0.181281 0.075359 0.060000
v 0.178407 0.072074 0.060000
v 0.174728 0.069150 0.060000
v 0.170250 0.066625 0.060000
v 0.164980 0.064538 0.060000
v 0.158926 0.062926 0.060000
v 0.152094 0.061828 0.060000
v 0.144491 0.061282 0.060000
v 0.136124 0.061327 0.060000
v 0.127000 0.062000 0.060000
v 0.152000 -0.008000 0.060000
v 0.209000 -0.008000 0.060000
v 0.202000 0.016000 0.060000
v 0.209995 0.018538 0.060000
v 0.216870 -0.000263 0.040000
v 0.217458 0.021639 0.060000
v 0.225981 0.003522 0.040000
v 0.224359 0.025281 0.060000
v 0.234560 0.008050 0.040000
v 0.230667 0.029444 0.060000
v 0.242551 0.013325 0.040000
v 0.236349 0.034108 0.060000
v 0.249885 0.019343 0.040000
v 0.241375 0.039250 0.060000
v 0.256482 0.026093 0.040000
v 0.245714 0.044851 0.060000
v 0.262255 0.033545 0.040000
v 0.249333 0.050889 0.060000
v 0.267114 0.041651 0.040000
v 0.252203 0.057344 0.060000
v 0.270976 0.050339 0.040000
v 0.254292 0.064194 0.060000
v 0.273776 0.059522 0.040000
v 0.255568 0.071420 0.060000
v 0.275468 0.069104 0.040000
v 0.256000 0.079000 0.060000
v 0.276044 0.079200 0.040000
v 0.254631 0.096755 0.060000
v 0.274440 0.100005 0.040000
v 0.250630 0.112537 0.060000
v 0.269550 0.119292 0.040000
v 0.244156 0.126375 0.060000
v 0.261432 0.136645 0.040000
v 0.235370 0.138296 0.060000
v 0.250319 0.151724 0.040000
v 0.224432 0.148329 0.060000
v 0.236630 0.164279 0.040000
v 0.211500 0.156500 0.060000
v 0.220845 0.174254 0.040000
v 0.196735 0.162838 0.060000
v 0.203368 0.181755 0.040000
v 0.180296 0.167370 0.060000
v 0.184485 0.186962 0.040000
v 0.162344 0.170125 0.060000
v 0.164385 0.190046 0.040000
v 0.143037 0.171130 0.060000
v 0.143207 0.191148 0.040000
v 0.122536 0.170412 0.060000
v 0.121071 0.190373 0.040000
v 0.101000 0.168000 0.060000
v 0.081000 0.185885 0.040000
v 0.101000 0.113000 0.060000
v 0.081000 0.090427 0.040000
v 0.112526 0.114398 0.060000
v 0.114369 0.094475 0.040000
v 0.123542 0.115102 0.060000
v 0.124202 0.095103 0.040000
v 0.133953 0.115125 0.060000
v 0.133314 0.095124 0.040000
v 0.143667 0.114481 0.060000
v 0.141565 0.094577 0.040000
v 0.152589 0.113185 0.060000
v 0.148802 0.093525 0.040000
v 0.160625 0.111250 0.060000
v 0.154856 0.092068 0.040000
v 0.167682 0.108690 0.060000
v 0.159550 0.090365 0.040000
v 0.173667 0.105519 0.060000
v 0.162738 0.088675 0.040000
v 0.178484 0.101750 0.060000
v 0.164408 0.087369 0.040000
v 0.182042 0.097398 0.060000
v 0.164874 0.086799 0.040000
v 0.184245 0.092477 0.060000
v 0.164823 0.086914 0.040000
v 0.185000 0.087000 0.060000
v 0.164862 0.086628 0.040000
v 0.184584 0.082861 0.060000
v 0.164894 0.086943 0.040000
v 0.183343 0.078968 0.060000
v 0.164930 0.087056 0.040000
v 0.181281 0.075359 0.060000
v 0.164909 0.087020 0.040000
v 0.178407 0.072074 0.060000
v 0.164546 0.086605 0.040000
v 0.174728 0.069150 0.060000
v 0.163525 0.085793 0.040000
v 0.170250 0.066625 0.060000
v 0.161616 0.084717 0.040000
v 0.164980 0.064538 0.060000
v 0.158704 0.083563 0.040000
v 0.158926 0.062926 0.060000
v 0.154756 0.082513 0.040000
v 0.152094 0.061828 0.060000
v 0.149787 0.081714 0.040000
v 0.144491 0.061282 0.060000
v 0.143827 0.081286 0.040000
v 0.136124 0.061327 0.060000
v 0.136914 0.081323 0.040000
v 0.127000 0.062000 0.060000
v 0.097832 0.084206 0.040000
v 0.152000 -0.008000 0.060000
v 0.137906 -0.028000 0.040000
v 0.209000 -0.008000 0.060000
v 0.235667 -0.028000 0.040000
v 0.202000 0.016000 0.060000
v 0.226669 0.002848 0.040000
v 0.216870 -0.000263 0.040000
v 0.216870 -0.000263 -0.040000
v 0.225981 0.003522 0.040000
v 0.225981 0.003522 -0.040000
v 0.234560 0.008050 0.040000
v 0.234560 0.008050 -0.040000
v 0.242551 0.013325 0.040000
v 0.242551 0.013325 -0.040000
v 0.249885 0.019343 0.040000
v 0.249885 0.019343 -0.040000
v 0.256482 0.026093 0.040000
v 0.256482 0.026093 -0.040000
v 0.262255 0.033545 0.040000
v 0.262255 0.033545 -0.040000
v 0.267114 0.041651 0.040000
v 0.267114 0.041651 -0.040000
v 0.270976 0.050339 0.040000
v 0.270976 0.050339 -0.040000
v 0.273776 0.059522 0.040000
v 0.273776 0.059522 -0.040000
v 0.275468 0.069104 0.040000
v 0.275468 0.069104 -0.040000
v 0.276044 0.079200 0.040000
v 0.276044 0.079200 -0.040000
v 0.274440 0.100005 0.040000
v 0.274440 0.100005 -0.040000
v 0.269550 0.119292 0.040000
v 0.269550 0.119292 -0.040000
v 0.261432 0.136645 0.040000
v 0.261432 0.136645 -0.040000
v 0.250319 0.151724 0.040000
v 0.250319 0.151724 -0.040000
v 0.236630 0.164279 0.040000
v 0.236630 0.164279 -0.040000
v 0.220845 0.174254 0.040000
v 0.220845 0.174254 -0.040000
v 0.203368 0.181755 0.040000
v 0.203368 0.181755 -0.040000
v 0.184485 0.186962 0.040000
v 0.184485 0.186962 -0.040000
v 0.164385 0.190046 0.040000
v 0.164385 0.190046 -0.040000
v 0.143207 0.191148 0.040000
v 0.143207 0.191148 -0.040000
v 0.121071 0.190373 0.040000
v 0.121071 0.190373 -0.040000
v 0.081000 0.185885 0.040000
v 0.081000 0.185885 -0.040000
v 0.081000 0.090427 0.040000
v 0.081000 0.090427 -0.040000
v 0.114369 0.094475 0.040000
v 0.114369 0.094475 -0.040000
v 0.124202 0.095103 0.040000
v 0.124202 0.095103 -0.040000
v 0.133314 0.095124 0.040000
v 0.133314 0.095124 -0.040000
v 0.141565 0.094577 0.040000
v 0.141565 0.094577 -0.040000
v 0.148802 0.093525 0.040000
v 0.148802 0.093525 -0.040000
v 0.154856 0.092068 0.040000
v 0.154856 0.092068 -0.040000
v 0.159550 0.090365 0.040000
v 0.159550 0.090365 -0.040000
v 0.162738 0.088675 0.040000
v 0.162738 0.088675 -0.040000
v 0.164408 0.087369 0.040000
v 0.164408 0.087369 -0.040000
v 0.164874 0.086799 0.040000
v 0.164874 0.086799 -0.040000
v 0.164823 0.086914 0.040000
v 0.164823 0.086914 -0.040000
v 0.164862 0.086628 0.040000
v 0.164862 0.086628 -0.040000
v 0.164894 0.086943 0.040000
v 0.164894 0.086943 -0.040000
v 0.164930 0.087056 0.040000
v 0.164930 0.087056 -0.040000
v 0.164909 0.087020 0.040000
v 0.164909 0.087020 -0.040000
v 0.164546 0.086605 0.040000
v 0.164546 0.086605 -0.040000
v 0.163525 0.085793 0.040000
v 0.163525 0.085793 -0.040000
v 0.161616 0.084717 0.040000
v 0.161616 0.084717 -0.040000
v 0.158704 0.083563 0.040000
v 0.158704 0.083563 -0.040000
v 0.154756 0.082513 0.040000
v 0.154756 0.082513 -0.040000
v 0.149787 0.081714 0.040000
v 0.149787 0.081714 -0.040000
v 0.143827 0.081286 0.040000
v 0.143827 0.081286 -0.040000
v 0.136914 0.081323 0.040000
v 0.136914 0.081323 -0.040000
v 0.097832 0.084206 0.040000
v 0.097832 0.084206 -0.040000
v 0.137906 -0.028000 0.040000
v 0.137906 -0.028000 -0.040000
v 0.235667 -0.028000 0.040000
v 0.235667 -0.028000 -0.040000
v 0.226669 0.002848 0.040000
v 0.226669 0.002848 -0.040000
v 0.216870 -0.000263 -0.040000
v 0.209995 0.018538 -0.060000
v 0.225981 0.003522 -0.040000
v 0.217458 0.021639 -0.060000
v 0.234560 0.008050 -0.040000
v 0.224359 0.025281 -0.060000
v 0.242551 0.013325 -0.040000
v 0.230667 0.029444 -0.060000
v 0.249885 0.019343 -0.040000
v 0.236349 0.034108 -0.060000
v 0.256482 0.026093 -0.040000
v 0.241375 0.039250 -0.060000
v 0.262255 0.033545 -0.040000
v 0.245714 0.044851 -0.060000
v 0.267114 0.041651 -0.040000
v 0.249333 0.050889 -0.060000
v 0.270976 0.050339 -0.040000
v 0.252203 0.057344 -0.060000
v 0.273776 0.059522 -0.040000
v 0.254292 0.064194 -0.060000
v 0.275468 0.069104 -0.040000
v 0.255568 0.071420 -0.060000
v 0.276044 0.079200 -0.040000
v 0.256000 0.079000 -0.060000
v 0.274440 0.100005 -0.040000
v 0.254631 0.096755 -0.060000
v 0.269550 0.119292 -0.040000
v 0.250630 0.112537 -0.060000
v 0.261432 0.136645 -0.040000
v 0.244156 0.126375 -0.060000
v 0.250319 0.151724 -0.040000
v 0.235370 0.138296 -0.060000
v 0.236630 0.164279 -0.040000
v 0.224432 0.148329 -0.060000
v 0.220845 0.174254 -0.040000
v 0.211500 0.156500 -0.060000
v 0.203368 0.181755 -0.040000
v 0.196735 0.162838 -0.060000
v 0.184485 0.186962 -0.040000
v 0.180296 0.167370 -0.060000
v 0.164385 0.190046 -0.040000
v 0.162344 0.170125 -0.060000
v 0.143207 0.191148 -0.040000
v 0.143037 0.171130 -0.060000
v 0.121071 0.190373 -0.040000
v 0.122536 0.170412 -0.060000
v 0.081000 0.185885 -0.040000
v 0.101000 0.168000 -0.060000
v 0.081000 0.090427 -0.040000
v 0.101000 0.113000 -0.060000
v 0.114369 0.094475 -0.040000
v 0.112526 0.114398 -0.060000
v 0.124202 0.095103 -0.040000
v 0.123542 0.115102 -0.060000
v 0.133314 0.095124 -0.040000
v 0.133953 0.115125 -0.060000
v 0.141565 0.094577 -0.040000
v 0.143667 0.114481 -0.060000
v 0.148802 0.093525 -0.040000
v 0.152589 0.113185 -0.060000
v 0.154856 0.092068 -0.040000
v 0.160625 0.111250 -0.060000
v 0.159550 0.090365 -0.040000
v 0.167682 0.108690 -0.060000
v 0.162738 0.088675 -0.040000
v 0.173667 0.105519 -0.060000
v 0.164408 0.087369 -0.040000
v 0.178484 0.101750 -0.060000
v 0.164874 0.086799 -0.040000
v 0.182042 0.097398 -0.060000
v 0.164823 0.086914 -0.040000
v 0.184245 0.092477 -0.060000
v 0.164862 0.086628 -0.040000
v 0.185000 0.087000 -0.060000
v 0.164894 0.086943 -0.040000
v 0.184584 0.082861 -0.060000
v 0.164930 0.087056 -0.040000
v 0.183343 0.078968 -0.060000
v 0.164909 0.087020 -0.040000
v 0.181281 0.075359 -0.060000
v 0.164546 0.086605 -0.040000
v 0.178407 0.072074 -0.060000
v 0.163525 0.085793 -0.040000
v 0.174728 0.069150 -0.060000
v 0.161616 0.084717 -0.040000
v 0.170250 0.066625 -0.060000
v 0.158704 0.083563 -0.040000
v 0.164980 0.064538 -0.060000
v 0.154756 0.082513 -0.040000
v 0.158926 0.062926 -0.060000
v 0.149787 0.081714 -0.040000
v 0.152094 0.061828 -0.060000
v 0.143827 0.081286 -0.040000
v 0.144491 0.061282 -0.060000
v 0.136914 0.081323 -0.040000
v 0.136124 0.061327 -0.060000
v 0.097832 0.084206 -0.040000
v 0.127000 0.062000 -0.060000
v 0.137906 -0.028000 -0.040000
v 0.152000 -0.008000 -0.060000
v 0.235667 -0.028000 -0.040000
v 0.209000 -0.008000 -0.060000
v 0.226669 0.002848 -0.040000
v 0.202000 0.016000 -0.060000
vn 0.0000 0.0000 -1.0000
vn 0.0000 0.0000 1.0000
vn 0.6618 0.6462 -0.3799
vn 0.3008 -0.6395 0.7074
vn 0.9391 0.3435 0.0000
vn 0.3600 -0.6081 0.7075
vn 0.4193 -0.5687 0.7076
vn 0.4775 -0.5208 0.7076
vn 0.5328 -0.4640 0.7077
vn 0.5832 -0.3986 0.7077
vn 0.6269 -0.3257 0.7078
vn 0.6619 -0.2470 0.7078
vn 0.6870 -0.1647 0.7078
vn 0.7017 -0.0817 0.7077
vn 0.7063 0.0070 0.7079
vn 0.6965 0.1143 0.7084
vn 0.6644 0.2372 0.7087
vn 0.6063 0.3604 0.7088
vn 0.5248 0.4714 0.7087
vn 0.4287 0.5605 0.7085
vn 0.3288 0.6247 0.7082
vn 0.2337 0.6665 0.7079
vn 0.1477 0.6909 0.7077
vn 0.0720 0.7030 0.7075
vn 0.0060 0.7067 0.7074
vn -0.0517 0.7049 0.7074
vn -0.4455 0.3984 0.8018
vn -0.3665 -0.4136 0.8334
vn 0.0651 -0.7039 0.7072
vn 0.0233 -0.7065 0.7073
vn -0.0226 -0.7065 0.7073
vn -0.0742 -0.7029 0.7074
vn -0.1337 -0.6940 0.7075
vn -0.2035 -0.6766 0.7076
vn -0.2864 -0.6455 0.7079
vn -0.3841 -0.5920 0.7085
vn -0.4931 -0.5038 0.7093
vn -0.5961 -0.3746 0.7102
vn -0.5990 -0.3698 0.7102
vn -0.6781 -0.1875 0.7107
vn -0.6763 -0.1937 0.7107
vn -0.7044 -0.0175 0.7096
vn -0.7045 -0.0130 0.7096
vn -0.6905 0.1431 0.7090
vn -0.6442 0.2868 0.7090
vn -0.6456 0.2836 0.7090
vn -0.5745 0.4092 0.7089
vn -0.4870 0.5106 0.7085
vn -0.3942 0.5857 0.7082
vn -0.3042 0.6374 0.7079
vn -0.2213 0.6709 0.7077
vn -0.1471 0.6912 0.7075
vn -0.0814 0.7020 0.7074
vn -0.0234 0.7064 0.7074
vn 0.0279 0.7063 0.7073
vn -0.3811 0.2901 0.8778
vn -0.3645 -0.5173 0.7742
vn 0.4116 -0.3087 0.8575
vn 0.6774 0.5772 0.4560
vn 0.4704 0.8824 0.0000
vn 0.9391 0.3434 0.0000
vn 0.4256 -0.9049 0.0000
vn 0.5094 -0.8605 0.0000
vn 0.5934 -0.8049 0.0000
vn 0.6758 -0.7371 0.0000
vn 0.7541 -0.6568 0.0000
vn 0.8256 -0.5643 0.0000
vn 0.8874 -0.4610 0.0000
vn 0.9369 -0.3496 0.0000
vn 0.9724 -0.2332 0.0000
vn 0.9933 -0.1156 0.0000
vn 0.9999 0.0100 0.0000
vn 0.9868 0.1619 0.0000
vn 0.9418 0.3362 0.0000
vn 0.8596 0.5110 0.0000
vn 0.7439 0.6682 0.0000
vn 0.6074 0.7943 0.0000
vn 0.4657 0.8849 0.0000
vn 0.3309 0.9437 0.0000
vn 0.2091 0.9779 0.0000
vn 0.1019 0.9948 0.0000
vn 0.0085 0.9999 0.0000
vn -0.0732 0.9973 0.0000
vn -0.7454 0.6666 0.0000
vn -0.6631 -0.7485 0.0000
vn 0.0921 -0.9957 0.0000
vn 0.0330 -0.9995 0.0000
vn -0.0320 -0.9995 0.0000
vn -0.1050 -0.9944 0.0000
vn -0.1891 -0.9819 0.0000
vn -0.2880 -0.9576 0.0000
vn -0.4056 -0.9140 0.0000
vn -0.5443 -0.8389 0.0000
vn -0.6995 -0.7147 0.0000
vn 0.5253 -0.8509 0.0000
vn -0.2753 0.9613 0.0000
vn 0.0185 -0.9998 0.0000
vn 0.9792 -0.2030 0.0000
vn 0.4023 0.9155 0.0000
vn -0.8145 0.5802 0.0000
vn -0.6902 0.7236 0.0000
vn -0.5584 0.8296 0.0000
vn -0.4307 0.9025 0.0000
vn -0.3133 0.9496 0.0000
vn -0.2082 0.9781 0.0000
vn -0.1152 0.9933 0.0000
vn -0.0331 0.9994 0.0000
vn 0.0395 0.9992 0.0000
vn -0.7956 0.6057 0.0000
vn -0.5760 -0.8174 0.0000
vn 0.8000 -0.6000 0.0000
vn 0.3008 -0.6395 -0.7074
vn 0.6618 0.6462 0.3799
vn 0.3600 -0.6081 -0.7075
vn 0.4193 -0.5687 -0.7076
vn 0.4775 -0.5208 -0.7076
vn 0.5328 -0.4640 -0.7077
vn 0.5832 -0.3986 -0.7077
vn 0.6269 -0.3257 -0.7078
vn 0.6619 -0.2470 -0.7078
vn 0.6870 -0.1647 -0.7078
vn 0.7017 -0.0817 -0.7077
vn 0.7063 0.0070 -0.7079
vn 0.6965 0.1143 -0.7084
vn 0.6644 0.2372 -0.7087
vn 0.6063 0.3604 -0.7088
vn 0.5248 0.4714 -0.7087
vn 0.4287 0.5605 -0.7085
vn 0.3288 0.6247 -0.7082
vn 0.2337 0.6665 -0.7079
vn 0.1477 0.6909 -0.7077
vn 0.0720 0.7030 -0.7075
vn 0.0060 0.7067 -0.7074
vn -0.0517 0.7049 -0.7074
vn -0.4455 0.3984 -0.8018
vn -0.3665 -0.4136 -0.8334
vn 0.0651 -0.7039 -0.7072
vn 0.0233 -0.7065 -0.7073
vn -0.0226 -0.7065 -0.7073
vn -0.0742 -0.7029 -0.7074
vn -0.1337 -0.6940 -0.7075
vn -0.2035 -0.6766 -0.7076
vn -0.2864 -0.6455 -0.7079
vn -0.3841 -0.5920 -0.7085
vn -0.4931 -0.5038 -0.7093
vn -0.5990 -0.3698 -0.7102
vn -0.5961 -0.3746 -0.7102
vn -0.6763 -0.1937 -0.7107
vn -0.6781 -0.1875 -0.7107
vn -0.7045 -0.0130 -0.7096
vn -0.7044 -0.0175 -0.7096
vn -0.6905 0.1431 -0.7090
vn -0.6456 0.2836 -0.7090
vn -0.6442 0.2868 -0.7090
vn -0.5745 0.4092 -0.7089
vn -0.4870 0.5106 -0.7085
vn -0.3942 0.5857 -0.7082
vn -0.3042 0.6374 -0.7079
vn -0.2213 0.6709 -0.7077
vn -0.1471 0.6912 -0.7075
vn -0.0814 0.7020 -0.7074
vn -0.0234 0.7064 -0.7074
vn 0.0279 0.7063 -0.7073
vn -0.3811 0.2901 -0.8778
vn -0.3645 -0.5173 -0.7742
vn 0.4116 -0.3087 -0.8575
vn 0.6774 0.5772 -0.4560
usemtl None
s off
f 49//1 51//1 50//1
f 49//1 52//1 51//1
f 49//1 1//1 52//1
f 49//1 2//1 1//1
f 49//1 3//1 2//1
f 49//1 4//1 3//1
f 49//1 5//1 4//1
f 49//1 6//1 5//1
f 49//1 7//1 6//1
f 49//1 8//1 7//1
f 49//1 48//1 8//1
f 48//1 9//1 8//1
f 48//1 47//1 9//1
f 47//1 10//1 9//1
f 46//1 10//1 47//1
f 45//1 10//1 46//1
f 44//1 10//1 45//1
f 44//1 11//1 10//1
f 43//1 11//1 44//1
f 42//1 11//1 43//1
f 41//1 11//1 42//1
f 41//1 12//1 11//1
f 40//1 12//1 41//1
f 39//1 12//1 40//1
f 38//1 12//1 39//1
f 38//1 13//1 12//1
f 37//1 13//1 38//1
f 36//1 13//1 37//1
f 35//1 13//1 36//1
f 35//1 14//1 13//1
f 34//1 14//1 35//1
f 33//1 14//1 34//1
f 32//1 14//1 33//1
f 31//1 14//1 32//1
f 30//1 14//1 31//1
f 30//1 15//1 14//1
f 24//1 26//1 25//1
f 29//1 15//1 30//1
f 24//1 27//1 26//1
f 28//1 15//1 29//1
f 24//1 28//1 27//1
f 24//1 15//1 28//1
f 24//1 16//1 15//1
f 24//1 17//1 16//1
f 24//1 18//1 17//1
f 24//1 19//1 18//1
f 24//1 20//1 19//1
f 24//1 21//1 20//1
f 23//1 21//1 24//1
f 23//1 22//1 21//1
f 103//2 101//2 102//2
f 104//2 101//2 103//2
f 53//2 101//2 104//2
f 54//2 101//2 53//2
f 55//2 101//2 54//2
f 56//2 101//2 55//2
f 57//2 101//2 56//2
f 58//2 101//2 57//2
f 59//2 101//2 58//2
f 60//2 101//2 59//2
f 100//2 101//2 60//2
f 61//2 100//2 60//2
f 99//2 100//2 61//2
f 62//2 99//2 61//2
f 62//2 98//2 99//2
f 62//2 97//2 98//2
f 62//2 96//2 97//2
f 63//2 96//2 62//2
f 63//2 95//2 96//2
f 63//2 94//2 95//2
f 63//2 93//2 94//2
f 64//2 93//2 63//2
f 64//2 92//2 93//2
f 64//2 91//2 92//2
f 64//2 90//2 91//2
f 65//2 90//2 64//2
f 65//2 89//2 90//2
f 65//2 88//2 89//2
f 65//2 87//2 88//2
f 66//2 87//2 65//2
f 66//2 86//2 87//2
f 66//2 85//2 86//2
f 66//2 84//2 85//2
f 66//2 83//2 84//2
f 66//2 82//2 83//2
f 67//2 82//2 66//2
f 78//2 76//2 77//2
f 67//2 81//2 82//2
f 79//2 76//2 78//2
f 67//2 80//2 81//2
f 80//2 76//2 79//2
f 67//2 76//2 80//2
f 68//2 76//2 67//2
f 69//2 76//2 68//2
f 70//2 76//2 69//2
f 71//2 76//2 70//2
f 72//2 76//2 71//2
f 73//2 76//2 72//2
f 73//2 75//2 76//2
f 74//2 75//2 73//2
s 1
f 106//3 108//4 107//4 105//5
f 108//4 110//6 109//6 107//4
f 110//6 112//7 111//7 109//6
f 112//7 114//8 113//8 111//7
f 114//8 116//9 115//9 113//8
f 116//9 118//10 117//10 115//9
f 118//10 120//11 119//11 117//10
f 120//11 122//12 121//12 119//11
f 122//12 124//13 123//13 121//12
f 124//13 126//14 125//14 123//13
f 126//14 128//15 127//15 125//14
f 128//15 130//16 129//16 127//15
f 130//16 132//17 131//17 129//16
f 132//17 134//18 133//18 131//17
f 134//18 136//19 135//19 133//18
f 136//19 138//20 137//20 135//19
f 138//20 140//21 139//21 137//20
f 140//21 142//22 141//22 139//21
f 142//22 144//23 143//23 141//22
f 144//23 146//24 145//24 143//23
f 146//24 148//25 147//25 145//24
f 148//25 150//26 149//26 147//25
f 150//26 152//27 151//27 149//26
f 152//27 154//28 153//28 151//27
f 154//28 156//29 155//29 153//28
f 156//29 158//30 157//30 155//29
f 158//30 160//31 159//31 157//30
f 160//31 162//32 161//32 159//31
f 162//32 164//33 163//33 161//32
f 164//33 166//34 165//34 163//33
f 166//34 168//35 167//35 165//34
f 168//35 170//36 169//36 167//35
f 170//36 172//37 171//37 169//36
f 172//37 174//38 173//39 171//37
f 174//38 176//40 175//41 173//39
f 176//40 178//42 177//43 175//41
f 178//42 180//44 179//44 177//43
f 180//44 182//45 181//46 179//44
f 182//45 184//47 183//47 181//46
f 184//47 186//48 185//48 183//47
f 186//48 188//49 187//49 185//48
f 188//49 190//50 189//50 187//49
f 190//50 192//51 191//51 189//50
f 192//51 194//52 193//52 191//51
f 194//52 196//53 195//53 193//52
f 196//53 198//54 197//54 195//53
f 198//54 200//55 199//55 197//54
f 200//55 202//56 201//56 199//55
f 202//56 204//57 203//57 201//56
f 204//57 206//58 205//58 203//57
f 206//58 208//59 207//60 205//58
f 208//59 106//3 105//5 207//60
f 210//61 212//62 211//62 209//61
f 212//62 214//63 213//63 211//62
f 214//63 216//64 215//64 213//63
f 216//64 218//65 217//65 215//64
f 218//65 220//66 219//66 217//65
f 220//66 222//67 221//67 219//66
f 222//67 224//68 223//68 221//67
f 224//68 226//69 225//69 223//68
f 226//69 228//70 227//70 225//69
f 228//70 230//71 229//71 227//70
f 230//71 232//72 231//72 229//71
f 232//72 234//73 233//73 231//72
f 234//73 236//74 235//74 233//73
f 236//74 238//75 237//75 235//74
f 238//75 240//76 239//76 237//75
f 240//76 242//77 241//77 239//76
f 242//77 244//78 243//78 241//77
f 244//78 246//79 245//79 243//78
f 246//79 248//80 247//80 245//79
f 248//80 250//81 249//81 247//80
f 250//81 252//82 251//82 249//81
f 252//82 254//83 253//83 251//82
f 254//83 256//84 255//84 253//83
f 256//84 258//85 257//85 255//84
f 258//85 260//86 259//86 257//85
f 260//86 262//87 261//87 259//86
f 262//87 264//88 263//88 261//87
f 264//88 266//89 265//89 263//88
f 266//89 268//90 267//90 265//89
f 268//90 270//91 269//91 267//90
f 270//91 272//92 271//92 269//91
f 272//92 274//93 273//93 271//92
f 274//93 276//94 275//94 273//93
f 276//94 278//95 277//95 275//94
f 278//95 280//96 279//96 277//95
f 280//96 282//97 281//97 279//96
f 282//97 284//98 283//98 281//97
f 284//98 286//99 285//99 283//98
f 286//99 288//100 287//100 285//99
f 288//100 290//101 289//101 287//100
f 290//101 292//102 291//102 289//101
f 292//102 294//103 293//103 291//102
f 294//103 296//104 295//104 293//103
f 296//104 298//105 297//105 295//104
f 298//105 300//106 299//106 297//105
f 300//106 302//107 301//107 299//106
f 302//107 304//108 303//108 301//107
f 304//108 306//109 305//109 303//108
f 306//109 308//110 307//110 305//109
f 308//110 310//111 309//111 307//110
f 310//111 312//60 311//60 309//111
f 312//60 210//61 209//61 311//60
f 314//5 316//112 315//112 313//113
f 316//112 318//114 317//114 315//112
f 318//114 320//115 319//115 317//114
f 320//115 322//116 321//116 319//115
f 322//116 324//117 323//117 321//116
f 324//117 326//118 325//118 323//117
f 326//118 328//119 327//119 325//118
f 328//119 330//120 329//120 327//119
f 330//120 332//121 331//121 329//120
f 332//121 334//122 333//122 331//121
f 334//122 336//123 335//123 333//122
f 336//123 338//124 337//124 335//123
f 338//124 340//125 339//125 337//124
f 340//125 342//126 341//126 339//125
f 342//126 344//127 343//127 341//126
f 344//127 346//128 345//128 343//127
f 346//128 348//129 347//129 345//128
f 348//129 350//130 349//130 347//129
f 350//130 352//131 351//131 349//130
f 352//131 354//132 353//132 351//131
f 354//132 356//133 355//133 353//132
f 356//133 358//134 357//134 355//133
f 358//134 360//135 359//135 357//134
f 360//135 362//136 361//136 359//135
f 362//136 364//137 363//137 361//136
f 364//137 366//138 365//138 363//137
f 366//138 368//139 367//139 365//138
f 368//139 370//140 369//140 367//139
f 370//140 372//141 371//141 369//140
f 372//141 374//142 373//142 371//141
f 374//142 376//143 375//143 373//142
f 376//143 378//144 377//144 375//143
f 378//144 380//145 379//145 377//144
f 380//145 382//146 381//147 379//145
f 382//146 384//148 383//149 381//147
f 384//148 386//150 385//151 383//149
f 386//150 388//152 387//152 385//151
f 388//152 390//153 389//154 387//152
f 390//153 392//155 391//155 389//154
f 392//155 394//156 393//156 391//155
f 394//156 396//157 395//157 393//156
f 396//157 398//158 397//158 395//157
f 398//158 400//159 399//159 397//158
f 400//159 402//160 401//160 399//159
f 402//160 404//161 403//161 401//160
f 404//161 406//162 405//162 403//161
f 406//162 408//163 407//163 405//162
f 408//163 410//164 409//164 407//163
f 410//164 412//165 411//165 409//164
f 412//165 414//166 413//166 411//165
f 414//166 416//60 415//167 413//166
f 416//60 314//5 313//113 415//167
