# Blender v2.79 (sub 0) OBJ File: 'unicode_to_obj.blend'
# www.blender.org
mtllib 00C1.mtl
o Text_CUText.1072
v 0.333000 -0.727000 -0.060000
v 0.278000 -0.727000 -0.060000
v 0.345000 -0.874000 -0.060000
v 0.445000 -0.874000 -0.060000
v 0.567000 -0.000000 -0.060000
v 0.476000 -0.201000 -0.060000
v 0.186000 -0.201000 -0.060000
v 0.100000 -0.000000 -0.060000
v 0.000000 -0.000000 -0.060000
v 0.293000 -0.686000 -0.060000
v 0.362000 -0.686000 -0.060000
v 0.667000 -0.000000 -0.060000
v 0.436000 -0.289000 -0.060000
v 0.326000 -0.536000 -0.060000
v 0.224000 -0.289000 -0.060000
v 0.333000 -0.727000 0.060000
v 0.278000 -0.727000 0.060000
v 0.345000 -0.874000 0.060000
v 0.445000 -0.874000 0.060000
v 0.567000 -0.000000 0.060000
v 0.476000 -0.201000 0.060000
v 0.186000 -0.201000 0.060000
v 0.100000 -0.000000 0.060000
v 0.000000 -0.000000 0.060000
v 0.293000 -0.686000 0.060000
v 0.362000 -0.686000 0.060000
v 0.667000 -0.000000 0.060000
v 0.436000 -0.289000 0.060000
v 0.326000 -0.536000 0.060000
v 0.224000 -0.289000 0.060000
v 0.567000 -0.000000 0.060000
v 0.554101 0.020000 0.040000
v 0.476000 -0.201000 0.060000
v 0.463101 -0.181000 0.040000
v 0.186000 -0.201000 0.060000
v 0.199197 -0.181000 0.040000
v 0.100000 -0.000000 0.060000
v 0.113197 0.020000 0.040000
v 0.000000 -0.000000 0.060000
v -0.030290 0.020000 0.040000
v 0.293000 -0.686000 0.060000
v 0.279794 -0.706000 0.040000
v 0.362000 -0.686000 0.060000
v 0.374996 -0.706000 0.040000
v 0.667000 -0.000000 0.060000
v 0.697780 0.020000 0.040000
v 0.554101 0.020000 0.040000
v 0.554101 0.020000 -0.040000
v 0.463101 -0.181000 0.040000
v 0.463101 -0.181000 -0.040000
v 0.199197 -0.181000 0.040000
v 0.199197 -0.181000 -0.040000
v 0.113197 0.020000 0.040000
v 0.113197 0.020000 -0.040000
v -0.030290 0.020000 0.040000
v -0.030290 0.020000 -0.040000
v 0.279794 -0.706000 0.040000
v 0.279794 -0.706000 -0.040000
v 0.374996 -0.706000 0.040000
v 0.374996 -0.706000 -0.040000
v 0.697780 0.020000 0.040000
v 0.697780 0.020000 -0.040000
v 0.554101 0.020000 -0.040000
v 0.567000 -0.000000 -0.060000
v 0.463101 -0.181000 -0.040000
v 0.476000 -0.201000 -0.060000
v 0.199197 -0.181000 -0.040000
v 0.186000 -0.201000 -0.060000
v 0.113197 0.020000 -0.040000
v 0.100000 -0.000000 -0.060000
v -0.030290 0.020000 -0.040000
v 0.000000 -0.000000 -0.060000
v 0.279794 -0.706000 -0.040000
v 0.293000 -0.686000 -0.060000
v 0.374996 -0.706000 -0.040000
v 0.362000 -0.686000 -0.060000
v 0.697780 0.020000 -0.040000
v 0.667000 -0.000000 -0.060000
v 0.436000 -0.289000 0.060000
v 0.405199 -0.309000 0.040000
v 0.326000 -0.536000 0.060000
v 0.326694 -0.485281 0.040000
v 0.224000 -0.289000 0.060000
v 0.253897 -0.309000 0.040000
v 0.405199 -0.309000 0.040000
v 0.405199 -0.309000 -0.040000
v 0.326694 -0.485281 0.040000
v 0.326694 -0.485281 -0.040000
v 0.253897 -0.309000 0.040000
v 0.253897 -0.309000 -0.040000
v 0.405199 -0.309000 -0.040000
v 0.436000 -0.289000 -0.060000
v 0.326694 -0.485281 -0.040000
v 0.326000 -0.536000 -0.060000
v 0.253897 -0.309000 -0.040000
v 0.224000 -0.289000 -0.060000
v 0.333000 -0.727000 0.060000
v 0.342905 -0.707000 0.040000
v 0.278000 -0.727000 0.060000
v 0.246905 -0.707000 0.040000
v 0.345000 -0.874000 0.060000
v 0.332136 -0.894000 0.040000
v 0.445000 -0.874000 0.060000
v 0.485382 -0.894000 0.040000
v 0.342905 -0.707000 0.040000
v 0.342905 -0.707000 -0.040000
v 0.246905 -0.707000 0.040000
v 0.246905 -0.707000 -0.040000
v 0.332136 -0.894000 0.040000
v 0.332136 -0.894000 -0.040000
v 0.485382 -0.894000 0.040000
v 0.485382 -0.894000 -0.040000
v 0.342905 -0.707000 -0.040000
v 0.333000 -0.727000 -0.060000
v 0.246905 -0.707000 -0.040000
v 0.278000 -0.727000 -0.060000
v 0.332136 -0.894000 -0.040000
v 0.345000 -0.874000 -0.060000
v 0.485382 -0.894000 -0.040000
v 0.445000 -0.874000 -0.060000
vn 0.0000 0.0000 -1.0000
vn 0.0000 0.0000 1.0000
vn -0.3487 0.5406 0.7656
vn 0.3529 0.5348 0.7677
vn -0.4027 0.2659 0.8758
vn -0.3530 -0.5347 0.7678
vn 0.3501 -0.5388 0.7663
vn 0.4012 0.2607 0.8781
vn -0.5420 0.8404 0.0000
vn 0.5507 0.8347 0.0000
vn -0.8345 0.5510 0.0000
vn -0.5510 -0.8345 0.0000
vn 0.5448 -0.8385 0.0000
vn 0.8385 0.5448 0.0000
vn -0.3487 0.5406 -0.7656
vn 0.3529 0.5348 -0.7677
vn -0.4027 0.2659 -0.8758
vn -0.3530 -0.5347 -0.7678
vn 0.3501 -0.5388 -0.7663
vn 0.4012 0.2607 -0.8781
vn -0.4011 -0.2604 0.8782
vn 0.0050 0.3668 0.9303
vn 0.4039 -0.2702 0.8740
vn -0.8387 -0.5446 0.0000
vn 0.0137 0.9999 0.0000
vn 0.8311 -0.5560 0.0000
vn -0.4011 -0.2604 -0.8782
vn 0.0050 0.3668 -0.9303
vn 0.4039 -0.2702 -0.8740
vn 0.2962 0.5980 0.7447
vn -0.4002 0.2574 0.8795
vn -0.3482 -0.5413 0.7653
vn 0.3635 -0.1800 0.9140
vn 0.4438 0.8961 0.0000
vn -0.8410 0.5409 0.0000
vn -0.5409 -0.8410 0.0000
vn 0.8961 -0.4438 0.0000
vn 0.2962 0.5980 -0.7447
vn -0.4002 0.2574 -0.8795
vn -0.3482 -0.5413 -0.7653
vn 0.3635 -0.1800 -0.9140
usemtl None
s off
f 9//1 11//1 10//1
f 9//1 14//1 11//1
f 14//1 12//1 11//1
f 9//1 15//1 14//1
f 13//1 12//1 14//1
f 9//1 7//1 15//1
f 7//1 13//1 15//1
f 7//1 6//1 13//1
f 6//1 12//1 13//1
f 9//1 8//1 7//1
f 5//1 12//1 6//1
f 2//1 4//1 3//1
f 2//1 1//1 4//1
f 26//2 24//2 25//2
f 29//2 24//2 26//2
f 27//2 29//2 26//2
f 30//2 24//2 29//2
f 27//2 28//2 29//2
f 22//2 24//2 30//2
f 28//2 22//2 30//2
f 21//2 22//2 28//2
f 27//2 21//2 28//2
f 23//2 24//2 22//2
f 27//2 20//2 21//2
f 19//2 17//2 18//2
f 16//2 17//2 19//2
s 1
f 32//3 34//3 33//3 31//3
f 34//3 36//4 35//4 33//3
f 36//4 38//4 37//4 35//4
f 38//4 40//5 39//5 37//4
f 40//5 42//6 41//6 39//5
f 42//6 44//7 43//7 41//6
f 44//7 46//8 45//8 43//7
f 46//8 32//3 31//3 45//8
f 48//9 50//9 49//9 47//9
f 50//9 52//10 51//10 49//9
f 52//10 54//10 53//10 51//10
f 54//10 56//11 55//11 53//10
f 56//11 58//12 57//12 55//11
f 58//12 60//13 59//13 57//12
f 60//13 62//14 61//14 59//13
f 62//14 48//9 47//9 61//14
f 64//15 66//15 65//15 63//15
f 66//15 68//16 67//16 65//15
f 68//16 70//16 69//16 67//16
f 70//16 72//17 71//17 69//16
f 72//17 74//18 73//18 71//17
f 74//18 76//19 75//19 73//18
f 76//19 78//20 77//20 75//19
f 78//20 64//15 63//15 77//20
f 80//21 82//22 81//22 79//21
f 82//22 84//23 83//23 81//22
f 84//23 80//21 79//21 83//23
f 86//24 88//25 87//25 85//24
f 88//25 90//26 89//26 87//25
f 90//26 86//24 85//24 89//26
f 92//27 94//28 93//28 91//27
f 94//28 96//29 95//29 93//28
f 96//29 92//27 91//27 95//29
f 98//30 100//31 99//31 97//30
f 100//31 102//32 101//32 99//31
f 102//32 104//33 103//33 101//32
f 104//33 98//30 97//30 103//33
f 106//34 108//35 107//35 105//34
f 108//35 110//36 109//36 107//35
f 110//36 112//37 111//37 109//36
f 112//37 106//34 105//34 111//37
f 114//38 116//39 115//39 113//38
f 116//39 118//40 117//40 115//39
f 118//40 120//41 119//41 117//40
f 120//41 114//38 113//38 119//41
