# Blender v2.79 (sub 0) OBJ File: 'unicode_to_obj.blend'
# www.blender.org
mtllib 00C2.mtl
o Text_CUText.1073
v 0.418000 -0.726000 -0.060000
v 0.331000 -0.813000 -0.060000
v 0.248000 -0.726000 -0.060000
v 0.195000 -0.726000 -0.060000
v 0.286000 -0.877000 -0.060000
v 0.379000 -0.877000 -0.060000
v 0.473000 -0.726000 -0.060000
v 0.567000 -0.000000 -0.060000
v 0.476000 -0.201000 -0.060000
v 0.186000 -0.201000 -0.060000
v 0.100000 -0.000000 -0.060000
v 0.000000 -0.000000 -0.060000
v 0.293000 -0.686000 -0.060000
v 0.362000 -0.686000 -0.060000
v 0.667000 -0.000000 -0.060000
v 0.436000 -0.289000 -0.060000
v 0.326000 -0.536000 -0.060000
v 0.224000 -0.289000 -0.060000
v 0.418000 -0.726000 0.060000
v 0.331000 -0.813000 0.060000
v 0.248000 -0.726000 0.060000
v 0.195000 -0.726000 0.060000
v 0.286000 -0.877000 0.060000
v 0.379000 -0.877000 0.060000
v 0.473000 -0.726000 0.060000
v 0.567000 -0.000000 0.060000
v 0.476000 -0.201000 0.060000
v 0.186000 -0.201000 0.060000
v 0.100000 -0.000000 0.060000
v 0.000000 -0.000000 0.060000
v 0.293000 -0.686000 0.060000
v 0.362000 -0.686000 0.060000
v 0.667000 -0.000000 0.060000
v 0.436000 -0.289000 0.060000
v 0.326000 -0.536000 0.060000
v 0.224000 -0.289000 0.060000
v 0.567000 -0.000000 0.060000
v 0.554101 0.020000 0.040000
v 0.476000 -0.201000 0.060000
v 0.463101 -0.181000 0.040000
v 0.186000 -0.201000 0.060000
v 0.199197 -0.181000 0.040000
v 0.100000 -0.000000 0.060000
v 0.113197 0.020000 0.040000
v 0.000000 -0.000000 0.060000
v -0.030290 0.020000 0.040000
v 0.293000 -0.686000 0.060000
v 0.279794 -0.706000 0.040000
v 0.362000 -0.686000 0.060000
v 0.374996 -0.706000 0.040000
v 0.667000 -0.000000 0.060000
v 0.697780 0.020000 0.040000
v 0.554101 0.020000 0.040000
v 0.554101 0.020000 -0.040000
v 0.463101 -0.181000 0.040000
v 0.463101 -0.181000 -0.040000
v 0.199197 -0.181000 0.040000
v 0.199197 -0.181000 -0.040000
v 0.113197 0.020000 0.040000
v 0.113197 0.020000 -0.040000
v -0.030290 0.020000 0.040000
v -0.030290 0.020000 -0.040000
v 0.279794 -0.706000 0.040000
v 0.279794 -0.706000 -0.040000
v 0.374996 -0.706000 0.040000
v 0.374996 -0.706000 -0.040000
v 0.697780 0.020000 0.040000
v 0.697780 0.020000 -0.040000
v 0.554101 0.020000 -0.040000
v 0.567000 -0.000000 -0.060000
v 0.463101 -0.181000 -0.040000
v 0.476000 -0.201000 -0.060000
v 0.199197 -0.181000 -0.040000
v 0.186000 -0.201000 -0.060000
v 0.113197 0.020000 -0.040000
v 0.100000 -0.000000 -0.060000
v -0.030290 0.020000 -0.040000
v 0.000000 -0.000000 -0.060000
v 0.279794 -0.706000 -0.040000
v 0.293000 -0.686000 -0.060000
v 0.374996 -0.706000 -0.040000
v 0.362000 -0.686000 -0.060000
v 0.697780 0.020000 -0.040000
v 0.667000 -0.000000 -0.060000
v 0.436000 -0.289000 0.060000
v 0.405199 -0.309000 0.040000
v 0.326000 -0.536000 0.060000
v 0.326694 -0.485281 0.040000
v 0.224000 -0.289000 0.060000
v 0.253897 -0.309000 0.040000
v 0.405199 -0.309000 0.040000
v 0.405199 -0.309000 -0.040000
v 0.326694 -0.485281 0.040000
v 0.326694 -0.485281 -0.040000
v 0.253897 -0.309000 0.040000
v 0.253897 -0.309000 -0.040000
v 0.405199 -0.309000 -0.040000
v 0.436000 -0.289000 -0.060000
v 0.326694 -0.485281 -0.040000
v 0.326000 -0.536000 -0.060000
v 0.253897 -0.309000 -0.040000
v 0.224000 -0.289000 -0.060000
v 0.418000 -0.726000 0.060000
v 0.409716 -0.706000 0.040000
v 0.331000 -0.813000 0.060000
v 0.331337 -0.784379 0.040000
v 0.248000 -0.726000 0.060000
v 0.256561 -0.706000 0.040000
v 0.195000 -0.726000 0.060000
v 0.159596 -0.706000 0.040000
v 0.286000 -0.877000 0.060000
v 0.274702 -0.897000 0.040000
v 0.379000 -0.877000 0.060000
v 0.390108 -0.897000 0.040000
v 0.473000 -0.726000 0.060000
v 0.509009 -0.706000 0.040000
v 0.409716 -0.706000 0.040000
v 0.409716 -0.706000 -0.040000
v 0.331337 -0.784379 0.040000
v 0.331337 -0.784379 -0.040000
v 0.256561 -0.706000 0.040000
v 0.256561 -0.706000 -0.040000
v 0.159596 -0.706000 0.040000
v 0.159596 -0.706000 -0.040000
v 0.274702 -0.897000 0.040000
v 0.274702 -0.897000 -0.040000
v 0.390108 -0.897000 0.040000
v 0.390108 -0.897000 -0.040000
v 0.509009 -0.706000 0.040000
v 0.509009 -0.706000 -0.040000
v 0.409716 -0.706000 -0.040000
v 0.418000 -0.726000 -0.060000
v 0.331337 -0.784379 -0.040000
v 0.331000 -0.813000 -0.060000
v 0.256561 -0.706000 -0.040000
v 0.248000 -0.726000 -0.060000
v 0.159596 -0.706000 -0.040000
v 0.195000 -0.726000 -0.060000
v 0.274702 -0.897000 -0.040000
v 0.286000 -0.877000 -0.060000
v 0.390108 -0.897000 -0.040000
v 0.379000 -0.877000 -0.060000
v 0.509009 -0.706000 -0.040000
v 0.473000 -0.726000 -0.060000
vn 0.0000 0.0000 -1.0000
vn 0.0000 0.0000 1.0000
vn -0.3487 0.5406 0.7656
vn 0.3529 0.5348 0.7677
vn -0.4027 0.2659 0.8758
vn -0.3530 -0.5347 0.7678
vn 0.3501 -0.5388 0.7663
vn 0.4012 0.2607 0.8781
vn -0.5420 0.8404 0.0000
vn 0.5507 0.8347 0.0000
vn -0.8345 0.5510 0.0000
vn -0.5510 -0.8345 0.0000
vn 0.5448 -0.8385 0.0000
vn 0.8385 0.5448 0.0000
vn -0.3487 0.5406 -0.7656
vn 0.3529 0.5348 -0.7677
vn -0.4027 0.2659 -0.8758
vn -0.3530 -0.5347 -0.7678
vn 0.3501 -0.5388 -0.7663
vn 0.4012 0.2607 -0.8781
vn -0.4011 -0.2604 0.8782
vn 0.0050 0.3668 0.9303
vn 0.4039 -0.2702 0.8740
vn -0.8387 -0.5446 0.0000
vn 0.0137 0.9999 0.0000
vn 0.8311 -0.5560 0.0000
vn -0.4011 -0.2604 -0.8782
vn 0.0050 0.3668 -0.9303
vn 0.4039 -0.2702 -0.8740
vn -0.2597 0.6269 0.7345
vn 0.0067 0.5727 0.8197
vn 0.2663 0.6222 0.7362
vn -0.3843 0.2171 0.8973
vn -0.3230 -0.5717 0.7542
vn 0.3196 -0.5754 0.7529
vn 0.3818 0.2121 0.8996
vn -0.3827 0.9239 0.0000
vn 0.0117 0.9999 0.0000
vn 0.3935 0.9193 0.0000
vn -0.8707 0.4918 0.0000
vn -0.4918 -0.8707 0.0000
vn 0.4855 -0.8742 0.0000
vn 0.8742 0.4855 0.0000
vn -0.2597 0.6269 -0.7345
vn 0.0067 0.5727 -0.8197
vn 0.2663 0.6222 -0.7362
vn -0.3843 0.2171 -0.8973
vn -0.3230 -0.5717 -0.7542
vn 0.3196 -0.5754 -0.7529
vn 0.3818 0.2121 -0.8996
usemtl None
s off
f 12//1 14//1 13//1
f 12//1 17//1 14//1
f 17//1 15//1 14//1
f 12//1 18//1 17//1
f 16//1 15//1 17//1
f 12//1 10//1 18//1
f 10//1 16//1 18//1
f 10//1 9//1 16//1
f 9//1 15//1 16//1
f 12//1 11//1 10//1
f 8//1 15//1 9//1
f 4//1 6//1 5//1
f 4//1 2//1 6//1
f 2//1 7//1 6//1
f 4//1 3//1 2//1
f 1//1 7//1 2//1
f 32//2 30//2 31//2
f 35//2 30//2 32//2
f 33//2 35//2 32//2
f 36//2 30//2 35//2
f 33//2 34//2 35//2
f 28//2 30//2 36//2
f 34//2 28//2 36//2
f 27//2 28//2 34//2
f 33//2 27//2 34//2
f 29//2 30//2 28//2
f 33//2 26//2 27//2
f 24//2 22//2 23//2
f 20//2 22//2 24//2
f 25//2 20//2 24//2
f 21//2 22//2 20//2
f 25//2 19//2 20//2
s 1
f 38//3 40//3 39//3 37//3
f 40//3 42//4 41//4 39//3
f 42//4 44//4 43//4 41//4
f 44//4 46//5 45//5 43//4
f 46//5 48//6 47//6 45//5
f 48//6 50//7 49//7 47//6
f 50//7 52//8 51//8 49//7
f 52//8 38//3 37//3 51//8
f 54//9 56//9 55//9 53//9
f 56//9 58//10 57//10 55//9
f 58//10 60//10 59//10 57//10
f 60//10 62//11 61//11 59//10
f 62//11 64//12 63//12 61//11
f 64//12 66//13 65//13 63//12
f 66//13 68//14 67//14 65//13
f 68//14 54//9 53//9 67//14
f 70//15 72//15 71//15 69//15
f 72//15 74//16 73//16 71//15
f 74//16 76//16 75//16 73//16
f 76//16 78//17 77//17 75//16
f 78//17 80//18 79//18 77//17
f 80//18 82//19 81//19 79//18
f 82//19 84//20 83//20 81//19
f 84//20 70//15 69//15 83//20
f 86//21 88//22 87//22 85//21
f 88//22 90//23 89//23 87//22
f 90//23 86//21 85//21 89//23
f 92//24 94//25 93//25 91//24
f 94//25 96//26 95//26 93//25
f 96//26 92//24 91//24 95//26
f 98//27 100//28 99//28 97//27
f 100//28 102//29 101//29 99//28
f 102//29 98//27 97//27 101//29
f 104//30 106//31 105//31 103//30
f 106//31 108//32 107//32 105//31
f 108//32 110//33 109//33 107//32
f 110//33 112//34 111//34 109//33
f 112//34 114//35 113//35 111//34
f 114//35 116//36 115//36 113//35
f 116//36 104//30 103//30 115//36
f 118//37 120//38 119//38 117//37
f 120//38 122//39 121//39 119//38
f 122//39 124//40 123//40 121//39
f 124//40 126//41 125//41 123//40
f 126//41 128//42 127//42 125//41
f 128//42 130//43 129//43 127//42
f 130//43 118//37 117//37 129//43
f 132//44 134//45 133//45 131//44
f 134//45 136//46 135//46 133//45
f 136//46 138//47 137//47 135//46
f 138//47 140//48 139//48 137//47
f 140//48 142//49 141//49 139//48
f 142//49 144//50 143//50 141//49
f 144//50 132//44 131//44 143//50
