# Blender v2.79 (sub 0) OBJ File: 'unicode_to_obj.blend'
# www.blender.org
mtllib 00C6.mtl
o Text_CUText.1077
v 0.571000 -0.594000 -0.060000
v 0.571000 -0.389000 -0.060000
v 0.842000 -0.389000 -0.060000
v 0.842000 -0.301000 -0.060000
v 0.571000 -0.301000 -0.060000
v 0.571000 -0.088000 -0.060000
v 0.862000 -0.088000 -0.060000
v 0.862000 -0.000000 -0.060000
v 0.473000 -0.000000 -0.060000
v 0.473000 -0.301000 -0.060000
v 0.282000 -0.301000 -0.060000
v 0.103000 -0.000000 -0.060000
v 0.002000 -0.000000 -0.060000
v 0.406000 -0.682000 -0.060000
v 0.851000 -0.682000 -0.060000
v 0.851000 -0.594000 -0.060000
v 0.473000 -0.389000 -0.060000
v 0.473000 -0.622000 -0.060000
v 0.471000 -0.622000 -0.060000
v 0.332000 -0.389000 -0.060000
v 0.571000 -0.594000 0.060000
v 0.571000 -0.389000 0.060000
v 0.842000 -0.389000 0.060000
v 0.842000 -0.301000 0.060000
v 0.571000 -0.301000 0.060000
v 0.571000 -0.088000 0.060000
v 0.862000 -0.088000 0.060000
v 0.862000 -0.000000 0.060000
v 0.473000 -0.000000 0.060000
v 0.473000 -0.301000 0.060000
v 0.282000 -0.301000 0.060000
v 0.103000 -0.000000 0.060000
v 0.002000 -0.000000 0.060000
v 0.406000 -0.682000 0.060000
v 0.851000 -0.682000 0.060000
v 0.851000 -0.594000 0.060000
v 0.473000 -0.389000 0.060000
v 0.473000 -0.622000 0.060000
v 0.471000 -0.622000 0.060000
v 0.332000 -0.389000 0.060000
v 0.571000 -0.594000 0.060000
v 0.591000 -0.574000 0.040000
v 0.571000 -0.389000 0.060000
v 0.591000 -0.409000 0.040000
v 0.842000 -0.389000 0.060000
v 0.862000 -0.409000 0.040000
v 0.842000 -0.301000 0.060000
v 0.862000 -0.281000 0.040000
v 0.571000 -0.301000 0.060000
v 0.591000 -0.281000 0.040000
v 0.571000 -0.088000 0.060000
v 0.591000 -0.108000 0.040000
v 0.862000 -0.088000 0.060000
v 0.882000 -0.108000 0.040000
v 0.862000 -0.000000 0.060000
v 0.882000 0.020000 0.040000
v 0.473000 -0.000000 0.060000
v 0.453000 0.020000 0.040000
v 0.473000 -0.301000 0.060000
v 0.453000 -0.281000 0.040000
v 0.282000 -0.301000 0.060000
v 0.293376 -0.281000 0.040000
v 0.103000 -0.000000 0.060000
v 0.114376 0.020000 0.040000
v 0.002000 -0.000000 0.060000
v -0.033093 0.020000 0.040000
v 0.406000 -0.682000 0.060000
v 0.394602 -0.702000 0.040000
v 0.851000 -0.682000 0.060000
v 0.871000 -0.702000 0.040000
v 0.851000 -0.594000 0.060000
v 0.871000 -0.574000 0.040000
v 0.591000 -0.574000 0.040000
v 0.591000 -0.574000 -0.040000
v 0.591000 -0.409000 0.040000
v 0.591000 -0.409000 -0.040000
v 0.862000 -0.409000 0.040000
v 0.862000 -0.409000 -0.040000
v 0.862000 -0.281000 0.040000
v 0.862000 -0.281000 -0.040000
v 0.591000 -0.281000 0.040000
v 0.591000 -0.281000 -0.040000
v 0.591000 -0.108000 0.040000
v 0.591000 -0.108000 -0.040000
v 0.882000 -0.108000 0.040000
v 0.882000 -0.108000 -0.040000
v 0.882000 0.020000 0.040000
v 0.882000 0.020000 -0.040000
v 0.453000 0.020000 0.040000
v 0.453000 0.020000 -0.040000
v 0.453000 -0.281000 0.040000
v 0.453000 -0.281000 -0.040000
v 0.293376 -0.281000 0.040000
v 0.293376 -0.281000 -0.040000
v 0.114376 0.020000 0.040000
v 0.114376 0.020000 -0.040000
v -0.033093 0.020000 0.040000
v -0.033093 0.020000 -0.040000
v 0.394602 -0.702000 0.040000
v 0.394602 -0.702000 -0.040000
v 0.871000 -0.702000 0.040000
v 0.871000 -0.702000 -0.040000
v 0.871000 -0.574000 0.040000
v 0.871000 -0.574000 -0.040000
v 0.591000 -0.574000 -0.040000
v 0.571000 -0.594000 -0.060000
v 0.591000 -0.409000 -0.040000
v 0.571000 -0.389000 -0.060000
v 0.862000 -0.409000 -0.040000
v 0.842000 -0.389000 -0.060000
v 0.862000 -0.281000 -0.040000
v 0.842000 -0.301000 -0.060000
v 0.591000 -0.281000 -0.040000
v 0.571000 -0.301000 -0.060000
v 0.591000 -0.108000 -0.040000
v 0.571000 -0.088000 -0.060000
v 0.882000 -0.108000 -0.040000
v 0.862000 -0.088000 -0.060000
v 0.882000 0.020000 -0.040000
v 0.862000 -0.000000 -0.060000
v 0.453000 0.020000 -0.040000
v 0.473000 -0.000000 -0.060000
v 0.453000 -0.281000 -0.040000
v 0.473000 -0.301000 -0.060000
v 0.293376 -0.281000 -0.040000
v 0.282000 -0.301000 -0.060000
v 0.114376 0.020000 -0.040000
v 0.103000 -0.000000 -0.060000
v -0.033093 0.020000 -0.040000
v 0.002000 -0.000000 -0.060000
v 0.394602 -0.702000 -0.040000
v 0.406000 -0.682000 -0.060000
v 0.871000 -0.702000 -0.040000
v 0.851000 -0.682000 -0.060000
v 0.871000 -0.574000 -0.040000
v 0.851000 -0.594000 -0.060000
v 0.473000 -0.389000 0.060000
v 0.453000 -0.409000 0.040000
v 0.473000 -0.622000 0.060000
v 0.453000 -0.602000 0.040000
v 0.471000 -0.622000 0.060000
v 0.482357 -0.602000 0.040000
v 0.332000 -0.389000 0.060000
v 0.367220 -0.409000 0.040000
v 0.453000 -0.409000 0.040000
v 0.453000 -0.409000 -0.040000
v 0.453000 -0.602000 0.040000
v 0.453000 -0.602000 -0.040000
v 0.482357 -0.602000 0.040000
v 0.482357 -0.602000 -0.040000
v 0.367220 -0.409000 0.040000
v 0.367220 -0.409000 -0.040000
v 0.453000 -0.409000 -0.040000
v 0.473000 -0.389000 -0.060000
v 0.453000 -0.602000 -0.040000
v 0.473000 -0.622000 -0.060000
v 0.482357 -0.602000 -0.040000
v 0.471000 -0.622000 -0.060000
v 0.367220 -0.409000 -0.040000
v 0.332000 -0.389000 -0.060000
vn -0.0000 0.0000 -1.0000
vn 0.0000 0.0000 1.0000
vn 0.4082 0.4082 0.8165
vn 0.4082 -0.4082 0.8165
vn -0.4082 0.4082 0.8165
vn 0.3243 0.5702 0.7547
vn -0.3855 0.2197 0.8961
vn -0.3247 -0.5698 0.7549
vn 0.7071 0.7071 0.0000
vn 0.7071 -0.7071 0.0000
vn -0.7071 0.7071 0.0000
vn 0.4944 0.8692 0.0000
vn -0.8688 0.4951 0.0000
vn -0.4951 -0.8688 0.0000
vn 0.4082 0.4082 -0.8165
vn 0.4082 -0.4082 -0.8165
vn -0.4082 0.4082 -0.8165
vn 0.3243 0.5702 -0.7547
vn -0.3855 0.2197 -0.8961
vn -0.3247 -0.5698 -0.7549
vn -0.4082 -0.4082 0.8165
vn -0.8143 -0.3558 0.4585
vn -0.7071 -0.7071 0.0000
vn 0.9053 -0.1018 0.4123
vn 0.8696 -0.4938 0.0000
vn 0.3850 -0.2186 0.8966
vn -0.4082 -0.4082 -0.8165
vn -0.8143 -0.3558 -0.4585
vn 0.9053 -0.1018 -0.4123
vn 0.3850 -0.2186 -0.8966
usemtl None
s off
f 13//1 19//1 14//1
f 19//1 15//1 14//1
f 19//1 18//1 15//1
f 18//1 16//1 15//1
f 13//1 20//1 19//1
f 17//1 1//1 18//1
f 1//1 16//1 18//1
f 17//1 2//1 1//1
f 13//1 11//1 20//1
f 11//1 17//1 20//1
f 11//1 2//1 17//1
f 11//1 3//1 2//1
f 11//1 4//1 3//1
f 13//1 12//1 11//1
f 10//2 4//2 11//2
f 9//1 5//1 10//1
f 5//2 4//2 10//2
f 9//1 6//1 5//1
f 9//1 7//1 6//1
f 9//1 8//1 7//1
f 39//2 33//2 34//2
f 35//2 39//2 34//2
f 38//2 39//2 35//2
f 36//2 38//2 35//2
f 40//2 33//2 39//2
f 21//2 37//2 38//2
f 36//2 21//2 38//2
f 22//2 37//2 21//2
f 31//2 33//2 40//2
f 37//2 31//2 40//2
f 22//2 31//2 37//2
f 23//2 31//2 22//2
f 24//2 31//2 23//2
f 32//2 33//2 31//2
f 24//1 30//1 31//1
f 25//2 29//2 30//2
f 24//2 25//2 30//2
f 26//2 29//2 25//2
f 27//2 29//2 26//2
f 28//2 29//2 27//2
s 1
f 42//3 44//4 43//4 41//3
f 44//4 46//4 45//4 43//4
f 46//4 48//3 47//3 45//4
f 48//3 50//3 49//3 47//3
f 50//3 52//4 51//4 49//3
f 52//4 54//4 53//4 51//4
f 54//4 56//3 55//3 53//4
f 56//3 58//5 57//5 55//3
f 58//5 60//5 59//5 57//5
f 60//5 62//6 61//6 59//5
f 62//6 64//6 63//6 61//6
f 64//6 66//7 65//7 63//6
f 66//7 68//8 67//8 65//7
f 68//8 70//4 69//4 67//8
f 70//4 72//3 71//3 69//4
f 72//3 42//3 41//3 71//3
f 74//9 76//10 75//10 73//9
f 76//10 78//10 77//10 75//10
f 78//10 80//9 79//9 77//10
f 80//9 82//9 81//9 79//9
f 82//9 84//10 83//10 81//9
f 84//10 86//10 85//10 83//10
f 86//10 88//9 87//9 85//10
f 88//9 90//11 89//11 87//9
f 90//11 92//11 91//11 89//11
f 92//11 94//12 93//12 91//11
f 94//12 96//12 95//12 93//12
f 96//12 98//13 97//13 95//12
f 98//13 100//14 99//14 97//13
f 100//14 102//10 101//10 99//14
f 102//10 104//9 103//9 101//10
f 104//9 74//9 73//9 103//9
f 106//15 108//16 107//16 105//15
f 108//16 110//16 109//16 107//16
f 110//16 112//15 111//15 109//16
f 112//15 114//15 113//15 111//15
f 114//15 116//16 115//16 113//15
f 116//16 118//16 117//16 115//16
f 118//16 120//15 119//15 117//16
f 120//15 122//17 121//17 119//15
f 122//17 124//17 123//17 121//17
f 124//17 126//18 125//18 123//17
f 126//18 128//18 127//18 125//18
f 128//18 130//19 129//19 127//18
f 130//19 132//20 131//20 129//19
f 132//20 134//16 133//16 131//20
f 134//16 136//15 135//15 133//16
f 136//15 106//15 105//15 135//15
f 138//21 140//22 139//23 137//21
f 140//22 142//24 141//25 139//23
f 142//24 144//26 143//26 141//25
f 144//26 138//21 137//21 143//26
f 146//23 148//23 147//23 145//23
f 148//23 150//25 149//25 147//23
f 150//25 152//25 151//25 149//25
f 152//25 146//23 145//23 151//25
f 154//27 156//23 155//28 153//27
f 156//23 158//25 157//29 155//28
f 158//25 160//30 159//30 157//29
f 160//30 154//27 153//27 159//30
