# Blender v2.79 (sub 0) OBJ File: 'unicode_to_obj.blend'
# www.blender.org
mtllib 00C9.mtl
o Text_CUText.1080
v 0.250000 -0.727000 -0.060000
v 0.195000 -0.727000 -0.060000
v 0.262000 -0.874000 -0.060000
v 0.362000 -0.874000 -0.060000
v 0.173000 -0.594000 -0.060000
v 0.173000 -0.388000 -0.060000
v 0.452000 -0.388000 -0.060000
v 0.452000 -0.300000 -0.060000
v 0.173000 -0.300000 -0.060000
v 0.173000 -0.088000 -0.060000
v 0.471000 -0.088000 -0.060000
v 0.471000 -0.000000 -0.060000
v 0.075000 -0.000000 -0.060000
v 0.075000 -0.682000 -0.060000
v 0.462000 -0.682000 -0.060000
v 0.462000 -0.594000 -0.060000
v 0.250000 -0.727000 0.060000
v 0.195000 -0.727000 0.060000
v 0.262000 -0.874000 0.060000
v 0.362000 -0.874000 0.060000
v 0.173000 -0.594000 0.060000
v 0.173000 -0.388000 0.060000
v 0.452000 -0.388000 0.060000
v 0.452000 -0.300000 0.060000
v 0.173000 -0.300000 0.060000
v 0.173000 -0.088000 0.060000
v 0.471000 -0.088000 0.060000
v 0.471000 -0.000000 0.060000
v 0.075000 -0.000000 0.060000
v 0.075000 -0.682000 0.060000
v 0.462000 -0.682000 0.060000
v 0.462000 -0.594000 0.060000
v 0.173000 -0.594000 0.060000
v 0.193000 -0.574000 0.040000
v 0.173000 -0.388000 0.060000
v 0.193000 -0.408000 0.040000
v 0.452000 -0.388000 0.060000
v 0.472000 -0.408000 0.040000
v 0.452000 -0.300000 0.060000
v 0.472000 -0.280000 0.040000
v 0.173000 -0.300000 0.060000
v 0.193000 -0.280000 0.040000
v 0.173000 -0.088000 0.060000
v 0.193000 -0.108000 0.040000
v 0.471000 -0.088000 0.060000
v 0.491000 -0.108000 0.040000
v 0.471000 -0.000000 0.060000
v 0.491000 0.020000 0.040000
v 0.075000 -0.000000 0.060000
v 0.055000 0.020000 0.040000
v 0.075000 -0.682000 0.060000
v 0.055000 -0.702000 0.040000
v 0.462000 -0.682000 0.060000
v 0.482000 -0.702000 0.040000
v 0.462000 -0.594000 0.060000
v 0.482000 -0.574000 0.040000
v 0.193000 -0.574000 0.040000
v 0.193000 -0.574000 -0.040000
v 0.193000 -0.408000 0.040000
v 0.193000 -0.408000 -0.040000
v 0.472000 -0.408000 0.040000
v 0.472000 -0.408000 -0.040000
v 0.472000 -0.280000 0.040000
v 0.472000 -0.280000 -0.040000
v 0.193000 -0.280000 0.040000
v 0.193000 -0.280000 -0.040000
v 0.193000 -0.108000 0.040000
v 0.193000 -0.108000 -0.040000
v 0.491000 -0.108000 0.040000
v 0.491000 -0.108000 -0.040000
v 0.491000 0.020000 0.040000
v 0.491000 0.020000 -0.040000
v 0.055000 0.020000 0.040000
v 0.055000 0.020000 -0.040000
v 0.055000 -0.702000 0.040000
v 0.055000 -0.702000 -0.040000
v 0.482000 -0.702000 0.040000
v 0.482000 -0.702000 -0.040000
v 0.482000 -0.574000 0.040000
v 0.482000 -0.574000 -0.040000
v 0.193000 -0.574000 -0.040000
v 0.173000 -0.594000 -0.060000
v 0.193000 -0.408000 -0.040000
v 0.173000 -0.388000 -0.060000
v 0.472000 -0.408000 -0.040000
v 0.452000 -0.388000 -0.060000
v 0.472000 -0.280000 -0.040000
v 0.452000 -0.300000 -0.060000
v 0.193000 -0.280000 -0.040000
v 0.173000 -0.300000 -0.060000
v 0.193000 -0.108000 -0.040000
v 0.173000 -0.088000 -0.060000
v 0.491000 -0.108000 -0.040000
v 0.471000 -0.088000 -0.060000
v 0.491000 0.020000 -0.040000
v 0.471000 -0.000000 -0.060000
v 0.055000 0.020000 -0.040000
v 0.075000 -0.000000 -0.060000
v 0.055000 -0.702000 -0.040000
v 0.075000 -0.682000 -0.060000
v 0.482000 -0.702000 -0.040000
v 0.462000 -0.682000 -0.060000
v 0.482000 -0.574000 -0.040000
v 0.462000 -0.594000 -0.060000
v 0.250000 -0.727000 0.060000
v 0.259905 -0.707000 0.040000
v 0.195000 -0.727000 0.060000
v 0.163905 -0.707000 0.040000
v 0.262000 -0.874000 0.060000
v 0.249136 -0.894000 0.040000
v 0.362000 -0.874000 0.060000
v 0.402382 -0.894000 0.040000
v 0.259905 -0.707000 0.040000
v 0.259905 -0.707000 -0.040000
v 0.163905 -0.707000 0.040000
v 0.163905 -0.707000 -0.040000
v 0.249136 -0.894000 0.040000
v 0.249136 -0.894000 -0.040000
v 0.402382 -0.894000 0.040000
v 0.402382 -0.894000 -0.040000
v 0.259905 -0.707000 -0.040000
v 0.250000 -0.727000 -0.060000
v 0.163905 -0.707000 -0.040000
v 0.195000 -0.727000 -0.060000
v 0.249136 -0.894000 -0.040000
v 0.262000 -0.874000 -0.060000
v 0.402382 -0.894000 -0.040000
v 0.362000 -0.874000 -0.060000
vn -0.0000 0.0000 -1.0000
vn 0.0000 0.0000 1.0000
vn 0.4082 0.4082 0.8165
vn 0.4082 -0.4082 0.8165
vn -0.4082 0.4082 0.8165
vn -0.4082 -0.4082 0.8165
vn 0.7071 0.7071 0.0000
vn 0.7071 -0.7071 0.0000
vn -0.7071 0.7071 0.0000
vn -0.7071 -0.7071 0.0000
vn 0.4082 0.4082 -0.8165
vn 0.4082 -0.4082 -0.8165
vn -0.4082 0.4082 -0.8165
vn -0.4082 -0.4082 -0.8165
vn 0.2962 0.5980 0.7447
vn -0.4002 0.2574 0.8795
vn -0.3482 -0.5413 0.7653
vn 0.3635 -0.1800 0.9140
vn 0.4438 0.8961 0.0000
vn -0.8410 0.5409 0.0000
vn -0.5409 -0.8410 0.0000
vn 0.8961 -0.4438 0.0000
vn 0.2962 0.5980 -0.7447
vn -0.4002 0.2574 -0.8795
vn -0.3482 -0.5413 -0.7653
vn 0.3635 -0.1800 -0.9140
usemtl None
s off
f 13//1 5//1 14//1
f 5//1 15//1 14//1
f 5//1 16//1 15//1
f 13//1 6//1 5//1
f 13//1 9//1 6//1
f 9//1 7//1 6//1
f 9//1 8//1 7//1
f 13//1 10//1 9//1
f 13//1 11//1 10//1
f 13//1 12//1 11//1
f 2//1 4//1 3//1
f 2//1 1//1 4//1
f 21//2 29//2 30//2
f 31//2 21//2 30//2
f 32//2 21//2 31//2
f 22//2 29//2 21//2
f 25//2 29//2 22//2
f 23//2 25//2 22//2
f 24//2 25//2 23//2
f 26//2 29//2 25//2
f 27//2 29//2 26//2
f 28//2 29//2 27//2
f 20//2 18//2 19//2
f 17//2 18//2 20//2
s 1
f 34//3 36//4 35//4 33//3
f 36//4 38//4 37//4 35//4
f 38//4 40//3 39//3 37//4
f 40//3 42//3 41//3 39//3
f 42//3 44//4 43//4 41//3
f 44//4 46//4 45//4 43//4
f 46//4 48//3 47//3 45//4
f 48//3 50//5 49//5 47//3
f 50//5 52//6 51//6 49//5
f 52//6 54//4 53//4 51//6
f 54//4 56//3 55//3 53//4
f 56//3 34//3 33//3 55//3
f 58//7 60//8 59//8 57//7
f 60//8 62//8 61//8 59//8
f 62//8 64//7 63//7 61//8
f 64//7 66//7 65//7 63//7
f 66//7 68//8 67//8 65//7
f 68//8 70//8 69//8 67//8
f 70//8 72//7 71//7 69//8
f 72//7 74//9 73//9 71//7
f 74//9 76//10 75//10 73//9
f 76//10 78//8 77//8 75//10
f 78//8 80//7 79//7 77//8
f 80//7 58//7 57//7 79//7
f 82//11 84//12 83//12 81//11
f 84//12 86//12 85//12 83//12
f 86//12 88//11 87//11 85//12
f 88//11 90//11 89//11 87//11
f 90//11 92//12 91//12 89//11
f 92//12 94//12 93//12 91//12
f 94//12 96//11 95//11 93//12
f 96//11 98//13 97//13 95//11
f 98//13 100//14 99//14 97//13
f 100//14 102//12 101//12 99//14
f 102//12 104//11 103//11 101//12
f 104//11 82//11 81//11 103//11
f 106//15 108//16 107//16 105//15
f 108//16 110//17 109//17 107//16
f 110//17 112//18 111//18 109//17
f 112//18 106//15 105//15 111//18
f 114//19 116//20 115//20 113//19
f 116//20 118//21 117//21 115//20
f 118//21 120//22 119//22 117//21
f 120//22 114//19 113//19 119//22
f 122//23 124//24 123//24 121//23
f 124//24 126//25 125//25 123//24
f 126//25 128//26 127//26 125//25
f 128//26 122//23 121//23 127//26
