# Blender v2.79 (sub 0) OBJ File: 'unicode_to_obj.blend'
# www.blender.org
mtllib 00CA.mtl
o Text_CUText.1081
v 0.335000 -0.726000 -0.060000
v 0.248000 -0.813000 -0.060000
v 0.165000 -0.726000 -0.060000
v 0.112000 -0.726000 -0.060000
v 0.203000 -0.877000 -0.060000
v 0.296000 -0.877000 -0.060000
v 0.390000 -0.726000 -0.060000
v 0.173000 -0.594000 -0.060000
v 0.173000 -0.388000 -0.060000
v 0.452000 -0.388000 -0.060000
v 0.452000 -0.300000 -0.060000
v 0.173000 -0.300000 -0.060000
v 0.173000 -0.088000 -0.060000
v 0.471000 -0.088000 -0.060000
v 0.471000 -0.000000 -0.060000
v 0.075000 -0.000000 -0.060000
v 0.075000 -0.682000 -0.060000
v 0.462000 -0.682000 -0.060000
v 0.462000 -0.594000 -0.060000
v 0.335000 -0.726000 0.060000
v 0.248000 -0.813000 0.060000
v 0.165000 -0.726000 0.060000
v 0.112000 -0.726000 0.060000
v 0.203000 -0.877000 0.060000
v 0.296000 -0.877000 0.060000
v 0.390000 -0.726000 0.060000
v 0.173000 -0.594000 0.060000
v 0.173000 -0.388000 0.060000
v 0.452000 -0.388000 0.060000
v 0.452000 -0.300000 0.060000
v 0.173000 -0.300000 0.060000
v 0.173000 -0.088000 0.060000
v 0.471000 -0.088000 0.060000
v 0.471000 -0.000000 0.060000
v 0.075000 -0.000000 0.060000
v 0.075000 -0.682000 0.060000
v 0.462000 -0.682000 0.060000
v 0.462000 -0.594000 0.060000
v 0.173000 -0.594000 0.060000
v 0.193000 -0.574000 0.040000
v 0.173000 -0.388000 0.060000
v 0.193000 -0.408000 0.040000
v 0.452000 -0.388000 0.060000
v 0.472000 -0.408000 0.040000
v 0.452000 -0.300000 0.060000
v 0.472000 -0.280000 0.040000
v 0.173000 -0.300000 0.060000
v 0.193000 -0.280000 0.040000
v 0.173000 -0.088000 0.060000
v 0.193000 -0.108000 0.040000
v 0.471000 -0.088000 0.060000
v 0.491000 -0.108000 0.040000
v 0.471000 -0.000000 0.060000
v 0.491000 0.020000 0.040000
v 0.075000 -0.000000 0.060000
v 0.055000 0.020000 0.040000
v 0.075000 -0.682000 0.060000
v 0.055000 -0.702000 0.040000
v 0.462000 -0.682000 0.060000
v 0.482000 -0.702000 0.040000
v 0.462000 -0.594000 0.060000
v 0.482000 -0.574000 0.040000
v 0.193000 -0.574000 0.040000
v 0.193000 -0.574000 -0.040000
v 0.193000 -0.408000 0.040000
v 0.193000 -0.408000 -0.040000
v 0.472000 -0.408000 0.040000
v 0.472000 -0.408000 -0.040000
v 0.472000 -0.280000 0.040000
v 0.472000 -0.280000 -0.040000
v 0.193000 -0.280000 0.040000
v 0.193000 -0.280000 -0.040000
v 0.193000 -0.108000 0.040000
v 0.193000 -0.108000 -0.040000
v 0.491000 -0.108000 0.040000
v 0.491000 -0.108000 -0.040000
v 0.491000 0.020000 0.040000
v 0.491000 0.020000 -0.040000
v 0.055000 0.020000 0.040000
v 0.055000 0.020000 -0.040000
v 0.055000 -0.702000 0.040000
v 0.055000 -0.702000 -0.040000
v 0.482000 -0.702000 0.040000
v 0.482000 -0.702000 -0.040000
v 0.482000 -0.574000 0.040000
v 0.482000 -0.574000 -0.040000
v 0.193000 -0.574000 -0.040000
v 0.173000 -0.594000 -0.060000
v 0.193000 -0.408000 -0.040000
v 0.173000 -0.388000 -0.060000
v 0.472000 -0.408000 -0.040000
v 0.452000 -0.388000 -0.060000
v 0.472000 -0.280000 -0.040000
v 0.452000 -0.300000 -0.060000
v 0.193000 -0.280000 -0.040000
v 0.173000 -0.300000 -0.060000
v 0.193000 -0.108000 -0.040000
v 0.173000 -0.088000 -0.060000
v 0.491000 -0.108000 -0.040000
v 0.471000 -0.088000 -0.060000
v 0.491000 0.020000 -0.040000
v 0.471000 -0.000000 -0.060000
v 0.055000 0.020000 -0.040000
v 0.075000 -0.000000 -0.060000
v 0.055000 -0.702000 -0.040000
v 0.075000 -0.682000 -0.060000
v 0.482000 -0.702000 -0.040000
v 0.462000 -0.682000 -0.060000
v 0.482000 -0.574000 -0.040000
v 0.462000 -0.594000 -0.060000
v 0.335000 -0.726000 0.060000
v 0.326716 -0.706000 0.040000
v 0.248000 -0.813000 0.060000
v 0.248337 -0.784379 0.040000
v 0.165000 -0.726000 0.060000
v 0.173561 -0.706000 0.040000
v 0.112000 -0.726000 0.060000
v 0.076596 -0.706000 0.040000
v 0.203000 -0.877000 0.060000
v 0.191702 -0.897000 0.040000
v 0.296000 -0.877000 0.060000
v 0.307108 -0.897000 0.040000
v 0.390000 -0.726000 0.060000
v 0.426009 -0.706000 0.040000
v 0.326716 -0.706000 0.040000
v 0.326716 -0.706000 -0.040000
v 0.248337 -0.784379 0.040000
v 0.248337 -0.784379 -0.040000
v 0.173561 -0.706000 0.040000
v 0.173561 -0.706000 -0.040000
v 0.076596 -0.706000 0.040000
v 0.076596 -0.706000 -0.040000
v 0.191702 -0.897000 0.040000
v 0.191702 -0.897000 -0.040000
v 0.307108 -0.897000 0.040000
v 0.307108 -0.897000 -0.040000
v 0.426009 -0.706000 0.040000
v 0.426009 -0.706000 -0.040000
v 0.326716 -0.706000 -0.040000
v 0.335000 -0.726000 -0.060000
v 0.248337 -0.784379 -0.040000
v 0.248000 -0.813000 -0.060000
v 0.173561 -0.706000 -0.040000
v 0.165000 -0.726000 -0.060000
v 0.076596 -0.706000 -0.040000
v 0.112000 -0.726000 -0.060000
v 0.191702 -0.897000 -0.040000
v 0.203000 -0.877000 -0.060000
v 0.307108 -0.897000 -0.040000
v 0.296000 -0.877000 -0.060000
v 0.426009 -0.706000 -0.040000
v 0.390000 -0.726000 -0.060000
vn -0.0000 0.0000 -1.0000
vn 0.0000 0.0000 1.0000
vn 0.4082 0.4082 0.8165
vn 0.4082 -0.4082 0.8165
vn -0.4082 0.4082 0.8165
vn -0.4082 -0.4082 0.8165
vn 0.7071 0.7071 0.0000
vn 0.7071 -0.7071 0.0000
vn -0.7071 0.7071 0.0000
vn -0.7071 -0.7071 0.0000
vn 0.4082 0.4082 -0.8165
vn 0.4082 -0.4082 -0.8165
vn -0.4082 0.4082 -0.8165
vn -0.4082 -0.4082 -0.8165
vn -0.2597 0.6269 0.7345
vn 0.0067 0.5727 0.8197
vn 0.2663 0.6222 0.7362
vn -0.3843 0.2171 0.8973
vn -0.3230 -0.5717 0.7542
vn 0.3196 -0.5754 0.7529
vn 0.3818 0.2121 0.8996
vn -0.3827 0.9239 0.0000
vn 0.0117 0.9999 0.0000
vn 0.3935 0.9193 0.0000
vn -0.8707 0.4918 0.0000
vn -0.4918 -0.8707 0.0000
vn 0.4855 -0.8742 0.0000
vn 0.8742 0.4855 0.0000
vn -0.2597 0.6269 -0.7345
vn 0.0067 0.5727 -0.8197
vn 0.2663 0.6222 -0.7362
vn -0.3843 0.2171 -0.8973
vn -0.3230 -0.5717 -0.7542
vn 0.3196 -0.5754 -0.7529
vn 0.3818 0.2121 -0.8996
usemtl None
s off
f 16//1 8//1 17//1
f 8//1 18//1 17//1
f 8//1 19//1 18//1
f 16//1 9//1 8//1
f 16//1 12//1 9//1
f 12//1 10//1 9//1
f 12//1 11//1 10//1
f 16//1 13//1 12//1
f 16//1 14//1 13//1
f 16//1 15//1 14//1
f 4//1 6//1 5//1
f 4//1 2//1 6//1
f 2//1 7//1 6//1
f 4//1 3//1 2//1
f 1//1 7//1 2//1
f 27//2 35//2 36//2
f 37//2 27//2 36//2
f 38//2 27//2 37//2
f 28//2 35//2 27//2
f 31//2 35//2 28//2
f 29//2 31//2 28//2
f 30//2 31//2 29//2
f 32//2 35//2 31//2
f 33//2 35//2 32//2
f 34//2 35//2 33//2
f 25//2 23//2 24//2
f 21//2 23//2 25//2
f 26//2 21//2 25//2
f 22//2 23//2 21//2
f 26//2 20//2 21//2
s 1
f 40//3 42//4 41//4 39//3
f 42//4 44//4 43//4 41//4
f 44//4 46//3 45//3 43//4
f 46//3 48//3 47//3 45//3
f 48//3 50//4 49//4 47//3
f 50//4 52//4 51//4 49//4
f 52//4 54//3 53//3 51//4
f 54//3 56//5 55//5 53//3
f 56//5 58//6 57//6 55//5
f 58//6 60//4 59//4 57//6
f 60//4 62//3 61//3 59//4
f 62//3 40//3 39//3 61//3
f 64//7 66//8 65//8 63//7
f 66//8 68//8 67//8 65//8
f 68//8 70//7 69//7 67//8
f 70//7 72//7 71//7 69//7
f 72//7 74//8 73//8 71//7
f 74//8 76//8 75//8 73//8
f 76//8 78//7 77//7 75//8
f 78//7 80//9 79//9 77//7
f 80//9 82//10 81//10 79//9
f 82//10 84//8 83//8 81//10
f 84//8 86//7 85//7 83//8
f 86//7 64//7 63//7 85//7
f 88//11 90//12 89//12 87//11
f 90//12 92//12 91//12 89//12
f 92//12 94//11 93//11 91//12
f 94//11 96//11 95//11 93//11
f 96//11 98//12 97//12 95//11
f 98//12 100//12 99//12 97//12
f 100//12 102//11 101//11 99//12
f 102//11 104//13 103//13 101//11
f 104//13 106//14 105//14 103//13
f 106//14 108//12 107//12 105//14
f 108//12 110//11 109//11 107//12
f 110//11 88//11 87//11 109//11
f 112//15 114//16 113//16 111//15
f 114//16 116//17 115//17 113//16
f 116//17 118//18 117//18 115//17
f 118//18 120//19 119//19 117//18
f 120//19 122//20 121//20 119//19
f 122//20 124//21 123//21 121//20
f 124//21 112//15 111//15 123//21
f 126//22 128//23 127//23 125//22
f 128//23 130//24 129//24 127//23
f 130//24 132//25 131//25 129//24
f 132//25 134//26 133//26 131//25
f 134//26 136//27 135//27 133//26
f 136//27 138//28 137//28 135//27
f 138//28 126//22 125//22 137//28
f 140//29 142//30 141//30 139//29
f 142//30 144//31 143//31 141//30
f 144//31 146//32 145//32 143//31
f 146//32 148//33 147//33 145//32
f 148//33 150//34 149//34 147//33
f 150//34 152//35 151//35 149//34
f 152//35 140//29 139//29 151//35
