# Blender v2.79 (sub 0) OBJ File: 'unicode_to_obj.blend'
# www.blender.org
mtllib 00D7.mtl
o Text_CUText.1094
v 0.079000 -0.508000 -0.060000
v 0.138000 -0.567000 -0.060000
v 0.292000 -0.413000 -0.060000
v 0.445000 -0.566000 -0.060000
v 0.504000 -0.507000 -0.060000
v 0.351000 -0.354000 -0.060000
v 0.504000 -0.201000 -0.060000
v 0.445000 -0.142000 -0.060000
v 0.292000 -0.295000 -0.060000
v 0.138000 -0.141000 -0.060000
v 0.079000 -0.200000 -0.060000
v 0.233000 -0.354000 -0.060000
v 0.079000 -0.508000 0.060000
v 0.138000 -0.567000 0.060000
v 0.292000 -0.413000 0.060000
v 0.445000 -0.566000 0.060000
v 0.504000 -0.507000 0.060000
v 0.351000 -0.354000 0.060000
v 0.504000 -0.201000 0.060000
v 0.445000 -0.142000 0.060000
v 0.292000 -0.295000 0.060000
v 0.138000 -0.141000 0.060000
v 0.079000 -0.200000 0.060000
v 0.233000 -0.354000 0.060000
v 0.079000 -0.508000 0.060000
v 0.050716 -0.508000 0.040000
v 0.138000 -0.567000 0.060000
v 0.138000 -0.595284 0.040000
v 0.292000 -0.413000 0.060000
v 0.292000 -0.441284 0.040000
v 0.445000 -0.566000 0.060000
v 0.445000 -0.594284 0.040000
v 0.504000 -0.507000 0.060000
v 0.532284 -0.507000 0.040000
v 0.351000 -0.354000 0.060000
v 0.379284 -0.354000 0.040000
v 0.504000 -0.201000 0.060000
v 0.532284 -0.201000 0.040000
v 0.445000 -0.142000 0.060000
v 0.445000 -0.113716 0.040000
v 0.292000 -0.295000 0.060000
v 0.292000 -0.266716 0.040000
v 0.138000 -0.141000 0.060000
v 0.138000 -0.112716 0.040000
v 0.079000 -0.200000 0.060000
v 0.050716 -0.200000 0.040000
v 0.233000 -0.354000 0.060000
v 0.204716 -0.354000 0.040000
v 0.050716 -0.508000 0.040000
v 0.050716 -0.508000 -0.040000
v 0.138000 -0.595284 0.040000
v 0.138000 -0.595284 -0.040000
v 0.292000 -0.441284 0.040000
v 0.292000 -0.441284 -0.040000
v 0.445000 -0.594284 0.040000
v 0.445000 -0.594284 -0.040000
v 0.532284 -0.507000 0.040000
v 0.532284 -0.507000 -0.040000
v 0.379284 -0.354000 0.040000
v 0.379284 -0.354000 -0.040000
v 0.532284 -0.201000 0.040000
v 0.532284 -0.201000 -0.040000
v 0.445000 -0.113716 0.040000
v 0.445000 -0.113716 -0.040000
v 0.292000 -0.266716 0.040000
v 0.292000 -0.266716 -0.040000
v 0.138000 -0.112716 0.040000
v 0.138000 -0.112716 -0.040000
v 0.050716 -0.200000 0.040000
v 0.050716 -0.200000 -0.040000
v 0.204716 -0.354000 0.040000
v 0.204716 -0.354000 -0.040000
v 0.050716 -0.508000 -0.040000
v 0.079000 -0.508000 -0.060000
v 0.138000 -0.595284 -0.040000
v 0.138000 -0.567000 -0.060000
v 0.292000 -0.441284 -0.040000
v 0.292000 -0.413000 -0.060000
v 0.445000 -0.594284 -0.040000
v 0.445000 -0.566000 -0.060000
v 0.532284 -0.507000 -0.040000
v 0.504000 -0.507000 -0.060000
v 0.379284 -0.354000 -0.040000
v 0.351000 -0.354000 -0.060000
v 0.532284 -0.201000 -0.040000
v 0.504000 -0.201000 -0.060000
v 0.445000 -0.113716 -0.040000
v 0.445000 -0.142000 -0.060000
v 0.292000 -0.266716 -0.040000
v 0.292000 -0.295000 -0.060000
v 0.138000 -0.112716 -0.040000
v 0.138000 -0.141000 -0.060000
v 0.050716 -0.200000 -0.040000
v 0.079000 -0.200000 -0.060000
v 0.204716 -0.354000 -0.040000
v 0.233000 -0.354000 -0.060000
vn 0.0000 0.0000 -1.0000
vn 0.0000 0.0000 1.0000
vn -0.5773 0.0000 0.8165
vn 0.0000 -0.5773 0.8165
vn 0.5773 0.0000 0.8165
vn 0.0000 0.5773 0.8165
vn -1.0000 0.0000 0.0000
vn 0.0000 -1.0000 0.0000
vn 1.0000 0.0000 0.0000
vn 0.0000 1.0000 0.0000
vn -0.5773 0.0000 -0.8165
vn 0.0000 -0.5773 -0.8165
vn 0.5773 0.0000 -0.8165
vn 0.0000 0.5773 -0.8165
usemtl None
s off
f 1//1 3//1 2//1
f 3//1 5//1 4//1
f 12//1 3//1 1//1
f 3//1 6//1 5//1
f 12//1 6//1 3//1
f 11//1 6//1 12//1
f 11//1 9//1 6//1
f 9//1 7//1 6//1
f 11//1 10//1 9//1
f 8//1 7//1 9//1
f 15//2 13//2 14//2
f 17//2 15//2 16//2
f 15//2 24//2 13//2
f 18//2 15//2 17//2
f 18//2 24//2 15//2
f 18//2 23//2 24//2
f 21//2 23//2 18//2
f 19//2 21//2 18//2
f 22//2 23//2 21//2
f 19//2 20//2 21//2
s 1
f 26//3 28//4 27//4 25//3
f 28//4 30//4 29//4 27//4
f 30//4 32//4 31//4 29//4
f 32//4 34//5 33//5 31//4
f 34//5 36//5 35//5 33//5
f 36//5 38//5 37//5 35//5
f 38//5 40//6 39//6 37//5
f 40//6 42//6 41//6 39//6
f 42//6 44//6 43//6 41//6
f 44//6 46//3 45//3 43//6
f 46//3 48//3 47//3 45//3
f 48//3 26//3 25//3 47//3
f 50//7 52//8 51//8 49//7
f 52//8 54//8 53//8 51//8
f 54//8 56//8 55//8 53//8
f 56//8 58//9 57//9 55//8
f 58//9 60//9 59//9 57//9
f 60//9 62//9 61//9 59//9
f 62//9 64//10 63//10 61//9
f 64//10 66//10 65//10 63//10
f 66//10 68//10 67//10 65//10
f 68//10 70//7 69//7 67//10
f 70//7 72//7 71//7 69//7
f 72//7 50//7 49//7 71//7
f 74//11 76//12 75//12 73//11
f 76//12 78//12 77//12 75//12
f 78//12 80//12 79//12 77//12
f 80//12 82//13 81//13 79//12
f 82//13 84//13 83//13 81//13
f 84//13 86//13 85//13 83//13
f 86//13 88//14 87//14 85//13
f 88//14 90//14 89//14 87//14
f 90//14 92//14 91//14 89//14
f 92//14 94//11 93//11 91//14
f 94//11 96//11 95//11 93//11
f 96//11 74//11 73//11 95//11
