# Blender v2.79 (sub 0) OBJ File: 'unicode_to_obj.blend'
# www.blender.org
mtllib 00DD.mtl
o Text_CUText.1100
v 0.302000 -0.727000 -0.060000
v 0.247000 -0.727000 -0.060000
v 0.314000 -0.874000 -0.060000
v 0.414000 -0.874000 -0.060000
v 0.604000 -0.682000 -0.060000
v 0.351000 -0.360000 -0.060000
v 0.351000 -0.000000 -0.060000
v 0.253000 -0.000000 -0.060000
v 0.253000 -0.361000 -0.060000
v 0.000000 -0.682000 -0.060000
v 0.118000 -0.682000 -0.060000
v 0.301000 -0.447000 -0.060000
v 0.486000 -0.682000 -0.060000
v 0.302000 -0.727000 0.060000
v 0.247000 -0.727000 0.060000
v 0.314000 -0.874000 0.060000
v 0.414000 -0.874000 0.060000
v 0.604000 -0.682000 0.060000
v 0.351000 -0.360000 0.060000
v 0.351000 -0.000000 0.060000
v 0.253000 -0.000000 0.060000
v 0.253000 -0.361000 0.060000
v 0.000000 -0.682000 0.060000
v 0.118000 -0.682000 0.060000
v 0.301000 -0.447000 0.060000
v 0.486000 -0.682000 0.060000
v 0.604000 -0.682000 0.060000
v 0.645149 -0.702000 0.040000
v 0.351000 -0.360000 0.060000
v 0.371000 -0.353083 0.040000
v 0.351000 -0.000000 0.060000
v 0.371000 0.020000 0.040000
v 0.253000 -0.000000 0.060000
v 0.233000 0.020000 0.040000
v 0.253000 -0.361000 0.060000
v 0.233000 -0.354066 0.040000
v 0.000000 -0.682000 0.060000
v -0.041229 -0.702000 0.040000
v 0.118000 -0.682000 0.060000
v 0.127774 -0.702000 0.040000
v 0.301000 -0.447000 0.060000
v 0.301086 -0.479442 0.040000
v 0.486000 -0.682000 0.060000
v 0.476291 -0.702000 0.040000
v 0.645149 -0.702000 0.040000
v 0.645149 -0.702000 -0.040000
v 0.371000 -0.353083 0.040000
v 0.371000 -0.353083 -0.040000
v 0.371000 0.020000 0.040000
v 0.371000 0.020000 -0.040000
v 0.233000 0.020000 0.040000
v 0.233000 0.020000 -0.040000
v 0.233000 -0.354066 0.040000
v 0.233000 -0.354066 -0.040000
v -0.041229 -0.702000 0.040000
v -0.041229 -0.702000 -0.040000
v 0.127774 -0.702000 0.040000
v 0.127774 -0.702000 -0.040000
v 0.301086 -0.479442 0.040000
v 0.301086 -0.479442 -0.040000
v 0.476291 -0.702000 0.040000
v 0.476291 -0.702000 -0.040000
v 0.645149 -0.702000 -0.040000
v 0.604000 -0.682000 -0.060000
v 0.371000 -0.353083 -0.040000
v 0.351000 -0.360000 -0.060000
v 0.371000 0.020000 -0.040000
v 0.351000 -0.000000 -0.060000
v 0.233000 0.020000 -0.040000
v 0.253000 -0.000000 -0.060000
v 0.233000 -0.354066 -0.040000
v 0.253000 -0.361000 -0.060000
v -0.041229 -0.702000 -0.040000
v 0.000000 -0.682000 -0.060000
v 0.127774 -0.702000 -0.040000
v 0.118000 -0.682000 -0.060000
v 0.301086 -0.479442 -0.040000
v 0.301000 -0.447000 -0.060000
v 0.476291 -0.702000 -0.040000
v 0.486000 -0.682000 -0.060000
v 0.302000 -0.727000 0.060000
v 0.311906 -0.707000 0.040000
v 0.247000 -0.727000 0.060000
v 0.215905 -0.707000 0.040000
v 0.314000 -0.874000 0.060000
v 0.301136 -0.894000 0.040000
v 0.414000 -0.874000 0.060000
v 0.454382 -0.894000 0.040000
v 0.311906 -0.707000 0.040000
v 0.311906 -0.707000 -0.040000
v 0.215905 -0.707000 0.040000
v 0.215905 -0.707000 -0.040000
v 0.301136 -0.894000 0.040000
v 0.301136 -0.894000 -0.040000
v 0.454382 -0.894000 0.040000
v 0.454382 -0.894000 -0.040000
v 0.311906 -0.707000 -0.040000
v 0.302000 -0.727000 -0.060000
v 0.215905 -0.707000 -0.040000
v 0.247000 -0.727000 -0.060000
v 0.301136 -0.894000 -0.040000
v 0.314000 -0.874000 -0.060000
v 0.454382 -0.894000 -0.040000
v 0.414000 -0.874000 -0.060000
vn 0.0000 0.0000 -1.0000
vn 0.0000 0.0000 1.0000
vn 0.3602 -0.1751 0.9163
vn 0.6491 0.2245 0.7268
vn 0.4082 0.4082 0.8165
vn -0.4082 0.4082 0.8165
vn -0.6489 0.2250 0.7269
vn -0.3599 -0.1746 0.9165
vn 0.2934 -0.6005 0.7439
vn 0.0014 -0.5248 0.8512
vn -0.2921 -0.6016 0.7434
vn 0.8994 -0.4371 0.0000
vn 0.9451 0.3269 0.0000
vn 0.7071 0.7071 0.0000
vn -0.7071 0.7071 0.0000
vn -0.9448 0.3276 0.0000
vn -0.8997 -0.4364 0.0000
vn 0.4391 -0.8984 0.0000
vn 0.0026 -1.0000 0.0000
vn -0.4367 -0.8996 0.0000
vn 0.3602 -0.1751 -0.9163
vn 0.6491 0.2245 -0.7268
vn 0.4082 0.4082 -0.8165
vn -0.4082 0.4082 -0.8165
vn -0.6489 0.2250 -0.7269
vn -0.3599 -0.1746 -0.9165
vn 0.2934 -0.6005 -0.7439
vn 0.0014 -0.5248 -0.8512
vn -0.2921 -0.6016 -0.7434
vn 0.2962 0.5980 0.7447
vn -0.4002 0.2574 0.8795
vn -0.3482 -0.5413 0.7653
vn 0.3635 -0.1800 0.9140
vn 0.4438 0.8961 0.0000
vn -0.8410 0.5409 0.0000
vn -0.5409 -0.8410 0.0000
vn 0.8961 -0.4438 0.0000
vn 0.2962 0.5980 -0.7447
vn -0.4002 0.2574 -0.8795
vn -0.3482 -0.5413 -0.7653
vn 0.3635 -0.1800 -0.9140
usemtl None
s off
f 9//1 11//1 10//1
f 9//1 12//1 11//1
f 12//1 5//1 13//1
f 12//1 6//1 5//1
f 9//1 6//1 12//1
f 8//1 6//1 9//1
f 8//1 7//1 6//1
f 2//1 4//1 3//1
f 2//1 1//1 4//1
f 24//2 22//2 23//2
f 25//2 22//2 24//2
f 18//2 25//2 26//2
f 19//2 25//2 18//2
f 19//2 22//2 25//2
f 19//2 21//2 22//2
f 20//2 21//2 19//2
f 17//2 15//2 16//2
f 14//2 15//2 17//2
s 1
f 28//3 30//4 29//4 27//3
f 30//4 32//5 31//5 29//4
f 32//5 34//6 33//6 31//5
f 34//6 36//7 35//7 33//6
f 36//7 38//8 37//8 35//7
f 38//8 40//9 39//9 37//8
f 40//9 42//10 41//10 39//9
f 42//10 44//11 43//11 41//10
f 44//11 28//3 27//3 43//11
f 46//12 48//13 47//13 45//12
f 48//13 50//14 49//14 47//13
f 50//14 52//15 51//15 49//14
f 52//15 54//16 53//16 51//15
f 54//16 56//17 55//17 53//16
f 56//17 58//18 57//18 55//17
f 58//18 60//19 59//19 57//18
f 60//19 62//20 61//20 59//19
f 62//20 46//12 45//12 61//20
f 64//21 66//22 65//22 63//21
f 66//22 68//23 67//23 65//22
f 68//23 70//24 69//24 67//23
f 70//24 72//25 71//25 69//24
f 72//25 74//26 73//26 71//25
f 74//26 76//27 75//27 73//26
f 76//27 78//28 77//28 75//27
f 78//28 80//29 79//29 77//28
f 80//29 64//21 63//21 79//29
f 82//30 84//31 83//31 81//30
f 84//31 86//32 85//32 83//31
f 86//32 88//33 87//33 85//32
f 88//33 82//30 81//30 87//33
f 90//34 92//35 91//35 89//34
f 92//35 94//36 93//36 91//35
f 94//36 96//37 95//37 93//36
f 96//37 90//34 89//34 95//37
f 98//38 100//39 99//39 97//38
f 100//39 102//40 101//40 99//39
f 102//40 104//41 103//41 101//40
f 104//41 98//38 97//38 103//41
